Narnoor-Regular.ufo
<glyph name="exclam" format="2">
  <advance width="339"/>
  <unicode hex="0021"/>
  <outline>
    <contour>
      <point x="209" y="196" type="line"/>
      <point x="247" y="570" type="line"/>
      <point x="247" y="614"/>
      <point x="218" y="636"/>
      <point x="189" y="636" type="curve" smooth="yes"/>
      <point x="160" y="636"/>
      <point x="131" y="614"/>
      <point x="131" y="570" type="curve"/>
      <point x="170" y="196" type="line"/>
    </contour>
    <contour>
      <point x="191" y="-6" type="line"/>
      <point x="256" y="61" type="line"/>
      <point x="188" y="132" type="line"/>
      <point x="121" y="61" type="line"/>
    </contour>
  </outline>
</glyph>
<glyph name="numbersign" format="2">
  <advance width="570"/>
  <unicode hex="0023"/>
  <outline>
    <contour>
      <point x="525" y="442" type="line"/>
      <point x="45" y="442" type="line"/>
      <point x="45" y="380" type="line"/>
      <point x="525" y="380" type="line"/>
    </contour>
    <contour>
      <point x="45" y="190" type="line"/>
      <point x="525" y="190" type="line"/>
      <point x="525" y="253" type="line"/>
      <point x="45" y="253" type="line"/>
    </contour>
    <contour>
      <point x="235" y="651" type="line"/>
      <point x="98" y="-6" type="line"/>
      <point x="162" y="-6" type="line"/>
      <point x="299" y="651" type="line"/>
    </contour>
    <contour>
      <point x="420" y="651" type="line"/>
      <point x="283" y="-6" type="line"/>
      <point x="347" y="-6" type="line"/>
      <point x="484" y="651" type="line"/>
    </contour>
  </outline>
</glyph>
<glyph name="dollar" format="2">
  <advance width="485"/>
  <unicode hex="0024"/>
  <outline>
    <contour>
      <point x="236" y="-11" type="curve" smooth="yes"/>
      <point x="354" y="-11"/>
      <point x="427" y="58"/>
      <point x="427" y="163" type="curve" smooth="yes"/>
      <point x="427" y="366"/>
      <point x="160" y="333"/>
      <point x="160" y="465" type="curve" smooth="yes"/>
      <point x="160" y="518"/>
      <point x="196" y="552"/>
      <point x="253" y="552" type="curve" smooth="yes"/>
      <point x="303" y="552"/>
      <point x="332" y="533"/>
      <point x="368" y="498" type="curve"/>
      <point x="416" y="552" type="line"/>
      <point x="375" y="595"/>
      <point x="327" y="627"/>
      <point x="249" y="627" type="curve" smooth="yes"/>
      <point x="144" y="627"/>
      <point x="72" y="560"/>
      <point x="72" y="460" type="curve" smooth="yes"/>
      <point x="72" y="275"/>
      <point x="339" y="303"/>
      <point x="339" y="156" type="curve" smooth="yes"/>
      <point x="339" y="99"/>
      <point x="305" y="63"/>
      <point x="236" y="63" type="curve" smooth="yes"/>
      <point x="180" y="63"/>
      <point x="132" y="90"/>
      <point x="89" y="125" type="curve"/>
      <point x="47" y="63" type="line"/>
      <point x="95" y="20"/>
      <point x="169" y="-11"/>
    </contour>
    <contour>
      <point x="213" y="-106" type="line"/>
      <point x="278" y="-106" type="line"/>
      <point x="278" y="21" type="line"/>
      <point x="213" y="21" type="line"/>
    </contour>
    <contour>
      <point x="213" y="595" type="line"/>
      <point x="278" y="595" type="line"/>
      <point x="278" y="722" type="line"/>
      <point x="213" y="722" type="line"/>
    </contour>
  </outline>
</glyph>
<glyph name="ampersand" format="2">
  <advance width="592"/>
  <unicode hex="0026"/>
  <outline>
    <contour>
      <point x="222" y="-11" type="curve" smooth="yes"/>
      <point x="314" y="-11"/>
      <point x="384" y="29"/>
      <point x="438" y="88" type="curve" smooth="yes"/>
      <point x="500" y="160"/>
      <point x="543" y="246"/>
      <point x="570" y="339" type="curve"/>
      <point x="484" y="339" type="line"/>
      <point x="461" y="255"/>
      <point x="423" y="186"/>
      <point x="373" y="132" type="curve" smooth="yes"/>
      <point x="332" y="90"/>
      <point x="283" y="62"/>
      <point x="234" y="62" type="curve" smooth="yes"/>
      <point x="168" y="62"/>
      <point x="118" y="104"/>
      <point x="118" y="167" type="curve" smooth="yes"/>
      <point x="118" y="298"/>
      <point x="389" y="344"/>
      <point x="389" y="506" type="curve" smooth="yes"/>
      <point x="389" y="581"/>
      <point x="340" y="633"/>
      <point x="258" y="633" type="curve" smooth="yes"/>
      <point x="168" y="633"/>
      <point x="108" y="566"/>
      <point x="108" y="482" type="curve" smooth="yes"/>
      <point x="108" y="352"/>
      <point x="241" y="179"/>
      <point x="382" y="74" type="curve" smooth="yes"/>
      <point x="441" y="30"/>
      <point x="500" y="1"/>
      <point x="553" y="-11" type="curve"/>
      <point x="577" y="65" type="line"/>
      <point x="537" y="75"/>
      <point x="488" y="100"/>
      <point x="439" y="136" type="curve" smooth="yes"/>
      <point x="317" y="221"/>
      <point x="188" y="371"/>
      <point x="188" y="483" type="curve" smooth="yes"/>
      <point x="188" y="532"/>
      <point x="217" y="568"/>
      <point x="259" y="568" type="curve" smooth="yes"/>
      <point x="298" y="568"/>
      <point x="314" y="539"/>
      <point x="314" y="505" type="curve" smooth="yes"/>
      <point x="314" y="374"/>
      <point x="28" y="351"/>
      <point x="28" y="162" type="curve" smooth="yes"/>
      <point x="28" y="63"/>
      <point x="104" y="-11"/>
    </contour>
  </outline>
</glyph>
<glyph name="quotesingle" format="2">
  <advance width="258"/>
  <unicode hex="0027"/>
  <outline>
    <contour>
      <point x="137" y="600" type="line"/>
      <point x="172" y="820" type="line"/>
      <point x="86" y="828" type="line"/>
      <point x="86" y="760"/>
      <point x="110" y="672"/>
      <point x="110" y="600" type="curve"/>
    </contour>
  </outline>
</glyph>
<glyph name="plus" format="2">
  <advance width="691"/>
  <unicode hex="002B"/>
  <outline>
    <contour>
      <point x="80" y="284" type="line"/>
      <point x="603" y="284" type="line"/>
      <point x="603" y="364" type="line"/>
      <point x="80" y="364" type="line"/>
    </contour>
    <contour>
      <point x="302" y="586" type="line"/>
      <point x="302" y="63" type="line"/>
      <point x="382" y="63" type="line"/>
      <point x="382" y="586" type="line"/>
    </contour>
  </outline>
</glyph>
<glyph name="comma" format="2">
  <advance width="237"/>
  <unicode hex="002C"/>
  <outline>
    <contour>
      <point x="160" y="21" type="curve" smooth="yes"/>
      <point x="160" y="56"/>
      <point x="134" y="98"/>
      <point x="102" y="139" type="curve"/>
      <point x="24" y="56" type="line"/>
      <point x="78" y="-3"/>
      <point x="83" y="-9"/>
      <point x="83" y="-19" type="curve" smooth="yes"/>
      <point x="83" y="-29"/>
      <point x="80" y="-36"/>
      <point x="-1" y="-135" type="curve"/>
      <point x="26" y="-160" type="line"/>
      <point x="118" y="-62"/>
      <point x="160" y="-5"/>
    </contour>
  </outline>
</glyph>
<glyph name="hyphen" format="2">
  <advance width="618"/>
  <unicode hex="002D"/>
  <outline>
    <contour>
      <point x="80" y="250" type="line"/>
      <point x="538" y="250" type="line"/>
      <point x="538" y="324" type="line"/>
      <point x="80" y="324" type="line"/>
    </contour>
  </outline>
</glyph>
<glyph name="period" format="2">
  <advance width="241"/>
  <unicode hex="002E"/>
  <outline>
    <contour>
      <point x="118" y="-5" type="line"/>
      <point x="192" y="70" type="line"/>
      <point x="116" y="147" type="line"/>
      <point x="40" y="70" type="line"/>
    </contour>
  </outline>
</glyph>
<glyph name="slash" format="2">
  <advance width="444"/>
  <unicode hex="002F"/>
  <outline>
    <contour>
      <point x="17" y="-31" type="line"/>
      <point x="87" y="-31" type="line"/>
      <point x="384" y="704" type="line"/>
      <point x="313" y="704" type="line"/>
    </contour>
  </outline>
</glyph>
<glyph name="zero" format="2">
  <advance width="479"/>
  <unicode hex="0030"/>
  <outline>
    <contour>
      <point x="239" y="-11" type="curve" smooth="yes"/>
      <point x="363" y="-11"/>
      <point x="439" y="101"/>
      <point x="439" y="304" type="curve" smooth="yes"/>
      <point x="439" y="508"/>
      <point x="363" y="616"/>
      <point x="239" y="616" type="curve" smooth="yes"/>
      <point x="116" y="616"/>
      <point x="40" y="508"/>
      <point x="40" y="304" type="curve" smooth="yes"/>
      <point x="40" y="101"/>
      <point x="116" y="-11"/>
    </contour>
    <contour>
      <point x="239" y="63" type="curve" smooth="yes"/>
      <point x="175" y="63"/>
      <point x="130" y="130"/>
      <point x="130" y="304" type="curve" smooth="yes"/>
      <point x="130" y="479"/>
      <point x="175" y="542"/>
      <point x="239" y="542" type="curve" smooth="yes"/>
      <point x="304" y="542"/>
      <point x="349" y="479"/>
      <point x="349" y="304" type="curve" smooth="yes"/>
      <point x="349" y="130"/>
      <point x="304" y="63"/>
    </contour>
  </outline>
</glyph>
<glyph name="one" format="2">
  <advance width="479"/>
  <unicode hex="0031"/>
  <outline>
    <contour>
      <point x="72" y="0" type="line"/>
      <point x="425" y="0" type="line"/>
      <point x="425" y="77" type="line"/>
      <point x="303" y="77" type="line"/>
      <point x="303" y="605" type="line"/>
      <point x="232" y="605" type="line"/>
      <point x="196" y="583"/>
      <point x="156" y="568"/>
      <point x="98" y="558" type="curve"/>
      <point x="98" y="498" type="line"/>
      <point x="209" y="498" type="line"/>
      <point x="209" y="77" type="line"/>
      <point x="72" y="77" type="line"/>
    </contour>
  </outline>
</glyph>
<glyph name="two" format="2">
  <advance width="485"/>
  <unicode hex="0032"/>
  <outline>
    <contour>
      <point x="37" y="0" type="line"/>
      <point x="442" y="0" type="line"/>
      <point x="442" y="77" type="line"/>
      <point x="273" y="77" type="line" smooth="yes"/>
      <point x="242" y="77"/>
      <point x="203" y="74"/>
      <point x="170" y="71" type="curve"/>
      <point x="307" y="216"/>
      <point x="412" y="330"/>
      <point x="412" y="443" type="curve" smooth="yes"/>
      <point x="412" y="554"/>
      <point x="338" y="627"/>
      <point x="223" y="627" type="curve" smooth="yes"/>
      <point x="142" y="627"/>
      <point x="86" y="591"/>
      <point x="33" y="533" type="curve"/>
      <point x="85" y="482" type="line"/>
      <point x="119" y="522"/>
      <point x="162" y="554"/>
      <point x="212" y="554" type="curve" smooth="yes"/>
      <point x="286" y="554"/>
      <point x="323" y="507"/>
      <point x="323" y="439" type="curve" smooth="yes"/>
      <point x="323" y="341"/>
      <point x="218" y="231"/>
      <point x="37" y="53" type="curve"/>
    </contour>
  </outline>
</glyph>
<glyph name="three" format="2">
  <advance width="485"/>
  <unicode hex="0033"/>
  <outline>
    <contour>
      <point x="229" y="-11" type="curve" smooth="yes"/>
      <point x="344" y="-11"/>
      <point x="437" y="54"/>
      <point x="437" y="165" type="curve" smooth="yes"/>
      <point x="437" y="248"/>
      <point x="379" y="302"/>
      <point x="305" y="320" type="curve"/>
      <point x="305" y="324" type="line"/>
      <point x="372" y="349"/>
      <point x="415" y="396"/>
      <point x="415" y="469" type="curve" smooth="yes"/>
      <point x="415" y="570"/>
      <point x="337" y="627"/>
      <point x="226" y="627" type="curve" smooth="yes"/>
      <point x="153" y="627"/>
      <point x="95" y="595"/>
      <point x="46" y="550" type="curve"/>
      <point x="94" y="493" type="line"/>
      <point x="131" y="529"/>
      <point x="172" y="554"/>
      <point x="223" y="554" type="curve" smooth="yes"/>
      <point x="285" y="554"/>
      <point x="324" y="519"/>
      <point x="324" y="462" type="curve" smooth="yes"/>
      <point x="324" y="400"/>
      <point x="281" y="353"/>
      <point x="154" y="353" type="curve"/>
      <point x="154" y="285" type="line"/>
      <point x="298" y="285"/>
      <point x="345" y="238"/>
      <point x="345" y="169" type="curve" smooth="yes"/>
      <point x="345" y="103"/>
      <point x="294" y="63"/>
      <point x="222" y="63" type="curve" smooth="yes"/>
      <point x="154" y="63"/>
      <point x="106" y="96"/>
      <point x="69" y="134" type="curve"/>
      <point x="24" y="75" type="line"/>
      <point x="66" y="28"/>
      <point x="130" y="-11"/>
    </contour>
  </outline>
</glyph>
<glyph name="four" format="2">
  <advance width="479"/>
  <unicode hex="0034"/>
  <outline>
    <contour>
      <point x="286" y="0" type="line"/>
      <point x="374" y="0" type="line"/>
      <point x="374" y="605" type="line"/>
      <point x="266" y="605" type="line"/>
      <point x="17" y="224" type="line"/>
      <point x="17" y="161" type="line"/>
      <point x="453" y="161" type="line"/>
      <point x="453" y="234" type="line"/>
      <point x="112" y="234" type="line"/>
      <point x="237" y="422" type="line"/>
      <point x="254" y="453"/>
      <point x="272" y="482"/>
      <point x="287" y="512" type="curve"/>
      <point x="291" y="512" type="line"/>
      <point x="289" y="478"/>
      <point x="286" y="425"/>
      <point x="286" y="391" type="curve" smooth="yes"/>
    </contour>
  </outline>
</glyph>
<glyph name="five" format="2">
  <advance width="479"/>
  <unicode hex="0035"/>
  <outline>
    <contour>
      <point x="225" y="-11" type="curve" smooth="yes"/>
      <point x="334" y="-11"/>
      <point x="434" y="63"/>
      <point x="434" y="195" type="curve" smooth="yes"/>
      <point x="434" y="325"/>
      <point x="348" y="384"/>
      <point x="245" y="384" type="curve" smooth="yes"/>
      <point x="211" y="384"/>
      <point x="185" y="376"/>
      <point x="158" y="362" type="curve"/>
      <point x="173" y="525" type="line"/>
      <point x="404" y="525" type="line"/>
      <point x="404" y="605" type="line"/>
      <point x="91" y="605" type="line"/>
      <point x="72" y="310" type="line"/>
      <point x="119" y="280" type="line"/>
      <point x="155" y="304"/>
      <point x="179" y="315"/>
      <point x="219" y="315" type="curve" smooth="yes"/>
      <point x="291" y="315"/>
      <point x="339" y="270"/>
      <point x="339" y="192" type="curve" smooth="yes"/>
      <point x="339" y="114"/>
      <point x="285" y="65"/>
      <point x="214" y="65" type="curve" smooth="yes"/>
      <point x="148" y="65"/>
      <point x="103" y="97"/>
      <point x="67" y="132" type="curve"/>
      <point x="22" y="72" type="line"/>
      <point x="66" y="28"/>
      <point x="127" y="-11"/>
    </contour>
  </outline>
</glyph>
<glyph name="six" format="2">
  <advance width="485"/>
  <unicode hex="0036"/>
  <outline>
    <contour>
      <point x="261" y="-11" type="curve" smooth="yes"/>
      <point x="362" y="-11"/>
      <point x="447" y="67"/>
      <point x="447" y="187" type="curve" smooth="yes"/>
      <point x="447" y="314"/>
      <point x="377" y="378"/>
      <point x="270" y="378" type="curve" smooth="yes"/>
      <point x="220" y="378"/>
      <point x="162" y="346"/>
      <point x="125" y="295" type="curve"/>
      <point x="128" y="227" type="line"/>
      <point x="168" y="288"/>
      <point x="216" y="311"/>
      <point x="254" y="311" type="curve" smooth="yes"/>
      <point x="325" y="311"/>
      <point x="362" y="265"/>
      <point x="362" y="187" type="curve" smooth="yes"/>
      <point x="362" y="108"/>
      <point x="318" y="58"/>
      <point x="260" y="58" type="curve" smooth="yes"/>
      <point x="178" y="58"/>
      <point x="130" y="134"/>
      <point x="130" y="286" type="curve" smooth="yes"/>
      <point x="130" y="485"/>
      <point x="201" y="552"/>
      <point x="286" y="552" type="curve" smooth="yes"/>
      <point x="324" y="552"/>
      <point x="362" y="533"/>
      <point x="386" y="504" type="curve"/>
      <point x="436" y="560" type="line"/>
      <point x="401" y="598"/>
      <point x="351" y="627"/>
      <point x="282" y="627" type="curve" smooth="yes"/>
      <point x="158" y="627"/>
      <point x="45" y="530"/>
      <point x="45" y="286" type="curve" smooth="yes"/>
      <point x="45" y="85"/>
      <point x="140" y="-11"/>
    </contour>
  </outline>
</glyph>
<glyph name="seven" format="2">
  <advance width="485"/>
  <unicode hex="0037"/>
  <outline>
    <contour>
      <point x="168" y="0" type="curve"/>
      <point x="261" y="0" type="line"/>
      <point x="271" y="240"/>
      <point x="299" y="376"/>
      <point x="445" y="560" type="curve"/>
      <point x="445" y="616" type="line"/>
      <point x="42" y="616" type="line"/>
      <point x="42" y="538" type="line"/>
      <point x="343" y="538" type="line"/>
      <point x="223" y="370"/>
      <point x="178" y="227"/>
    </contour>
  </outline>
</glyph>
<glyph name="eight" format="2">
  <advance width="479"/>
  <unicode hex="0038"/>
  <outline>
    <contour>
      <point x="240" y="-11" type="curve" smooth="yes"/>
      <point x="360" y="-11"/>
      <point x="440" y="59"/>
      <point x="440" y="151" type="curve" smooth="yes"/>
      <point x="440" y="232"/>
      <point x="390" y="276"/>
      <point x="335" y="308" type="curve"/>
      <point x="335" y="311" type="line"/>
      <point x="374" y="339"/>
      <point x="418" y="392"/>
      <point x="418" y="454" type="curve" smooth="yes"/>
      <point x="418" y="550"/>
      <point x="350" y="616"/>
      <point x="243" y="616" type="curve" smooth="yes"/>
      <point x="142" y="616"/>
      <point x="66" y="554"/>
      <point x="66" y="458" type="curve" smooth="yes"/>
      <point x="66" y="394"/>
      <point x="104" y="350"/>
      <point x="150" y="317" type="curve"/>
      <point x="150" y="314" type="line"/>
      <point x="93" y="283"/>
      <point x="38" y="232"/>
      <point x="38" y="154" type="curve" smooth="yes"/>
      <point x="38" y="58"/>
      <point x="124" y="-11"/>
    </contour>
    <contour>
      <point x="281" y="335" type="curve"/>
      <point x="212" y="363"/>
      <point x="151" y="392"/>
      <point x="151" y="458" type="curve" smooth="yes"/>
      <point x="151" y="513"/>
      <point x="190" y="548"/>
      <point x="241" y="548" type="curve" smooth="yes"/>
      <point x="303" y="548"/>
      <point x="338" y="505"/>
      <point x="338" y="448" type="curve" smooth="yes"/>
      <point x="338" y="407"/>
      <point x="318" y="370"/>
    </contour>
    <contour>
      <point x="242" y="56" type="curve" smooth="yes"/>
      <point x="174" y="56"/>
      <point x="122" y="100"/>
      <point x="122" y="164" type="curve" smooth="yes"/>
      <point x="122" y="215"/>
      <point x="154" y="257"/>
      <point x="197" y="286" type="curve"/>
      <point x="281" y="252"/>
      <point x="351" y="226"/>
      <point x="351" y="154" type="curve" smooth="yes"/>
      <point x="351" y="95"/>
      <point x="307" y="56"/>
    </contour>
  </outline>
</glyph>
<glyph name="nine" format="2">
  <advance width="485"/>
  <unicode hex="0039"/>
  <outline>
    <contour>
      <point x="202" y="-11" type="curve" smooth="yes"/>
      <point x="326" y="-11"/>
      <point x="439" y="85"/>
      <point x="439" y="329" type="curve" smooth="yes"/>
      <point x="439" y="530"/>
      <point x="344" y="627"/>
      <point x="223" y="627" type="curve" smooth="yes"/>
      <point x="122" y="627"/>
      <point x="37" y="548"/>
      <point x="37" y="428" type="curve" smooth="yes"/>
      <point x="37" y="301"/>
      <point x="107" y="237"/>
      <point x="214" y="237" type="curve" smooth="yes"/>
      <point x="264" y="237"/>
      <point x="322" y="269"/>
      <point x="359" y="320" type="curve"/>
      <point x="356" y="388" type="line"/>
      <point x="316" y="327"/>
      <point x="268" y="304"/>
      <point x="230" y="304" type="curve" smooth="yes"/>
      <point x="159" y="304"/>
      <point x="122" y="350"/>
      <point x="122" y="428" type="curve" smooth="yes"/>
      <point x="122" y="507"/>
      <point x="166" y="557"/>
      <point x="224" y="557" type="curve" smooth="yes"/>
      <point x="305" y="557"/>
      <point x="354" y="481"/>
      <point x="354" y="329" type="curve" smooth="yes"/>
      <point x="354" y="130"/>
      <point x="284" y="63"/>
      <point x="198" y="63" type="curve" smooth="yes"/>
      <point x="160" y="63"/>
      <point x="122" y="82"/>
      <point x="97" y="111" type="curve"/>
      <point x="48" y="55" type="line"/>
      <point x="82" y="17"/>
      <point x="133" y="-11"/>
    </contour>
  </outline>
</glyph>
<glyph name="at" format="2">
  <advance width="817"/>
  <unicode hex="0040"/>
  <outline>
    <contour>
      <point x="388" y="-151" type="curve" smooth="yes"/>
      <point x="455" y="-151"/>
      <point x="514" y="-136"/>
      <point x="570" y="-103" type="curve"/>
      <point x="547" y="-49" type="line"/>
      <point x="505" y="-73"/>
      <point x="451" y="-90"/>
      <point x="396" y="-90" type="curve" smooth="yes"/>
      <point x="237" y="-90"/>
      <point x="114" y="10"/>
      <point x="114" y="196" type="curve" smooth="yes"/>
      <point x="114" y="416"/>
      <point x="277" y="558"/>
      <point x="444" y="558" type="curve" smooth="yes"/>
      <point x="620" y="558"/>
      <point x="706" y="444"/>
      <point x="706" y="295" type="curve" smooth="yes"/>
      <point x="706" y="177"/>
      <point x="641" y="105"/>
      <point x="583" y="105" type="curve" smooth="yes"/>
      <point x="533" y="105"/>
      <point x="516" y="139"/>
      <point x="533" y="209" type="curve" smooth="yes"/>
      <point x="572" y="404" type="line"/>
      <point x="511" y="404" type="line"/>
      <point x="500" y="365" type="line"/>
      <point x="498" y="365" type="line"/>
      <point x="481" y="397"/>
      <point x="455" y="411"/>
      <point x="423" y="411" type="curve" smooth="yes"/>
      <point x="312" y="411"/>
      <point x="238" y="293"/>
      <point x="238" y="188" type="curve" smooth="yes"/>
      <point x="238" y="101"/>
      <point x="288" y="51"/>
      <point x="355" y="51" type="curve" smooth="yes"/>
      <point x="396" y="51"/>
      <point x="440" y="79"/>
      <point x="470" y="116" type="curve"/>
      <point x="472" y="116" type="line"/>
      <point x="479" y="68"/>
      <point x="521" y="44"/>
      <point x="573" y="44" type="curve" smooth="yes"/>
      <point x="663" y="44"/>
      <point x="770" y="130"/>
      <point x="770" y="298" type="curve" smooth="yes"/>
      <point x="770" y="488"/>
      <point x="647" y="619"/>
      <point x="452" y="619" type="curve" smooth="yes"/>
      <point x="234" y="619"/>
      <point x="47" y="450"/>
      <point x="47" y="193" type="curve" smooth="yes"/>
      <point x="47" y="-33"/>
      <point x="201" y="-151"/>
    </contour>
    <contour>
      <point x="374" y="114" type="curve" smooth="yes"/>
      <point x="337" y="114"/>
      <point x="311" y="137"/>
      <point x="311" y="193" type="curve" smooth="yes"/>
      <point x="311" y="261"/>
      <point x="354" y="348"/>
      <point x="424" y="348" type="curve" smooth="yes"/>
      <point x="448" y="348"/>
      <point x="465" y="338"/>
      <point x="481" y="311" type="curve"/>
      <point x="455" y="166" type="line"/>
      <point x="424" y="129"/>
      <point x="399" y="114"/>
    </contour>
  </outline>
</glyph>
<glyph name="A" format="2">
  <advance width="530"/>
  <unicode hex="0041"/>
  <anchor x="263" y="654" name="aboveUC"/>
  <outline>
    <contour>
      <point x="432" y="0" type="line"/>
      <point x="529" y="0" type="line"/>
      <point x="317" y="633" type="line"/>
      <point x="212" y="633" type="line"/>
      <point x="0" y="0" type="line"/>
      <point x="94" y="0" type="line"/>
      <point x="152" y="185" type="line"/>
      <point x="374" y="185" type="line"/>
    </contour>
    <contour>
      <point x="171" y="258" type="line"/>
      <point x="201" y="348" type="line" smooth="yes"/>
      <point x="222" y="417"/>
      <point x="242" y="487"/>
      <point x="261" y="559" type="curve"/>
      <point x="265" y="559" type="line"/>
      <point x="285" y="488"/>
      <point x="304" y="417"/>
      <point x="326" y="348" type="curve" smooth="yes"/>
      <point x="356" y="258" type="line"/>
    </contour>
  </outline>
</glyph>
<glyph name="B" format="2">
  <advance width="562"/>
  <unicode hex="0042"/>
  <anchor x="275" y="643" name="aboveUC"/>
  <outline>
    <contour>
      <point x="82" y="0" type="line"/>
      <point x="289" y="0" type="line" smooth="yes"/>
      <point x="427" y="0"/>
      <point x="526" y="59"/>
      <point x="526" y="182" type="curve" smooth="yes"/>
      <point x="526" y="267"/>
      <point x="475" y="315"/>
      <point x="403" y="330" type="curve"/>
      <point x="403" y="334" type="line"/>
      <point x="459" y="353"/>
      <point x="492" y="409"/>
      <point x="492" y="469" type="curve" smooth="yes"/>
      <point x="492" y="581"/>
      <point x="401" y="622"/>
      <point x="274" y="622" type="curve" smooth="yes"/>
      <point x="82" y="622" type="line"/>
    </contour>
    <contour>
      <point x="176" y="361" type="line"/>
      <point x="176" y="547" type="line"/>
      <point x="265" y="547" type="line" smooth="yes"/>
      <point x="353" y="547"/>
      <point x="399" y="522"/>
      <point x="399" y="456" type="curve" smooth="yes"/>
      <point x="399" y="397"/>
      <point x="358" y="361"/>
      <point x="262" y="361" type="curve" smooth="yes"/>
    </contour>
    <contour>
      <point x="176" y="74" type="line"/>
      <point x="176" y="289" type="line"/>
      <point x="277" y="289" type="line" smooth="yes"/>
      <point x="378" y="289"/>
      <point x="433" y="258"/>
      <point x="433" y="186" type="curve" smooth="yes"/>
      <point x="433" y="109"/>
      <point x="376" y="74"/>
      <point x="277" y="74" type="curve" smooth="yes"/>
    </contour>
  </outline>
</glyph>
<glyph name="C" format="2">
  <advance width="544"/>
  <unicode hex="0043"/>
  <anchor x="315" y="643" name="aboveUC"/>
  <anchor x="327" y="0" name="baseLC"/>
  <outline>
    <contour>
      <point x="323" y="-11" type="curve" smooth="yes"/>
      <point x="404" y="-11"/>
      <point x="467" y="20"/>
      <point x="517" y="78" type="curve"/>
      <point x="465" y="138" type="line"/>
      <point x="428" y="97"/>
      <point x="384" y="71"/>
      <point x="327" y="71" type="curve" smooth="yes"/>
      <point x="216" y="71"/>
      <point x="145" y="163"/>
      <point x="145" y="312" type="curve" smooth="yes"/>
      <point x="145" y="460"/>
      <point x="220" y="551"/>
      <point x="330" y="551" type="curve" smooth="yes"/>
      <point x="380" y="551"/>
      <point x="420" y="528"/>
      <point x="452" y="494" type="curve"/>
      <point x="503" y="556" type="line"/>
      <point x="465" y="596"/>
      <point x="405" y="633"/>
      <point x="328" y="633" type="curve" smooth="yes"/>
      <point x="170" y="633"/>
      <point x="47" y="512"/>
      <point x="47" y="309" type="curve" smooth="yes"/>
      <point x="47" y="105"/>
      <point x="167" y="-11"/>
    </contour>
  </outline>
</glyph>
<glyph name="D" format="2">
  <advance width="589"/>
  <unicode hex="0044"/>
  <anchor x="295" y="643" name="aboveUC"/>
  <outline>
    <contour>
      <point x="82" y="0" type="line"/>
      <point x="247" y="0" type="line" smooth="yes"/>
      <point x="433" y="0"/>
      <point x="541" y="111"/>
      <point x="541" y="313" type="curve" smooth="yes"/>
      <point x="541" y="515"/>
      <point x="433" y="622"/>
      <point x="242" y="622" type="curve" smooth="yes"/>
      <point x="82" y="622" type="line"/>
    </contour>
    <contour>
      <point x="176" y="77" type="line"/>
      <point x="176" y="545" type="line"/>
      <point x="236" y="545" type="line" smooth="yes"/>
      <point x="371" y="545"/>
      <point x="444" y="468"/>
      <point x="444" y="313" type="curve" smooth="yes"/>
      <point x="444" y="158"/>
      <point x="371" y="77"/>
      <point x="236" y="77" type="curve" smooth="yes"/>
    </contour>
  </outline>
</glyph>
<glyph name="E" format="2">
  <advance width="512"/>
  <unicode hex="0045"/>
  <anchor x="276" y="654" name="aboveUC"/>
  <outline>
    <contour>
      <point x="84" y="0" type="line"/>
      <point x="465" y="0" type="line"/>
      <point x="465" y="77" type="line"/>
      <point x="176" y="77" type="line"/>
      <point x="176" y="292" type="line"/>
      <point x="412" y="292" type="line"/>
      <point x="412" y="370" type="line"/>
      <point x="176" y="370" type="line"/>
      <point x="176" y="556" type="line"/>
      <point x="455" y="556" type="line"/>
      <point x="455" y="633" type="line"/>
      <point x="84" y="633" type="line"/>
    </contour>
  </outline>
</glyph>
<glyph name="F" format="2">
  <advance width="483"/>
  <unicode hex="0046"/>
  <anchor x="277" y="654" name="aboveUC"/>
  <outline>
    <contour>
      <point x="84" y="0" type="line"/>
      <point x="176" y="0" type="line"/>
      <point x="176" y="276" type="line"/>
      <point x="413" y="276" type="line"/>
      <point x="413" y="354" type="line"/>
      <point x="176" y="354" type="line"/>
      <point x="176" y="556" type="line"/>
      <point x="456" y="556" type="line"/>
      <point x="456" y="633" type="line"/>
      <point x="84" y="633" type="line"/>
    </contour>
  </outline>
</glyph>
<glyph name="G" format="2">
  <advance width="591"/>
  <unicode hex="0047"/>
  <anchor x="338" y="643" name="aboveUC"/>
  <outline>
    <contour>
      <point x="334" y="-11" type="curve" smooth="yes"/>
      <point x="419" y="-11"/>
      <point x="489" y="19"/>
      <point x="530" y="61" type="curve"/>
      <point x="530" y="329" type="line"/>
      <point x="319" y="329" type="line"/>
      <point x="319" y="251" type="line"/>
      <point x="444" y="251" type="line"/>
      <point x="444" y="103" type="line"/>
      <point x="422" y="82"/>
      <point x="383" y="71"/>
      <point x="344" y="71" type="curve" smooth="yes"/>
      <point x="215" y="71"/>
      <point x="145" y="163"/>
      <point x="145" y="312" type="curve" smooth="yes"/>
      <point x="145" y="460"/>
      <point x="222" y="551"/>
      <point x="340" y="551" type="curve" smooth="yes"/>
      <point x="400" y="551"/>
      <point x="439" y="526"/>
      <point x="470" y="494" type="curve"/>
      <point x="521" y="556" type="line"/>
      <point x="483" y="594"/>
      <point x="425" y="633"/>
      <point x="337" y="633" type="curve" smooth="yes"/>
      <point x="172" y="633"/>
      <point x="47" y="512"/>
      <point x="47" y="309" type="curve" smooth="yes"/>
      <point x="47" y="105"/>
      <point x="168" y="-11"/>
    </contour>
  </outline>
</glyph>
<glyph name="H" format="2">
  <advance width="633"/>
  <unicode hex="0048"/>
  <anchor x="315" y="654" name="aboveUC"/>
  <outline>
    <contour>
      <point x="84" y="0" type="line"/>
      <point x="176" y="0" type="line"/>
      <point x="176" y="292" type="line"/>
      <point x="457" y="292" type="line"/>
      <point x="457" y="0" type="line"/>
      <point x="549" y="0" type="line"/>
      <point x="549" y="633" type="line"/>
      <point x="457" y="633" type="line"/>
      <point x="457" y="372" type="line"/>
      <point x="176" y="372" type="line"/>
      <point x="176" y="633" type="line"/>
      <point x="84" y="633" type="line"/>
    </contour>
  </outline>
</glyph>
<glyph name="I" format="2">
  <advance width="259"/>
  <unicode hex="0049"/>
  <anchor x="129" y="643" name="aboveUC"/>
  <outline>
    <contour>
      <point x="82" y="0" type="line"/>
      <point x="176" y="0" type="line"/>
      <point x="176" y="622" type="line"/>
      <point x="82" y="622" type="line"/>
    </contour>
  </outline>
</glyph>
<glyph name="J" format="2">
  <advance width="468"/>
  <unicode hex="004A"/>
  <anchor x="338" y="654" name="aboveUC"/>
  <outline>
    <contour>
      <point x="207" y="-11" type="curve" smooth="yes"/>
      <point x="334" y="-11"/>
      <point x="386" y="78"/>
      <point x="386" y="190" type="curve" smooth="yes"/>
      <point x="386" y="633" type="line"/>
      <point x="295" y="633" type="line"/>
      <point x="295" y="198" type="line" smooth="yes"/>
      <point x="295" y="104"/>
      <point x="262" y="68"/>
      <point x="197" y="68" type="curve" smooth="yes"/>
      <point x="154" y="68"/>
      <point x="119" y="89"/>
      <point x="91" y="138" type="curve"/>
      <point x="27" y="91" type="line"/>
      <point x="65" y="23"/>
      <point x="123" y="-11"/>
    </contour>
  </outline>
</glyph>
<glyph name="K" format="2">
  <advance width="565"/>
  <unicode hex="004B"/>
  <anchor x="301" y="654" name="aboveUC"/>
  <outline>
    <contour>
      <point x="84" y="0" type="line"/>
      <point x="176" y="0" type="line"/>
      <point x="176" y="194" type="line"/>
      <point x="278" y="318" type="line"/>
      <point x="461" y="0" type="line"/>
      <point x="563" y="0" type="line"/>
      <point x="334" y="390" type="line"/>
      <point x="532" y="633" type="line"/>
      <point x="429" y="633" type="line"/>
      <point x="179" y="326" type="line"/>
      <point x="176" y="326" type="line"/>
      <point x="176" y="633" type="line"/>
      <point x="84" y="633" type="line"/>
    </contour>
  </outline>
</glyph>
<glyph name="L" format="2">
  <advance width="469"/>
  <unicode hex="004C"/>
  <anchor x="131" y="643" name="aboveUC"/>
  <outline>
    <contour>
      <point x="82" y="0" type="line"/>
      <point x="441" y="0" type="line"/>
      <point x="441" y="79" type="line"/>
      <point x="176" y="79" type="line"/>
      <point x="176" y="622" type="line"/>
      <point x="82" y="622" type="line"/>
    </contour>
  </outline>
</glyph>
<glyph name="M" format="2">
  <advance width="698"/>
  <unicode hex="004D"/>
  <anchor x="348" y="643" name="aboveUC"/>
  <outline>
    <contour>
      <point x="82" y="0" type="line"/>
      <point x="167" y="0" type="line"/>
      <point x="167" y="313" type="line" smooth="yes"/>
      <point x="167" y="369"/>
      <point x="160" y="448"/>
      <point x="155" y="504" type="curve"/>
      <point x="159" y="504" type="line"/>
      <point x="208" y="361" type="line"/>
      <point x="319" y="60" type="line"/>
      <point x="378" y="60" type="line"/>
      <point x="487" y="361" type="line"/>
      <point x="537" y="504" type="line"/>
      <point x="541" y="504" type="line"/>
      <point x="536" y="448"/>
      <point x="529" y="369"/>
      <point x="529" y="313" type="curve" smooth="yes"/>
      <point x="529" y="0" type="line"/>
      <point x="616" y="0" type="line"/>
      <point x="616" y="622" type="line"/>
      <point x="506" y="622" type="line"/>
      <point x="393" y="304" type="line"/>
      <point x="379" y="262"/>
      <point x="367" y="220"/>
      <point x="352" y="178" type="curve"/>
      <point x="348" y="178" type="line"/>
      <point x="334" y="220"/>
      <point x="321" y="262"/>
      <point x="306" y="304" type="curve"/>
      <point x="192" y="622" type="line"/>
      <point x="82" y="622" type="line"/>
    </contour>
  </outline>
</glyph>
<glyph name="N" format="2">
  <advance width="628"/>
  <unicode hex="004E"/>
  <anchor x="317" y="654" name="aboveUC"/>
  <outline>
    <contour>
      <point x="84" y="0" type="line"/>
      <point x="171" y="0" type="line"/>
      <point x="171" y="312" type="line" smooth="yes"/>
      <point x="171" y="380"/>
      <point x="164" y="451"/>
      <point x="160" y="516" type="curve"/>
      <point x="163" y="516" type="line"/>
      <point x="231" y="384" type="line"/>
      <point x="449" y="0" type="line"/>
      <point x="543" y="0" type="line"/>
      <point x="543" y="633" type="line"/>
      <point x="456" y="633" type="line"/>
      <point x="456" y="324" type="line" smooth="yes"/>
      <point x="456" y="256"/>
      <point x="463" y="181"/>
      <point x="468" y="117" type="curve"/>
      <point x="464" y="117" type="line"/>
      <point x="397" y="250" type="line"/>
      <point x="179" y="633" type="line"/>
      <point x="84" y="633" type="line"/>
    </contour>
  </outline>
</glyph>
<glyph name="O" format="2">
  <advance width="645"/>
  <unicode hex="004F"/>
  <anchor x="322" y="654" name="aboveUC"/>
  <outline>
    <contour>
      <point x="322" y="-11" type="curve" smooth="yes"/>
      <point x="483" y="-11"/>
      <point x="596" y="115"/>
      <point x="596" y="319" type="curve" smooth="yes"/>
      <point x="596" y="522"/>
      <point x="483" y="645"/>
      <point x="322" y="645" type="curve" smooth="yes"/>
      <point x="161" y="645"/>
      <point x="48" y="522"/>
      <point x="48" y="319" type="curve" smooth="yes"/>
      <point x="48" y="115"/>
      <point x="161" y="-11"/>
    </contour>
    <contour>
      <point x="322" y="68" type="curve" smooth="yes"/>
      <point x="214" y="68"/>
      <point x="143" y="166"/>
      <point x="143" y="319" type="curve" smooth="yes"/>
      <point x="143" y="471"/>
      <point x="214" y="565"/>
      <point x="322" y="565" type="curve" smooth="yes"/>
      <point x="431" y="565"/>
      <point x="502" y="471"/>
      <point x="502" y="319" type="curve" smooth="yes"/>
      <point x="502" y="166"/>
      <point x="431" y="68"/>
    </contour>
  </outline>
</glyph>
<glyph name="P" format="2">
  <advance width="545"/>
  <unicode hex="0050"/>
  <anchor x="290" y="643" name="aboveUC"/>
  <outline>
    <contour>
      <point x="82" y="0" type="line"/>
      <point x="176" y="0" type="line"/>
      <point x="176" y="237" type="line"/>
      <point x="272" y="237" type="line" smooth="yes"/>
      <point x="407" y="237"/>
      <point x="506" y="299"/>
      <point x="506" y="434" type="curve" smooth="yes"/>
      <point x="506" y="574"/>
      <point x="407" y="622"/>
      <point x="269" y="622" type="curve" smooth="yes"/>
      <point x="82" y="622" type="line"/>
    </contour>
    <contour>
      <point x="176" y="314" type="line"/>
      <point x="176" y="546" type="line"/>
      <point x="259" y="546" type="line" smooth="yes"/>
      <point x="360" y="546"/>
      <point x="412" y="518"/>
      <point x="412" y="434" type="curve" smooth="yes"/>
      <point x="412" y="352"/>
      <point x="364" y="314"/>
      <point x="263" y="314" type="curve" smooth="yes"/>
    </contour>
  </outline>
</glyph>
<glyph name="Q" format="2">
  <advance width="635"/>
  <unicode hex="0051"/>
  <anchor x="317" y="643" name="aboveUC"/>
  <outline>
    <contour>
      <point x="317" y="-11" type="curve" smooth="yes"/>
      <point x="477" y="-11"/>
      <point x="588" y="113"/>
      <point x="588" y="313" type="curve" smooth="yes"/>
      <point x="588" y="513"/>
      <point x="477" y="633"/>
      <point x="317" y="633" type="curve" smooth="yes"/>
      <point x="158" y="633"/>
      <point x="47" y="513"/>
      <point x="47" y="313" type="curve" smooth="yes"/>
      <point x="47" y="113"/>
      <point x="158" y="-11"/>
    </contour>
    <contour>
      <point x="317" y="66" type="curve" smooth="yes"/>
      <point x="213" y="66"/>
      <point x="145" y="161"/>
      <point x="145" y="313" type="curve" smooth="yes"/>
      <point x="145" y="460"/>
      <point x="213" y="551"/>
      <point x="317" y="551" type="curve" smooth="yes"/>
      <point x="422" y="551"/>
      <point x="490" y="460"/>
      <point x="490" y="313" type="curve" smooth="yes"/>
      <point x="490" y="161"/>
      <point x="422" y="66"/>
    </contour>
    <contour>
      <point x="512" y="-160" type="curve" smooth="yes"/>
      <point x="552" y="-160"/>
      <point x="586" y="-153"/>
      <point x="606" y="-145" type="curve"/>
      <point x="588" y="-73" type="line"/>
      <point x="571" y="-78"/>
      <point x="549" y="-82"/>
      <point x="522" y="-82" type="curve" smooth="yes"/>
      <point x="452" y="-82"/>
      <point x="390" y="-52"/>
      <point x="366" y="11" type="curve"/>
      <point x="268" y="2" type="line"/>
      <point x="304" y="-90"/>
      <point x="388" y="-160"/>
    </contour>
  </outline>
</glyph>
<glyph name="R" format="2">
  <advance width="551"/>
  <unicode hex="0052"/>
  <anchor x="283" y="643" name="aboveUC"/>
  <outline>
    <contour>
      <point x="82" y="0" type="line"/>
      <point x="176" y="0" type="line"/>
      <point x="176" y="253" type="line"/>
      <point x="284" y="253" type="line" smooth="yes"/>
      <point x="412" y="253"/>
      <point x="507" y="313"/>
      <point x="507" y="442" type="curve" smooth="yes"/>
      <point x="507" y="576"/>
      <point x="412" y="622"/>
      <point x="284" y="622" type="curve" smooth="yes"/>
      <point x="82" y="622" type="line"/>
    </contour>
    <contour>
      <point x="176" y="329" type="line"/>
      <point x="176" y="546" type="line"/>
      <point x="273" y="546" type="line" smooth="yes"/>
      <point x="364" y="546"/>
      <point x="414" y="519"/>
      <point x="414" y="442" type="curve" smooth="yes"/>
      <point x="414" y="366"/>
      <point x="364" y="329"/>
      <point x="273" y="329" type="curve" smooth="yes"/>
    </contour>
    <contour>
      <point x="422" y="0" type="line"/>
      <point x="529" y="0" type="line"/>
      <point x="337" y="332" type="line"/>
      <point x="266" y="278" type="line"/>
    </contour>
  </outline>
</glyph>
<glyph name="S" format="2">
  <advance width="519"/>
  <unicode hex="0053"/>
  <anchor x="271" y="654" name="aboveUC"/>
  <anchor x="265" y="0" name="baseLC"/>
  <outline>
    <contour>
      <point x="263" y="-11" type="curve" smooth="yes"/>
      <point x="399" y="-11"/>
      <point x="483" y="70"/>
      <point x="483" y="171" type="curve" smooth="yes"/>
      <point x="483" y="264"/>
      <point x="427" y="309"/>
      <point x="353" y="341" type="curve" smooth="yes"/>
      <point x="265" y="379" type="line" smooth="yes"/>
      <point x="214" y="400"/>
      <point x="161" y="421"/>
      <point x="161" y="478" type="curve" smooth="yes"/>
      <point x="161" y="531"/>
      <point x="205" y="565"/>
      <point x="273" y="565" type="curve" smooth="yes"/>
      <point x="330" y="565"/>
      <point x="375" y="543"/>
      <point x="414" y="507" type="curve"/>
      <point x="462" y="565" type="line"/>
      <point x="416" y="613"/>
      <point x="347" y="645"/>
      <point x="273" y="645" type="curve" smooth="yes"/>
      <point x="155" y="645"/>
      <point x="69" y="571"/>
      <point x="69" y="473" type="curve" smooth="yes"/>
      <point x="69" y="380"/>
      <point x="137" y="334"/>
      <point x="197" y="308" type="curve" smooth="yes"/>
      <point x="286" y="269" type="line" smooth="yes"/>
      <point x="345" y="243"/>
      <point x="389" y="224"/>
      <point x="389" y="164" type="curve" smooth="yes"/>
      <point x="389" y="106"/>
      <point x="344" y="68"/>
      <point x="265" y="68" type="curve" smooth="yes"/>
      <point x="201" y="68"/>
      <point x="139" y="99"/>
      <point x="93" y="144" type="curve"/>
      <point x="39" y="82" type="line"/>
      <point x="96" y="23"/>
      <point x="175" y="-11"/>
    </contour>
  </outline>
</glyph>
<glyph name="T" format="2">
  <advance width="521"/>
  <unicode hex="0054"/>
  <anchor x="259" y="654" name="aboveUC"/>
  <anchor x="260" y="0" name="baseLC"/>
  <outline>
    <contour>
      <point x="215" y="0" type="line"/>
      <point x="306" y="0" type="line"/>
      <point x="306" y="556" type="line"/>
      <point x="495" y="556" type="line"/>
      <point x="495" y="633" type="line"/>
      <point x="26" y="633" type="line"/>
      <point x="26" y="556" type="line"/>
      <point x="215" y="556" type="line"/>
    </contour>
  </outline>
</glyph>
<glyph name="U" format="2">
  <advance width="617"/>
  <unicode hex="0055"/>
  <anchor x="308" y="643" name="aboveUC"/>
  <outline>
    <contour>
      <point x="309" y="-11" type="curve" smooth="yes"/>
      <point x="444" y="-11"/>
      <point x="538" y="62"/>
      <point x="538" y="264" type="curve" smooth="yes"/>
      <point x="538" y="622" type="line"/>
      <point x="447" y="622" type="line"/>
      <point x="447" y="259" type="line" smooth="yes"/>
      <point x="447" y="117"/>
      <point x="388" y="71"/>
      <point x="309" y="71" type="curve" smooth="yes"/>
      <point x="231" y="71"/>
      <point x="174" y="117"/>
      <point x="174" y="259" type="curve" smooth="yes"/>
      <point x="174" y="622" type="line"/>
      <point x="79" y="622" type="line"/>
      <point x="79" y="264" type="line" smooth="yes"/>
      <point x="79" y="62"/>
      <point x="173" y="-11"/>
    </contour>
  </outline>
</glyph>
<glyph name="V" format="2">
  <advance width="505"/>
  <unicode hex="0056"/>
  <anchor x="251" y="654" name="aboveUC"/>
  <outline>
    <contour>
      <point x="199" y="0" type="line"/>
      <point x="306" y="0" type="line"/>
      <point x="506" y="633" type="line"/>
      <point x="412" y="633" type="line"/>
      <point x="315" y="299" type="line" smooth="yes"/>
      <point x="294" y="225"/>
      <point x="279" y="164"/>
      <point x="256" y="91" type="curve"/>
      <point x="252" y="91" type="line"/>
      <point x="230" y="164"/>
      <point x="215" y="225"/>
      <point x="193" y="299" type="curve" smooth="yes"/>
      <point x="95" y="633" type="line"/>
      <point x="-1" y="633" type="line"/>
    </contour>
  </outline>
</glyph>
<glyph name="W" format="2">
  <advance width="764"/>
  <unicode hex="0057"/>
  <anchor x="382" y="654" name="aboveUC"/>
  <outline>
    <contour>
      <point x="151" y="0" type="line"/>
      <point x="261" y="0" type="line"/>
      <point x="349" y="364" type="line"/>
      <point x="360" y="413"/>
      <point x="370" y="460"/>
      <point x="380" y="509" type="curve"/>
      <point x="384" y="509" type="line"/>
      <point x="393" y="460"/>
      <point x="403" y="413"/>
      <point x="413" y="364" type="curve"/>
      <point x="503" y="0" type="line"/>
      <point x="615" y="0" type="line"/>
      <point x="743" y="633" type="line"/>
      <point x="654" y="633" type="line"/>
      <point x="592" y="297" type="line"/>
      <point x="580" y="230"/>
      <point x="570" y="162"/>
      <point x="558" y="93" type="curve"/>
      <point x="554" y="93" type="line"/>
      <point x="539" y="162"/>
      <point x="524" y="230"/>
      <point x="510" y="297" type="curve"/>
      <point x="425" y="633" type="line"/>
      <point x="344" y="633" type="line"/>
      <point x="259" y="297" type="line"/>
      <point x="244" y="229"/>
      <point x="230" y="161"/>
      <point x="216" y="93" type="curve"/>
      <point x="212" y="93" type="line"/>
      <point x="200" y="161"/>
      <point x="188" y="229"/>
      <point x="177" y="297" type="curve"/>
      <point x="114" y="633" type="line"/>
      <point x="20" y="633" type="line"/>
    </contour>
  </outline>
</glyph>
<glyph name="X" format="2">
  <advance width="500"/>
  <unicode hex="0058"/>
  <anchor x="250" y="643" name="aboveUC"/>
  <outline>
    <contour>
      <point x="13" y="0" type="line"/>
      <point x="113" y="0" type="line"/>
      <point x="195" y="157" type="line" smooth="yes"/>
      <point x="210" y="188"/>
      <point x="226" y="219"/>
      <point x="243" y="257" type="curve"/>
      <point x="247" y="257" type="line"/>
      <point x="266" y="219"/>
      <point x="282" y="188"/>
      <point x="298" y="157" type="curve" smooth="yes"/>
      <point x="382" y="0" type="line"/>
      <point x="487" y="0" type="line"/>
      <point x="308" y="316" type="line"/>
      <point x="475" y="622" type="line"/>
      <point x="375" y="622" type="line"/>
      <point x="301" y="473" type="line" smooth="yes"/>
      <point x="286" y="445"/>
      <point x="274" y="417"/>
      <point x="258" y="380" type="curve"/>
      <point x="254" y="380" type="line"/>
      <point x="235" y="417"/>
      <point x="222" y="445"/>
      <point x="206" y="473" type="curve" smooth="yes"/>
      <point x="129" y="622" type="line"/>
      <point x="24" y="622" type="line"/>
      <point x="192" y="321" type="line"/>
    </contour>
  </outline>
</glyph>
<glyph name="Y" format="2">
  <advance width="468"/>
  <unicode hex="0059"/>
  <anchor x="234" y="654" name="aboveUC"/>
  <outline>
    <contour>
      <point x="188" y="0" type="line"/>
      <point x="280" y="0" type="line"/>
      <point x="280" y="242" type="line"/>
      <point x="470" y="633" type="line"/>
      <point x="375" y="633" type="line"/>
      <point x="298" y="460" type="line"/>
      <point x="279" y="413"/>
      <point x="257" y="369"/>
      <point x="236" y="322" type="curve"/>
      <point x="232" y="322" type="line"/>
      <point x="211" y="369"/>
      <point x="192" y="413"/>
      <point x="173" y="460" type="curve"/>
      <point x="95" y="633" type="line"/>
      <point x="-2" y="633" type="line"/>
      <point x="188" y="242" type="line"/>
    </contour>
  </outline>
</glyph>
<glyph name="Z" format="2">
  <advance width="512"/>
  <unicode hex="005A"/>
  <anchor x="266" y="643" name="aboveUC"/>
  <outline>
    <contour>
      <point x="40" y="0" type="line"/>
      <point x="474" y="0" type="line"/>
      <point x="474" y="79" type="line"/>
      <point x="157" y="79" type="line"/>
      <point x="471" y="565" type="line"/>
      <point x="471" y="622" type="line"/>
      <point x="68" y="622" type="line"/>
      <point x="68" y="542" type="line"/>
      <point x="354" y="542" type="line"/>
      <point x="40" y="56" type="line"/>
    </contour>
  </outline>
</glyph>
<glyph name="bracketleft" format="2">
  <advance width="388"/>
  <unicode hex="005B"/>
  <outline>
    <contour>
      <point x="297" y="3" type="line"/>
      <point x="151" y="3" type="line"/>
      <point x="151" y="691" type="line"/>
      <point x="297" y="691" type="line"/>
      <point x="297" y="737" type="line"/>
      <point x="85" y="737" type="line"/>
      <point x="85" y="-43" type="line"/>
      <point x="297" y="-43" type="line"/>
    </contour>
  </outline>
</glyph>
<glyph name="asciicircum" format="2">
  <advance width="531"/>
  <unicode hex="005E"/>
  <outline>
    <contour>
      <point x="502" y="553" type="line"/>
      <point x="300" y="885" type="line"/>
      <point x="275" y="885" type="line"/>
      <point x="71" y="553" type="line"/>
      <point x="159" y="553" type="line"/>
      <point x="305" y="790" type="line"/>
      <point x="270" y="790" type="line"/>
      <point x="414" y="553" type="line"/>
    </contour>
  </outline>
</glyph>
<glyph name="a" format="2">
  <advance width="484"/>
  <unicode hex="0061"/>
  <anchor x="258" y="486" name="aboveLC"/>
  <outline>
    <contour>
      <point x="183" y="-11" type="curve" smooth="yes"/>
      <point x="239" y="-11"/>
      <point x="289" y="17"/>
      <point x="332" y="53" type="curve"/>
      <point x="335" y="53" type="line"/>
      <point x="342" y="0" type="line"/>
      <point x="419" y="0" type="line"/>
      <point x="419" y="279" type="line" smooth="yes"/>
      <point x="419" y="402"/>
      <point x="367" y="475"/>
      <point x="252" y="475" type="curve" smooth="yes"/>
      <point x="178" y="475"/>
      <point x="112" y="444"/>
      <point x="66" y="414" type="curve"/>
      <point x="101" y="351" type="line"/>
      <point x="140" y="376"/>
      <point x="185" y="399"/>
      <point x="235" y="399" type="curve" smooth="yes"/>
      <point x="305" y="399"/>
      <point x="325" y="349"/>
      <point x="325" y="295" type="curve"/>
      <point x="131" y="274"/>
      <point x="46" y="222"/>
      <point x="46" y="122" type="curve" smooth="yes"/>
      <point x="46" y="40"/>
      <point x="104" y="-11"/>
    </contour>
    <contour>
      <point x="212" y="63" type="curve" smooth="yes"/>
      <point x="169" y="63"/>
      <point x="137" y="82"/>
      <point x="137" y="129" type="curve" smooth="yes"/>
      <point x="137" y="182"/>
      <point x="185" y="218"/>
      <point x="325" y="235" type="curve"/>
      <point x="325" y="118" type="line"/>
      <point x="286" y="83"/>
      <point x="253" y="63"/>
    </contour>
  </outline>
</glyph>
<glyph name="b" format="2">
  <advance width="538"/>
  <unicode hex="0062"/>
  <anchor x="124" y="705" name="aboveLC"/>
  <outline>
    <contour>
      <point x="291" y="-11" type="curve" smooth="yes"/>
      <point x="398" y="-11"/>
      <point x="495" y="82"/>
      <point x="495" y="243" type="curve" smooth="yes"/>
      <point x="495" y="388"/>
      <point x="428" y="483"/>
      <point x="308" y="483" type="curve" smooth="yes"/>
      <point x="257" y="483"/>
      <point x="205" y="456"/>
      <point x="164" y="419" type="curve"/>
      <point x="166" y="502" type="line"/>
      <point x="166" y="686" type="line"/>
      <point x="76" y="686" type="line"/>
      <point x="76" y="0" type="line"/>
      <point x="148" y="0" type="line"/>
      <point x="156" y="49" type="line"/>
      <point x="159" y="49" type="line"/>
      <point x="200" y="10"/>
      <point x="248" y="-11"/>
    </contour>
    <contour>
      <point x="274" y="64" type="curve" smooth="yes"/>
      <point x="244" y="64"/>
      <point x="205" y="76"/>
      <point x="166" y="109" type="curve"/>
      <point x="166" y="347" type="line"/>
      <point x="208" y="387"/>
      <point x="246" y="407"/>
      <point x="284" y="407" type="curve" smooth="yes"/>
      <point x="367" y="407"/>
      <point x="401" y="342"/>
      <point x="401" y="242" type="curve" smooth="yes"/>
      <point x="401" y="129"/>
      <point x="347" y="64"/>
    </contour>
  </outline>
</glyph>
<glyph name="c" format="2">
  <advance width="442"/>
  <unicode hex="0063"/>
  <anchor x="264" y="493" name="aboveLC"/>
  <anchor x="261" y="0" name="baseLC"/>
  <outline>
    <contour>
      <point x="266" y="-11" type="curve" smooth="yes"/>
      <point x="321" y="-11"/>
      <point x="376" y="9"/>
      <point x="419" y="47" type="curve"/>
      <point x="380" y="108" type="line"/>
      <point x="352" y="83"/>
      <point x="315" y="63"/>
      <point x="274" y="63" type="curve" smooth="yes"/>
      <point x="192" y="63"/>
      <point x="136" y="131"/>
      <point x="136" y="235" type="curve" smooth="yes"/>
      <point x="136" y="338"/>
      <point x="195" y="408"/>
      <point x="277" y="408" type="curve" smooth="yes"/>
      <point x="311" y="408"/>
      <point x="338" y="393"/>
      <point x="365" y="369" type="curve"/>
      <point x="410" y="428" type="line"/>
      <point x="377" y="458"/>
      <point x="334" y="483"/>
      <point x="272" y="483" type="curve" smooth="yes"/>
      <point x="150" y="483"/>
      <point x="42" y="392"/>
      <point x="42" y="235" type="curve" smooth="yes"/>
      <point x="42" y="79"/>
      <point x="139" y="-11"/>
    </contour>
  </outline>
</glyph>
<glyph name="d" format="2">
  <advance width="539"/>
  <unicode hex="0064"/>
  <anchor x="382" y="705" name="aboveLC"/>
  <outline>
    <contour>
      <point x="238" y="-11" type="curve" smooth="yes"/>
      <point x="292" y="-11"/>
      <point x="342" y="17"/>
      <point x="378" y="54" type="curve"/>
      <point x="381" y="54" type="line"/>
      <point x="388" y="0" type="line"/>
      <point x="463" y="0" type="line"/>
      <point x="463" y="686" type="line"/>
      <point x="372" y="686" type="line"/>
      <point x="372" y="508" type="line"/>
      <point x="376" y="429" type="line"/>
      <point x="336" y="462"/>
      <point x="301" y="483"/>
      <point x="246" y="483" type="curve" smooth="yes"/>
      <point x="140" y="483"/>
      <point x="44" y="388"/>
      <point x="44" y="235" type="curve" smooth="yes"/>
      <point x="44" y="78"/>
      <point x="120" y="-11"/>
    </contour>
    <contour>
      <point x="259" y="64" type="curve" smooth="yes"/>
      <point x="181" y="64"/>
      <point x="137" y="126"/>
      <point x="137" y="236" type="curve" smooth="yes"/>
      <point x="137" y="340"/>
      <point x="194" y="407"/>
      <point x="264" y="407" type="curve" smooth="yes"/>
      <point x="300" y="407"/>
      <point x="334" y="395"/>
      <point x="372" y="361" type="curve"/>
      <point x="372" y="124" type="line"/>
      <point x="335" y="83"/>
      <point x="300" y="64"/>
    </contour>
  </outline>
</glyph>
<glyph name="e" format="2">
  <advance width="476"/>
  <unicode hex="0065"/>
  <anchor x="252" y="486" name="aboveLC"/>
  <outline>
    <contour>
      <point x="266" y="-11" type="curve" smooth="yes"/>
      <point x="327" y="-11"/>
      <point x="380" y="9"/>
      <point x="422" y="37" type="curve"/>
      <point x="390" y="97" type="line"/>
      <point x="356" y="75"/>
      <point x="320" y="62"/>
      <point x="278" y="62" type="curve" smooth="yes"/>
      <point x="197" y="62"/>
      <point x="140" y="117"/>
      <point x="133" y="207" type="curve"/>
      <point x="436" y="207" type="line"/>
      <point x="439" y="219"/>
      <point x="440" y="237"/>
      <point x="440" y="256" type="curve" smooth="yes"/>
      <point x="440" y="387"/>
      <point x="374" y="475"/>
      <point x="252" y="475" type="curve" smooth="yes"/>
      <point x="144" y="475"/>
      <point x="41" y="382"/>
      <point x="41" y="231" type="curve" smooth="yes"/>
      <point x="41" y="78"/>
      <point x="140" y="-11"/>
    </contour>
    <contour>
      <point x="132" y="272" type="line"/>
      <point x="141" y="355"/>
      <point x="194" y="402"/>
      <point x="254" y="402" type="curve" smooth="yes"/>
      <point x="322" y="402"/>
      <point x="359" y="355"/>
      <point x="359" y="272" type="curve"/>
    </contour>
  </outline>
</glyph>
<glyph name="f" format="2">
  <advance width="290"/>
  <unicode hex="0066"/>
  <anchor x="212" y="715" name="aboveLC"/>
  <outline>
    <contour>
      <point x="91" y="0" type="line"/>
      <point x="182" y="0" type="line"/>
      <point x="182" y="537" type="line" smooth="yes"/>
      <point x="182" y="596"/>
      <point x="203" y="625"/>
      <point x="246" y="625" type="curve" smooth="yes"/>
      <point x="262" y="625"/>
      <point x="281" y="621"/>
      <point x="298" y="613" type="curve"/>
      <point x="317" y="681" type="line"/>
      <point x="295" y="690"/>
      <point x="266" y="698"/>
      <point x="236" y="698" type="curve" smooth="yes"/>
      <point x="135" y="698"/>
      <point x="91" y="633"/>
      <point x="91" y="537" type="curve" smooth="yes"/>
    </contour>
    <contour>
      <point x="27" y="398" type="line"/>
      <point x="279" y="398" type="line"/>
      <point x="279" y="471" type="line"/>
      <point x="95" y="471" type="line"/>
      <point x="27" y="466" type="line"/>
    </contour>
  </outline>
</glyph>
<glyph name="g" format="2">
  <advance width="486"/>
  <unicode hex="0067"/>
  <anchor x="248" y="486" name="aboveLC"/>
  <outline>
    <contour>
      <point x="232" y="-209" type="curve" smooth="yes"/>
      <point x="380" y="-209"/>
      <point x="474" y="-136"/>
      <point x="474" y="-47" type="curve" smooth="yes"/>
      <point x="474" y="31"/>
      <point x="417" y="65"/>
      <point x="308" y="65" type="curve" smooth="yes"/>
      <point x="221" y="65" type="line" smooth="yes"/>
      <point x="162" y="65"/>
      <point x="143" y="83"/>
      <point x="143" y="111" type="curve" smooth="yes"/>
      <point x="143" y="134"/>
      <point x="154" y="148"/>
      <point x="169" y="161" type="curve"/>
      <point x="190" y="152"/>
      <point x="214" y="147"/>
      <point x="235" y="147" type="curve" smooth="yes"/>
      <point x="331" y="147"/>
      <point x="408" y="205"/>
      <point x="408" y="306" type="curve" smooth="yes"/>
      <point x="408" y="342"/>
      <point x="395" y="374"/>
      <point x="376" y="393" type="curve"/>
      <point x="466" y="393" type="line"/>
      <point x="466" y="464" type="line"/>
      <point x="302" y="464" type="line"/>
      <point x="284" y="470"/>
      <point x="260" y="475"/>
      <point x="235" y="475" type="curve" smooth="yes"/>
      <point x="139" y="475"/>
      <point x="56" y="413"/>
      <point x="56" y="309" type="curve" smooth="yes"/>
      <point x="56" y="254"/>
      <point x="85" y="209"/>
      <point x="117" y="186" type="curve"/>
      <point x="117" y="182" type="line"/>
      <point x="91" y="164"/>
      <point x="66" y="133"/>
      <point x="66" y="95" type="curve" smooth="yes"/>
      <point x="66" y="58"/>
      <point x="84" y="34"/>
      <point x="107" y="19" type="curve"/>
      <point x="107" y="15" type="line"/>
      <point x="65" y="-11"/>
      <point x="40" y="-47"/>
      <point x="40" y="-86" type="curve" smooth="yes"/>
      <point x="40" y="-167"/>
      <point x="120" y="-209"/>
    </contour>
    <contour>
      <point x="235" y="207" type="curve" smooth="yes"/>
      <point x="186" y="207"/>
      <point x="145" y="246"/>
      <point x="145" y="309" type="curve" smooth="yes"/>
      <point x="145" y="372"/>
      <point x="185" y="409"/>
      <point x="235" y="409" type="curve" smooth="yes"/>
      <point x="285" y="409"/>
      <point x="324" y="372"/>
      <point x="324" y="309" type="curve" smooth="yes"/>
      <point x="324" y="246"/>
      <point x="284" y="207"/>
    </contour>
    <contour>
      <point x="246" y="-146" type="curve" smooth="yes"/>
      <point x="168" y="-146"/>
      <point x="120" y="-118"/>
      <point x="120" y="-72" type="curve" smooth="yes"/>
      <point x="120" y="-48"/>
      <point x="132" y="-24"/>
      <point x="161" y="-3" type="curve"/>
      <point x="181" y="-8"/>
      <point x="202" y="-10"/>
      <point x="223" y="-10" type="curve" smooth="yes"/>
      <point x="295" y="-10" type="line" smooth="yes"/>
      <point x="352" y="-10"/>
      <point x="382" y="-22"/>
      <point x="382" y="-62" type="curve" smooth="yes"/>
      <point x="382" y="-106"/>
      <point x="328" y="-146"/>
    </contour>
  </outline>
</glyph>
<glyph name="h" format="2">
  <advance width="523"/>
  <unicode hex="0068"/>
  <anchor x="120" y="693" name="aboveLC"/>
  <outline>
    <contour>
      <point x="73" y="0" type="line"/>
      <point x="167" y="0" type="line"/>
      <point x="167" y="330" type="line"/>
      <point x="209" y="372"/>
      <point x="239" y="394"/>
      <point x="283" y="394" type="curve" smooth="yes"/>
      <point x="339" y="394"/>
      <point x="363" y="361"/>
      <point x="363" y="280" type="curve" smooth="yes"/>
      <point x="363" y="0" type="line"/>
      <point x="457" y="0" type="line"/>
      <point x="457" y="292" type="line" smooth="yes"/>
      <point x="457" y="410"/>
      <point x="413" y="475"/>
      <point x="315" y="475" type="curve" smooth="yes"/>
      <point x="251" y="475"/>
      <point x="204" y="441"/>
      <point x="163" y="402" type="curve"/>
      <point x="167" y="494" type="line"/>
      <point x="167" y="673" type="line"/>
      <point x="73" y="673" type="line"/>
    </contour>
  </outline>
</glyph>
<glyph name="i" format="2">
  <advance width="243"/>
  <unicode hex="0069"/>
  <anchor x="121" y="676" name="aboveLC"/>
  <outline>
    <contour>
      <point x="76" y="0" type="line"/>
      <point x="166" y="0" type="line"/>
      <point x="166" y="471" type="line"/>
      <point x="76" y="471" type="line"/>
    </contour>
    <contour>
      <point x="122" y="563" type="curve" smooth="yes"/>
      <point x="156" y="563"/>
      <point x="181" y="586"/>
      <point x="181" y="618" type="curve" smooth="yes"/>
      <point x="181" y="652"/>
      <point x="156" y="674"/>
      <point x="122" y="674" type="curve" smooth="yes"/>
      <point x="88" y="674"/>
      <point x="62" y="652"/>
      <point x="62" y="618" type="curve" smooth="yes"/>
      <point x="62" y="586"/>
      <point x="88" y="563"/>
    </contour>
  </outline>
</glyph>
<glyph name="j" format="2">
  <advance width="244"/>
  <unicode hex="006A"/>
  <anchor x="123" y="676" name="aboveLC"/>
  <outline>
    <contour>
      <point x="31" y="-206" type="curve" smooth="yes"/>
      <point x="131" y="-206"/>
      <point x="167" y="-140"/>
      <point x="167" y="-43" type="curve" smooth="yes"/>
      <point x="167" y="471" type="line"/>
      <point x="77" y="471" type="line"/>
      <point x="77" y="-43" type="line" smooth="yes"/>
      <point x="77" y="-99"/>
      <point x="65" y="-133"/>
      <point x="20" y="-133" type="curve" smooth="yes"/>
      <point x="4" y="-133"/>
      <point x="-10" y="-129"/>
      <point x="-23" y="-125" type="curve"/>
      <point x="-40" y="-193" type="line"/>
      <point x="-23" y="-200"/>
      <point x="0" y="-206"/>
    </contour>
    <contour>
      <point x="123" y="563" type="curve" smooth="yes"/>
      <point x="156" y="563"/>
      <point x="182" y="586"/>
      <point x="182" y="618" type="curve" smooth="yes"/>
      <point x="182" y="652"/>
      <point x="156" y="674"/>
      <point x="123" y="674" type="curve" smooth="yes"/>
      <point x="89" y="674"/>
      <point x="63" y="652"/>
      <point x="63" y="618" type="curve" smooth="yes"/>
      <point x="63" y="586"/>
      <point x="89" y="563"/>
    </contour>
  </outline>
</glyph>
<glyph name="k" format="2">
  <advance width="487"/>
  <unicode hex="006B"/>
  <anchor x="124" y="705" name="aboveLC"/>
  <outline>
    <contour>
      <point x="76" y="0" type="line"/>
      <point x="165" y="0" type="line"/>
      <point x="165" y="122" type="line"/>
      <point x="248" y="218" type="line"/>
      <point x="380" y="0" type="line"/>
      <point x="479" y="0" type="line"/>
      <point x="300" y="281" type="line"/>
      <point x="459" y="471" type="line"/>
      <point x="360" y="471" type="line"/>
      <point x="168" y="234" type="line"/>
      <point x="165" y="234" type="line"/>
      <point x="165" y="686" type="line"/>
      <point x="76" y="686" type="line"/>
    </contour>
  </outline>
</glyph>
<glyph name="l" format="2">
  <advance width="249"/>
  <unicode hex="006C"/>
  <anchor x="119" y="693" name="aboveLC"/>
  <outline>
    <contour>
      <point x="168" y="-11" type="curve" smooth="yes"/>
      <point x="191" y="-11"/>
      <point x="207" y="-7"/>
      <point x="219" y="-3" type="curve"/>
      <point x="207" y="67" type="line"/>
      <point x="198" y="65"/>
      <point x="194" y="65"/>
      <point x="190" y="65" type="curve" smooth="yes"/>
      <point x="178" y="65"/>
      <point x="167" y="75"/>
      <point x="167" y="100" type="curve" smooth="yes"/>
      <point x="167" y="673" type="line"/>
      <point x="73" y="673" type="line"/>
      <point x="73" y="106" type="line" smooth="yes"/>
      <point x="73" y="32"/>
      <point x="100" y="-11"/>
    </contour>
  </outline>
</glyph>
<glyph name="m" format="2">
  <advance width="794"/>
  <unicode hex="006D"/>
  <anchor x="403" y="486" name="aboveLC"/>
  <outline>
    <contour>
      <point x="73" y="0" type="line"/>
      <point x="167" y="0" type="line"/>
      <point x="167" y="330" type="line"/>
      <point x="206" y="373"/>
      <point x="242" y="394"/>
      <point x="274" y="394" type="curve" smooth="yes"/>
      <point x="328" y="394"/>
      <point x="353" y="361"/>
      <point x="353" y="280" type="curve" smooth="yes"/>
      <point x="353" y="0" type="line"/>
      <point x="446" y="0" type="line"/>
      <point x="446" y="330" type="line"/>
      <point x="486" y="373"/>
      <point x="520" y="394"/>
      <point x="553" y="394" type="curve" smooth="yes"/>
      <point x="607" y="394"/>
      <point x="632" y="361"/>
      <point x="632" y="280" type="curve" smooth="yes"/>
      <point x="632" y="0" type="line"/>
      <point x="726" y="0" type="line"/>
      <point x="726" y="292" type="line" smooth="yes"/>
      <point x="726" y="410"/>
      <point x="680" y="475"/>
      <point x="583" y="475" type="curve" smooth="yes"/>
      <point x="526" y="475"/>
      <point x="479" y="439"/>
      <point x="432" y="389" type="curve"/>
      <point x="412" y="443"/>
      <point x="374" y="475"/>
      <point x="304" y="475" type="curve" smooth="yes"/>
      <point x="247" y="475"/>
      <point x="201" y="441"/>
      <point x="161" y="398" type="curve"/>
      <point x="158" y="398" type="line"/>
      <point x="150" y="464" type="line"/>
      <point x="73" y="464" type="line"/>
    </contour>
  </outline>
</glyph>
<glyph name="n" format="2">
  <advance width="525"/>
  <unicode hex="006E"/>
  <anchor x="280" y="486" name="aboveLC"/>
  <outline>
    <contour>
      <point x="73" y="0" type="line"/>
      <point x="167" y="0" type="line"/>
      <point x="167" y="330" type="line"/>
      <point x="209" y="372"/>
      <point x="239" y="394"/>
      <point x="283" y="394" type="curve" smooth="yes"/>
      <point x="339" y="394"/>
      <point x="363" y="361"/>
      <point x="363" y="280" type="curve" smooth="yes"/>
      <point x="363" y="0" type="line"/>
      <point x="457" y="0" type="line"/>
      <point x="457" y="292" type="line" smooth="yes"/>
      <point x="457" y="410"/>
      <point x="413" y="475"/>
      <point x="315" y="475" type="curve" smooth="yes"/>
      <point x="251" y="475"/>
      <point x="204" y="441"/>
      <point x="161" y="399" type="curve"/>
      <point x="158" y="399" type="line"/>
      <point x="150" y="464" type="line"/>
      <point x="73" y="464" type="line"/>
    </contour>
  </outline>
</glyph>
<glyph name="o" format="2">
  <advance width="518"/>
  <unicode hex="006F"/>
  <anchor x="259" y="486" name="aboveLC"/>
  <outline>
    <contour>
      <point x="259" y="-11" type="curve" smooth="yes"/>
      <point x="373" y="-11"/>
      <point x="477" y="77"/>
      <point x="477" y="231" type="curve" smooth="yes"/>
      <point x="477" y="386"/>
      <point x="373" y="475"/>
      <point x="259" y="475" type="curve" smooth="yes"/>
      <point x="144" y="475"/>
      <point x="41" y="386"/>
      <point x="41" y="231" type="curve" smooth="yes"/>
      <point x="41" y="77"/>
      <point x="144" y="-11"/>
    </contour>
    <contour>
      <point x="259" y="65" type="curve" smooth="yes"/>
      <point x="185" y="65"/>
      <point x="137" y="131"/>
      <point x="137" y="231" type="curve" smooth="yes"/>
      <point x="137" y="331"/>
      <point x="185" y="398"/>
      <point x="259" y="398" type="curve" smooth="yes"/>
      <point x="333" y="398"/>
      <point x="380" y="331"/>
      <point x="380" y="231" type="curve" smooth="yes"/>
      <point x="380" y="131"/>
      <point x="333" y="65"/>
    </contour>
  </outline>
</glyph>
<glyph name="p" format="2">
  <advance width="539"/>
  <unicode hex="0070"/>
  <anchor x="284" y="493" name="aboveLC"/>
  <outline>
    <contour>
      <point x="76" y="-194" type="line"/>
      <point x="166" y="-194" type="line"/>
      <point x="166" y="-38" type="line"/>
      <point x="164" y="42" type="line"/>
      <point x="205" y="7"/>
      <point x="249" y="-11"/>
      <point x="291" y="-11" type="curve" smooth="yes"/>
      <point x="398" y="-11"/>
      <point x="495" y="82"/>
      <point x="495" y="243" type="curve" smooth="yes"/>
      <point x="495" y="388"/>
      <point x="428" y="483"/>
      <point x="308" y="483" type="curve" smooth="yes"/>
      <point x="254" y="483"/>
      <point x="202" y="453"/>
      <point x="161" y="418" type="curve"/>
      <point x="158" y="418" type="line"/>
      <point x="150" y="471" type="line"/>
      <point x="76" y="471" type="line"/>
    </contour>
    <contour>
      <point x="274" y="64" type="curve" smooth="yes"/>
      <point x="244" y="64"/>
      <point x="206" y="76"/>
      <point x="166" y="109" type="curve"/>
      <point x="166" y="347" type="line"/>
      <point x="209" y="387"/>
      <point x="246" y="407"/>
      <point x="284" y="407" type="curve" smooth="yes"/>
      <point x="367" y="407"/>
      <point x="401" y="342"/>
      <point x="401" y="242" type="curve" smooth="yes"/>
      <point x="401" y="129"/>
      <point x="347" y="64"/>
    </contour>
  </outline>
</glyph>
<glyph name="q" format="2">
  <advance width="531"/>
  <unicode hex="0071"/>
  <anchor x="267" y="486" name="aboveLC"/>
  <outline>
    <contour>
      <point x="363" y="-189" type="line"/>
      <point x="457" y="-189" type="line"/>
      <point x="457" y="464" type="line"/>
      <point x="383" y="464" type="line"/>
      <point x="374" y="419" type="line"/>
      <point x="372" y="419" type="line"/>
      <point x="332" y="456"/>
      <point x="294" y="475"/>
      <point x="241" y="475" type="curve" smooth="yes"/>
      <point x="137" y="475"/>
      <point x="43" y="382"/>
      <point x="43" y="231" type="curve" smooth="yes"/>
      <point x="43" y="77"/>
      <point x="118" y="-11"/>
      <point x="233" y="-11" type="curve" smooth="yes"/>
      <point x="284" y="-11"/>
      <point x="332" y="15"/>
      <point x="367" y="49" type="curve"/>
      <point x="363" y="-30" type="line"/>
    </contour>
    <contour>
      <point x="256" y="66" type="curve" smooth="yes"/>
      <point x="181" y="66"/>
      <point x="139" y="126"/>
      <point x="139" y="232" type="curve" smooth="yes"/>
      <point x="139" y="333"/>
      <point x="193" y="397"/>
      <point x="260" y="397" type="curve" smooth="yes"/>
      <point x="294" y="397"/>
      <point x="328" y="385"/>
      <point x="363" y="354" type="curve"/>
      <point x="363" y="124" type="line"/>
      <point x="329" y="85"/>
      <point x="295" y="66"/>
    </contour>
  </outline>
</glyph>
<glyph name="r" format="2">
  <advance width="342"/>
  <unicode hex="0072"/>
  <anchor x="212" y="486" name="aboveLC"/>
  <outline>
    <contour>
      <point x="73" y="0" type="line"/>
      <point x="167" y="0" type="line"/>
      <point x="167" y="290" type="line"/>
      <point x="197" y="365"/>
      <point x="242" y="391"/>
      <point x="281" y="391" type="curve" smooth="yes"/>
      <point x="299" y="391"/>
      <point x="311" y="389"/>
      <point x="327" y="384" type="curve"/>
      <point x="344" y="466" type="line"/>
      <point x="329" y="472"/>
      <point x="315" y="475"/>
      <point x="293" y="475" type="curve" smooth="yes"/>
      <point x="242" y="475"/>
      <point x="193" y="440"/>
      <point x="161" y="380" type="curve"/>
      <point x="158" y="380" type="line"/>
      <point x="150" y="464" type="line"/>
      <point x="73" y="464" type="line"/>
    </contour>
  </outline>
</glyph>
<glyph name="s" format="2">
  <advance width="409"/>
  <unicode hex="0073"/>
  <anchor x="214" y="493" name="aboveLC"/>
  <anchor x="217" y="0" name="baseLC"/>
  <outline>
    <contour>
      <point x="202" y="-11" type="curve" smooth="yes"/>
      <point x="316" y="-11"/>
      <point x="378" y="52"/>
      <point x="378" y="130" type="curve" smooth="yes"/>
      <point x="378" y="219"/>
      <point x="304" y="248"/>
      <point x="238" y="273" type="curve" smooth="yes"/>
      <point x="185" y="293"/>
      <point x="135" y="309"/>
      <point x="135" y="351" type="curve" smooth="yes"/>
      <point x="135" y="385"/>
      <point x="161" y="413"/>
      <point x="216" y="413" type="curve" smooth="yes"/>
      <point x="256" y="413"/>
      <point x="289" y="396"/>
      <point x="322" y="371" type="curve"/>
      <point x="364" y="429" type="line"/>
      <point x="327" y="458"/>
      <point x="275" y="483"/>
      <point x="214" y="483" type="curve" smooth="yes"/>
      <point x="111" y="483"/>
      <point x="48" y="424"/>
      <point x="48" y="346" type="curve" smooth="yes"/>
      <point x="48" y="267"/>
      <point x="122" y="234"/>
      <point x="186" y="210" type="curve" smooth="yes"/>
      <point x="238" y="190"/>
      <point x="292" y="170"/>
      <point x="292" y="125" type="curve" smooth="yes"/>
      <point x="292" y="87"/>
      <point x="263" y="58"/>
      <point x="205" y="58" type="curve" smooth="yes"/>
      <point x="152" y="58"/>
      <point x="110" y="79"/>
      <point x="69" y="112" type="curve"/>
      <point x="25" y="53" type="line"/>
      <point x="70" y="16"/>
      <point x="136" y="-11"/>
    </contour>
  </outline>
</glyph>
<glyph name="t" format="2">
  <advance width="334"/>
  <unicode hex="0074"/>
  <anchor x="142" y="623" name="aboveLC"/>
  <anchor x="213" y="0" name="baseLC"/>
  <outline>
    <contour>
      <point x="230" y="-11" type="curve" smooth="yes"/>
      <point x="263" y="-11"/>
      <point x="295" y="-2"/>
      <point x="321" y="5" type="curve"/>
      <point x="304" y="73" type="line"/>
      <point x="289" y="67"/>
      <point x="269" y="61"/>
      <point x="252" y="61" type="curve" smooth="yes"/>
      <point x="201" y="61"/>
      <point x="181" y="92"/>
      <point x="181" y="149" type="curve" smooth="yes"/>
      <point x="181" y="398" type="line"/>
      <point x="306" y="398" type="line"/>
      <point x="306" y="471" type="line"/>
      <point x="181" y="471" type="line"/>
      <point x="181" y="602" type="line"/>
      <point x="106" y="602" type="line"/>
      <point x="95" y="471" type="line"/>
      <point x="22" y="466" type="line"/>
      <point x="22" y="398" type="line"/>
      <point x="91" y="398" type="line"/>
      <point x="91" y="150" type="line" smooth="yes"/>
      <point x="91" y="53"/>
      <point x="127" y="-11"/>
    </contour>
  </outline>
</glyph>
<glyph name="u" format="2">
  <advance width="522"/>
  <unicode hex="0075"/>
  <anchor x="261" y="486" name="aboveLC"/>
  <outline>
    <contour>
      <point x="210" y="-11" type="curve" smooth="yes"/>
      <point x="273" y="-11"/>
      <point x="319" y="21"/>
      <point x="361" y="70" type="curve"/>
      <point x="364" y="70" type="line"/>
      <point x="371" y="0" type="line"/>
      <point x="448" y="0" type="line"/>
      <point x="448" y="464" type="line"/>
      <point x="355" y="464" type="line"/>
      <point x="355" y="140" type="line"/>
      <point x="315" y="90"/>
      <point x="285" y="69"/>
      <point x="241" y="69" type="curve" smooth="yes"/>
      <point x="185" y="69"/>
      <point x="161" y="102"/>
      <point x="161" y="183" type="curve" smooth="yes"/>
      <point x="161" y="464" type="line"/>
      <point x="67" y="464" type="line"/>
      <point x="67" y="171" type="line" smooth="yes"/>
      <point x="67" y="53"/>
      <point x="111" y="-11"/>
    </contour>
  </outline>
</glyph>
<glyph name="v" format="2">
  <advance width="456"/>
  <unicode hex="0076"/>
  <anchor x="229" y="486" name="aboveLC"/>
  <outline>
    <contour>
      <point x="176" y="0" type="line"/>
      <point x="284" y="0" type="line"/>
      <point x="445" y="464" type="line"/>
      <point x="354" y="464" type="line"/>
      <point x="273" y="212" type="line" smooth="yes"/>
      <point x="260" y="166"/>
      <point x="246" y="119"/>
      <point x="232" y="73" type="curve"/>
      <point x="228" y="73" type="line"/>
      <point x="215" y="119"/>
      <point x="201" y="166"/>
      <point x="187" y="212" type="curve" smooth="yes"/>
      <point x="107" y="464" type="line"/>
      <point x="11" y="464" type="line"/>
    </contour>
  </outline>
</glyph>
<glyph name="w" format="2">
  <advance width="704"/>
  <unicode hex="0077"/>
  <anchor x="352" y="493" name="aboveLC"/>
  <outline>
    <contour>
      <point x="151" y="0" type="line"/>
      <point x="257" y="0" type="line"/>
      <point x="318" y="240" type="line"/>
      <point x="330" y="285"/>
      <point x="339" y="329"/>
      <point x="349" y="377" type="curve"/>
      <point x="353" y="377" type="line"/>
      <point x="364" y="329"/>
      <point x="373" y="286"/>
      <point x="384" y="241" type="curve"/>
      <point x="447" y="0" type="line"/>
      <point x="557" y="0" type="line"/>
      <point x="681" y="471" type="line"/>
      <point x="595" y="471" type="line"/>
      <point x="531" y="208" type="line"/>
      <point x="521" y="163"/>
      <point x="513" y="120"/>
      <point x="503" y="75" type="curve"/>
      <point x="499" y="75" type="line"/>
      <point x="488" y="120"/>
      <point x="478" y="163"/>
      <point x="467" y="208" type="curve"/>
      <point x="397" y="471" type="line"/>
      <point x="311" y="471" type="line"/>
      <point x="242" y="208" type="line"/>
      <point x="230" y="164"/>
      <point x="221" y="120"/>
      <point x="211" y="75" type="curve"/>
      <point x="207" y="75" type="line"/>
      <point x="198" y="120"/>
      <point x="190" y="163"/>
      <point x="180" y="208" type="curve"/>
      <point x="115" y="471" type="line"/>
      <point x="23" y="471" type="line"/>
    </contour>
  </outline>
</glyph>
<glyph name="x" format="2">
  <advance width="440"/>
  <unicode hex="0078"/>
  <anchor x="220" y="486" name="aboveLC"/>
  <outline>
    <contour>
      <point x="13" y="0" type="line"/>
      <point x="110" y="0" type="line"/>
      <point x="166" y="99" type="line"/>
      <point x="181" y="127"/>
      <point x="196" y="155"/>
      <point x="210" y="182" type="curve"/>
      <point x="214" y="182" type="line"/>
      <point x="231" y="155"/>
      <point x="247" y="127"/>
      <point x="263" y="99" type="curve"/>
      <point x="325" y="0" type="line"/>
      <point x="427" y="0" type="line"/>
      <point x="277" y="231" type="line"/>
      <point x="416" y="464" type="line"/>
      <point x="319" y="464" type="line"/>
      <point x="268" y="369" type="line"/>
      <point x="255" y="343"/>
      <point x="242" y="317"/>
      <point x="229" y="291" type="curve"/>
      <point x="225" y="291" type="line"/>
      <point x="210" y="317"/>
      <point x="195" y="343"/>
      <point x="181" y="369" type="curve"/>
      <point x="125" y="464" type="line"/>
      <point x="23" y="464" type="line"/>
      <point x="162" y="242" type="line"/>
    </contour>
  </outline>
</glyph>
<glyph name="y" format="2">
  <advance width="457"/>
  <unicode hex="0079"/>
  <anchor x="236" y="486" name="aboveLC"/>
  <outline>
    <contour>
      <point x="93" y="-195" type="curve" smooth="yes"/>
      <point x="190" y="-195"/>
      <point x="238" y="-128"/>
      <point x="274" y="-29" type="curve"/>
      <point x="445" y="464" type="line"/>
      <point x="354" y="464" type="line"/>
      <point x="278" y="222" type="line" smooth="yes"/>
      <point x="266" y="180"/>
      <point x="253" y="133"/>
      <point x="241" y="91" type="curve"/>
      <point x="237" y="91" type="line"/>
      <point x="223" y="134"/>
      <point x="208" y="181"/>
      <point x="194" y="222" type="curve" smooth="yes"/>
      <point x="107" y="464" type="line"/>
      <point x="11" y="464" type="line"/>
      <point x="195" y="2" type="line"/>
      <point x="186" y="-29" type="line" smooth="yes"/>
      <point x="168" y="-81"/>
      <point x="138" y="-118"/>
      <point x="87" y="-118" type="curve" smooth="yes"/>
      <point x="76" y="-118"/>
      <point x="62" y="-115"/>
      <point x="53" y="-112" type="curve"/>
      <point x="35" y="-185" type="line"/>
      <point x="51" y="-191"/>
      <point x="69" y="-195"/>
    </contour>
  </outline>
</glyph>
<glyph name="z" format="2">
  <advance width="416"/>
  <unicode hex="007A"/>
  <anchor x="224" y="493" name="aboveLC"/>
  <outline>
    <contour>
      <point x="31" y="0" type="line"/>
      <point x="392" y="0" type="line"/>
      <point x="392" y="73" type="line"/>
      <point x="145" y="73" type="line"/>
      <point x="384" y="423" type="line"/>
      <point x="384" y="471" type="line"/>
      <point x="57" y="471" type="line"/>
      <point x="57" y="398" type="line"/>
      <point x="270" y="398" type="line"/>
      <point x="31" y="48" type="line"/>
    </contour>
  </outline>
</glyph>
<glyph name="braceleft" format="2">
  <advance width="344"/>
  <unicode hex="007B"/>
  <outline>
    <contour>
      <point x="293" y="756" type="line"/>
      <point x="205" y="734"/>
      <point x="140" y="675"/>
      <point x="140" y="580" type="curve" smooth="yes"/>
      <point x="140" y="549"/>
      <point x="155" y="471"/>
      <point x="155" y="438" type="curve" smooth="yes"/>
      <point x="155" y="390"/>
      <point x="115" y="361"/>
      <point x="75" y="355" type="curve"/>
      <point x="75" y="309" type="line"/>
      <point x="110" y="302"/>
      <point x="155" y="275"/>
      <point x="155" y="230" type="curve" smooth="yes"/>
      <point x="155" y="169"/>
      <point x="138" y="130"/>
      <point x="138" y="69" type="curve" smooth="yes"/>
      <point x="138" y="-10"/>
      <point x="216" y="-65"/>
      <point x="293" y="-83" type="curve"/>
      <point x="293" y="-36" type="line"/>
      <point x="254" y="-22"/>
      <point x="213" y="-2"/>
      <point x="213" y="45" type="curve" smooth="yes"/>
      <point x="213" y="83"/>
      <point x="228" y="138"/>
      <point x="228" y="184" type="curve" smooth="yes"/>
      <point x="228" y="220"/>
      <point x="220" y="296"/>
      <point x="149" y="333" type="curve"/>
      <point x="220" y="371"/>
      <point x="228" y="421"/>
      <point x="228" y="483" type="curve" smooth="yes"/>
      <point x="228" y="519"/>
      <point x="213" y="570"/>
      <point x="213" y="606" type="curve" smooth="yes"/>
      <point x="213" y="682"/>
      <point x="251" y="697"/>
      <point x="293" y="710" type="curve"/>
    </contour>
  </outline>
</glyph>
<glyph name="bar" format="2">
  <advance width="220"/>
  <unicode hex="007C"/>
  <outline>
    <contour>
      <point x="101" y="45" type="line"/>
      <point x="168" y="-4" type="line"/>
      <point x="168" y="588" type="line"/>
      <point x="101" y="652" type="line"/>
    </contour>
  </outline>
</glyph>
<glyph name="asciitilde" format="2">
  <advance width="665"/>
  <unicode hex="007E"/>
  <outline>
    <contour>
      <point x="464" y="332" type="curve" smooth="yes"/>
      <point x="419" y="332"/>
      <point x="264" y="391"/>
      <point x="193" y="391" type="curve" smooth="yes"/>
      <point x="141" y="391"/>
      <point x="83" y="351"/>
      <point x="79" y="257" type="curve"/>
      <point x="126" y="257" type="line"/>
      <point x="135" y="285"/>
      <point x="151" y="315"/>
      <point x="192" y="315" type="curve" smooth="yes"/>
      <point x="258" y="315"/>
      <point x="395" y="256"/>
      <point x="461" y="256" type="curve" smooth="yes"/>
      <point x="533" y="256"/>
      <point x="575" y="316"/>
      <point x="582" y="391" type="curve"/>
      <point x="529" y="391" type="line"/>
      <point x="524" y="359"/>
      <point x="508" y="332"/>
    </contour>
  </outline>
</glyph>
<glyph name="cent" format="2">
  <advance width="485"/>
  <unicode hex="00A2"/>
  <outline>
    <contour>
      <point x="291" y="63" type="curve" smooth="yes"/>
      <point x="346" y="63"/>
      <point x="402" y="86"/>
      <point x="445" y="124" type="curve"/>
      <point x="405" y="182" type="line"/>
      <point x="378" y="158"/>
      <point x="342" y="138"/>
      <point x="299" y="138" type="curve" smooth="yes"/>
      <point x="205" y="138"/>
      <point x="148" y="202"/>
      <point x="148" y="299" type="curve" smooth="yes"/>
      <point x="148" y="395"/>
      <point x="208" y="459"/>
      <point x="302" y="459" type="curve" smooth="yes"/>
      <point x="336" y="459"/>
      <point x="365" y="445"/>
      <point x="392" y="421" type="curve"/>
      <point x="436" y="477" type="line"/>
      <point x="404" y="508"/>
      <point x="359" y="534"/>
      <point x="298" y="534" type="curve" smooth="yes"/>
      <point x="167" y="534"/>
      <point x="59" y="449"/>
      <point x="59" y="299" type="curve" smooth="yes"/>
      <point x="59" y="149"/>
      <point x="154" y="63"/>
    </contour>
    <contour>
      <point x="255" y="-32" type="line"/>
      <point x="310" y="-32" type="line"/>
      <point x="310" y="632" type="line"/>
      <point x="255" y="632" type="line"/>
    </contour>
  </outline>
</glyph>
<glyph name="sterling" format="2">
  <advance width="479"/>
  <unicode hex="00A3"/>
  <outline>
    <contour>
      <point x="49" y="0" type="line"/>
      <point x="441" y="0" type="line"/>
      <point x="441" y="79" type="line"/>
      <point x="179" y="79" type="line"/>
      <point x="179" y="83" type="line"/>
      <point x="215" y="121"/>
      <point x="233" y="159"/>
      <point x="233" y="220" type="curve" smooth="yes"/>
      <point x="233" y="301"/>
      <point x="196" y="363"/>
      <point x="196" y="433" type="curve" smooth="yes"/>
      <point x="196" y="498"/>
      <point x="232" y="539"/>
      <point x="296" y="539" type="curve" smooth="yes"/>
      <point x="335" y="539"/>
      <point x="363" y="520"/>
      <point x="387" y="491" type="curve"/>
      <point x="440" y="543" type="line"/>
      <point x="404" y="587"/>
      <point x="357" y="616"/>
      <point x="288" y="616" type="curve" smooth="yes"/>
      <point x="180" y="616"/>
      <point x="105" y="547"/>
      <point x="105" y="436" type="curve" smooth="yes"/>
      <point x="105" y="366"/>
      <point x="150" y="295"/>
      <point x="150" y="221" type="curve" smooth="yes"/>
      <point x="150" y="151"/>
      <point x="112" y="90"/>
      <point x="49" y="57" type="curve"/>
    </contour>
    <contour>
      <point x="50" y="267" type="line"/>
      <point x="364" y="267" type="line"/>
      <point x="364" y="328" type="line"/>
      <point x="114" y="328" type="line"/>
      <point x="50" y="325" type="line"/>
    </contour>
  </outline>
</glyph>
<glyph name="yen" format="2">
  <advance width="485"/>
  <unicode hex="00A5"/>
  <outline>
    <contour>
      <point x="197" y="0" type="line"/>
      <point x="287" y="0" type="line"/>
      <point x="287" y="151" type="line"/>
      <point x="443" y="151" type="line"/>
      <point x="443" y="200" type="line"/>
      <point x="287" y="200" type="line"/>
      <point x="287" y="261" type="line"/>
      <point x="443" y="261" type="line"/>
      <point x="443" y="311" type="line"/>
      <point x="309" y="311" type="line"/>
      <point x="465" y="616" type="line"/>
      <point x="373" y="616" type="line"/>
      <point x="302" y="457" type="line"/>
      <point x="283" y="415"/>
      <point x="266" y="372"/>
      <point x="245" y="327" type="curve"/>
      <point x="241" y="327" type="line"/>
      <point x="222" y="372"/>
      <point x="203" y="414"/>
      <point x="185" y="457" type="curve" smooth="yes"/>
      <point x="115" y="616" type="line"/>
      <point x="20" y="616" type="line"/>
      <point x="175" y="311" type="line"/>
      <point x="42" y="311" type="line"/>
      <point x="42" y="261" type="line"/>
      <point x="197" y="261" type="line"/>
      <point x="197" y="200" type="line"/>
      <point x="42" y="200" type="line"/>
      <point x="42" y="151" type="line"/>
      <point x="197" y="151" type="line"/>
    </contour>
  </outline>
</glyph>
<glyph name="brokenbar" format="2">
  <advance width="235"/>
  <unicode hex="00A6"/>
  <outline>
    <contour>
      <point x="85" y="281" type="line"/>
      <point x="149" y="281" type="line"/>
      <point x="149" y="712" type="line"/>
      <point x="85" y="712" type="line"/>
    </contour>
    <contour>
      <point x="85" y="-237" type="line"/>
      <point x="149" y="-237" type="line"/>
      <point x="149" y="200" type="line"/>
      <point x="85" y="200" type="line"/>
    </contour>
  </outline>
</glyph>
<glyph name="section" format="2">
  <advance width="485"/>
  <unicode hex="00A7"/>
  <outline>
    <contour>
      <point x="337" y="135" type="line"/>
      <point x="401" y="166"/>
      <point x="443" y="204"/>
      <point x="443" y="274" type="curve" smooth="yes"/>
      <point x="443" y="451"/>
      <point x="176" y="437"/>
      <point x="176" y="536" type="curve" smooth="yes"/>
      <point x="176" y="567"/>
      <point x="198" y="592"/>
      <point x="249" y="592" type="curve" smooth="yes"/>
      <point x="290" y="592"/>
      <point x="324" y="573"/>
      <point x="355" y="547" type="curve"/>
      <point x="398" y="605" type="line"/>
      <point x="361" y="635"/>
      <point x="308" y="662"/>
      <point x="244" y="662" type="curve" smooth="yes"/>
      <point x="146" y="662"/>
      <point x="93" y="602"/>
      <point x="93" y="532" type="curve" smooth="yes"/>
      <point x="93" y="369"/>
      <point x="364" y="396"/>
      <point x="364" y="267" type="curve" smooth="yes"/>
      <point x="364" y="220"/>
      <point x="337" y="199"/>
      <point x="287" y="179" type="curve"/>
    </contour>
    <contour>
      <point x="228" y="-65" type="curve" smooth="yes"/>
      <point x="325" y="-65"/>
      <point x="389" y="-7"/>
      <point x="389" y="70" type="curve" smooth="yes"/>
      <point x="389" y="235"/>
      <point x="120" y="209"/>
      <point x="120" y="334" type="curve" smooth="yes"/>
      <point x="120" y="377"/>
      <point x="148" y="402"/>
      <point x="192" y="422" type="curve"/>
      <point x="149" y="465" type="line"/>
      <point x="87" y="440"/>
      <point x="42" y="392"/>
      <point x="42" y="328" type="curve" smooth="yes"/>
      <point x="42" y="149"/>
      <point x="306" y="170"/>
      <point x="306" y="65" type="curve" smooth="yes"/>
      <point x="306" y="31"/>
      <point x="278" y="4"/>
      <point x="228" y="4" type="curve" smooth="yes"/>
      <point x="179" y="4"/>
      <point x="144" y="22"/>
      <point x="112" y="54" type="curve"/>
      <point x="57" y="5" type="line"/>
      <point x="98" y="-39"/>
      <point x="160" y="-65"/>
    </contour>
  </outline>
</glyph>
<glyph name="copyright" format="2">
  <advance width="708"/>
  <unicode hex="00A9"/>
  <outline>
    <contour>
      <point x="354" y="-9" type="curve" smooth="yes"/>
      <point x="520" y="-9"/>
      <point x="662" y="113"/>
      <point x="662" y="307" type="curve" smooth="yes"/>
      <point x="662" y="500"/>
      <point x="520" y="621"/>
      <point x="354" y="621" type="curve" smooth="yes"/>
      <point x="188" y="621"/>
      <point x="45" y="501"/>
      <point x="45" y="307" type="curve" smooth="yes"/>
      <point x="45" y="113"/>
      <point x="188" y="-9"/>
    </contour>
    <contour>
      <point x="354" y="34" type="curve" smooth="yes"/>
      <point x="211" y="34"/>
      <point x="95" y="143"/>
      <point x="95" y="307" type="curve" smooth="yes"/>
      <point x="95" y="470"/>
      <point x="211" y="577"/>
      <point x="354" y="577" type="curve" smooth="yes"/>
      <point x="496" y="577"/>
      <point x="613" y="470"/>
      <point x="613" y="307" type="curve" smooth="yes"/>
      <point x="613" y="143"/>
      <point x="496" y="34"/>
    </contour>
    <contour>
      <point x="362" y="119" type="curve" smooth="yes"/>
      <point x="417" y="119"/>
      <point x="454" y="142"/>
      <point x="490" y="172" type="curve"/>
      <point x="457" y="218" type="line"/>
      <point x="430" y="196"/>
      <point x="403" y="179"/>
      <point x="365" y="179" type="curve" smooth="yes"/>
      <point x="301" y="179"/>
      <point x="259" y="228"/>
      <point x="259" y="306" type="curve" smooth="yes"/>
      <point x="259" y="376"/>
      <point x="301" y="427"/>
      <point x="369" y="427" type="curve" smooth="yes"/>
      <point x="400" y="427"/>
      <point x="422" y="414"/>
      <point x="447" y="390" type="curve"/>
      <point x="485" y="433" type="line"/>
      <point x="454" y="463"/>
      <point x="419" y="487"/>
      <point x="364" y="487" type="curve" smooth="yes"/>
      <point x="271" y="487"/>
      <point x="187" y="417"/>
      <point x="187" y="306" type="curve" smooth="yes"/>
      <point x="187" y="189"/>
      <point x="264" y="119"/>
    </contour>
  </outline>
</glyph>
<glyph name="logicalnot" format="2">
  <advance width="497"/>
  <unicode hex="00AC"/>
  <outline>
    <contour>
      <point x="397" y="104" type="line"/>
      <point x="463" y="104" type="line"/>
      <point x="463" y="361" type="line"/>
      <point x="34" y="361" type="line"/>
      <point x="34" y="299" type="line"/>
      <point x="397" y="299" type="line"/>
    </contour>
  </outline>
</glyph>
<glyph name="registered" format="2">
  <advance width="411"/>
  <unicode hex="00AE"/>
  <outline>
    <contour>
      <point x="205" y="301" type="curve" smooth="yes"/>
      <point x="305" y="301"/>
      <point x="386" y="378"/>
      <point x="386" y="489" type="curve" smooth="yes"/>
      <point x="386" y="600"/>
      <point x="305" y="678"/>
      <point x="205" y="678" type="curve" smooth="yes"/>
      <point x="105" y="678"/>
      <point x="24" y="600"/>
      <point x="24" y="489" type="curve" smooth="yes"/>
      <point x="24" y="378"/>
      <point x="105" y="301"/>
    </contour>
    <contour>
      <point x="205" y="338" type="curve" smooth="yes"/>
      <point x="125" y="338"/>
      <point x="65" y="399"/>
      <point x="65" y="489" type="curve" smooth="yes"/>
      <point x="65" y="578"/>
      <point x="125" y="640"/>
      <point x="205" y="640" type="curve" smooth="yes"/>
      <point x="285" y="640"/>
      <point x="345" y="578"/>
      <point x="345" y="489" type="curve" smooth="yes"/>
      <point x="345" y="399"/>
      <point x="285" y="338"/>
    </contour>
    <contour>
      <point x="134" y="396" type="line"/>
      <point x="177" y="396" type="line"/>
      <point x="177" y="460" type="line"/>
      <point x="213" y="460" type="line"/>
      <point x="245" y="396" type="line"/>
      <point x="292" y="396" type="line"/>
      <point x="249" y="473" type="line"/>
      <point x="271" y="481"/>
      <point x="285" y="502"/>
      <point x="285" y="525" type="curve" smooth="yes"/>
      <point x="285" y="570"/>
      <point x="250" y="587"/>
      <point x="210" y="587" type="curve" smooth="yes"/>
      <point x="134" y="587" type="line"/>
    </contour>
    <contour>
      <point x="177" y="492" type="line"/>
      <point x="177" y="552" type="line"/>
      <point x="202" y="552" type="line" smooth="yes"/>
      <point x="228" y="552"/>
      <point x="239" y="540"/>
      <point x="239" y="522" type="curve" smooth="yes"/>
      <point x="239" y="503"/>
      <point x="224" y="492"/>
      <point x="200" y="492" type="curve" smooth="yes"/>
    </contour>
  </outline>
</glyph>
<glyph name="degree" format="2">
  <advance width="326"/>
  <unicode hex="00B0"/>
  <outline>
    <contour>
      <point x="163" y="409" type="curve" smooth="yes"/>
      <point x="230" y="409"/>
      <point x="288" y="459"/>
      <point x="288" y="535" type="curve" smooth="yes"/>
      <point x="288" y="611"/>
      <point x="230" y="662"/>
      <point x="163" y="662" type="curve" smooth="yes"/>
      <point x="96" y="662"/>
      <point x="38" y="611"/>
      <point x="38" y="535" type="curve" smooth="yes"/>
      <point x="38" y="459"/>
      <point x="96" y="409"/>
    </contour>
    <contour>
      <point x="163" y="457" type="curve" smooth="yes"/>
      <point x="121" y="457"/>
      <point x="91" y="490"/>
      <point x="91" y="535" type="curve" smooth="yes"/>
      <point x="91" y="581"/>
      <point x="121" y="613"/>
      <point x="163" y="613" type="curve" smooth="yes"/>
      <point x="205" y="613"/>
      <point x="234" y="581"/>
      <point x="234" y="535" type="curve" smooth="yes"/>
      <point x="234" y="490"/>
      <point x="205" y="457"/>
    </contour>
  </outline>
</glyph>
<glyph name="plusminus" format="2">
  <advance width="479"/>
  <unicode hex="00B1"/>
  <outline>
    <contour>
      <point x="203" y="128" type="line"/>
      <point x="276" y="128" type="line"/>
      <point x="276" y="286" type="line"/>
      <point x="447" y="286" type="line"/>
      <point x="447" y="355" type="line"/>
      <point x="276" y="355" type="line"/>
      <point x="276" y="530" type="line"/>
      <point x="203" y="530" type="line"/>
      <point x="203" y="355" type="line"/>
      <point x="32" y="355" type="line"/>
      <point x="32" y="286" type="line"/>
      <point x="203" y="286" type="line"/>
    </contour>
    <contour>
      <point x="32" y="0" type="line"/>
      <point x="447" y="0" type="line"/>
      <point x="447" y="68" type="line"/>
      <point x="32" y="68" type="line"/>
    </contour>
  </outline>
</glyph>
<glyph name="micro" format="2">
  <advance width="548"/>
  <unicode hex="00B5"/>
  <outline>
    <contour>
      <point x="76" y="-172" type="line"/>
      <point x="167" y="-172" type="line"/>
      <point x="162" y="-99"/>
      <point x="161" y="-56"/>
      <point x="160" y="32" type="curve"/>
      <point x="181" y="-1"/>
      <point x="210" y="-8"/>
      <point x="246" y="-8" type="curve" smooth="yes"/>
      <point x="295" y="-8"/>
      <point x="338" y="19"/>
      <point x="371" y="77" type="curve"/>
      <point x="373" y="77" type="line"/>
      <point x="381" y="16"/>
      <point x="409" y="-11"/>
      <point x="465" y="-11" type="curve"/>
      <point x="493" y="-11"/>
      <point x="511" y="-5"/>
      <point x="526" y="0" type="curve"/>
      <point x="514" y="69" type="line"/>
      <point x="504" y="65"/>
      <point x="494" y="63"/>
      <point x="486" y="63" type="curve" smooth="yes"/>
      <point x="464" y="63"/>
      <point x="450" y="73"/>
      <point x="450" y="101" type="curve" smooth="yes"/>
      <point x="450" y="208"/>
      <point x="454" y="347"/>
      <point x="456" y="471" type="curve"/>
      <point x="365" y="471" type="line"/>
      <point x="365" y="152" type="line"/>
      <point x="324" y="81"/>
      <point x="289" y="66"/>
      <point x="248" y="66" type="curve" smooth="yes"/>
      <point x="190" y="66"/>
      <point x="166" y="105"/>
      <point x="166" y="185" type="curve" smooth="yes"/>
      <point x="166" y="471" type="line"/>
      <point x="76" y="471" type="line"/>
    </contour>
  </outline>
</glyph>
<glyph name="paragraph" format="2">
  <advance width="554"/>
  <unicode hex="00B6"/>
  <outline>
    <contour>
      <point x="369" y="-77" type="line"/>
      <point x="461" y="-77" type="line"/>
      <point x="461" y="633" type="line"/>
      <point x="369" y="633" type="line"/>
    </contour>
    <contour>
      <point x="283" y="213" type="curve" smooth="yes"/>
      <point x="316" y="213" type="line"/>
      <point x="316" y="633" type="line"/>
      <point x="274" y="633" type="line" smooth="yes"/>
      <point x="141" y="633"/>
      <point x="38" y="579"/>
      <point x="38" y="425" type="curve" smooth="yes"/>
      <point x="38" y="279"/>
      <point x="144" y="213"/>
    </contour>
  </outline>
</glyph>
<glyph name="AE" format="2">
  <advance width="798"/>
  <unicode hex="00C6"/>
  <anchor x="540" y="670" name="aboveUC"/>
  <outline>
    <contour>
      <point x="4" y="0" type="line"/>
      <point x="100" y="0" type="line"/>
      <point x="282" y="359" type="line"/>
      <point x="315" y="426"/>
      <point x="348" y="494"/>
      <point x="381" y="562" type="curve"/>
      <point x="385" y="562" type="line"/>
      <point x="385" y="0" type="line"/>
      <point x="750" y="0" type="line"/>
      <point x="750" y="77" type="line"/>
      <point x="477" y="77" type="line"/>
      <point x="477" y="292" type="line"/>
      <point x="698" y="292" type="line"/>
      <point x="698" y="370" type="line"/>
      <point x="477" y="370" type="line"/>
      <point x="477" y="556" type="line"/>
      <point x="741" y="556" type="line"/>
      <point x="741" y="633" type="line"/>
      <point x="330" y="633" type="line"/>
    </contour>
    <contour>
      <point x="149" y="177" type="line"/>
      <point x="438" y="177" type="line"/>
      <point x="438" y="250" type="line"/>
      <point x="149" y="250" type="line"/>
    </contour>
  </outline>
</glyph>
<glyph name="Eth" format="2">
  <advance width="611"/>
  <unicode hex="00D0"/>
  <outline>
    <component base="D" xOffset="21"/>
    <contour>
      <point x="29" y="299" type="line"/>
      <point x="334" y="299" type="line"/>
      <point x="334" y="350" type="line"/>
      <point x="105" y="350" type="line"/>
      <point x="29" y="346" type="line"/>
    </contour>
  </outline>
</glyph>
<glyph name="Oslash" format="2">
  <advance width="645"/>
  <unicode hex="00D8"/>
  <anchor x="326" y="654" name="aboveUC"/>
  <outline>
    <component base="O" xOffset="2"/>
    <contour>
      <point x="96" y="-30" type="line"/>
      <point x="605" y="626" type="line"/>
      <point x="555" y="664" type="line"/>
      <point x="46" y="7" type="line"/>
    </contour>
  </outline>
</glyph>
<glyph name="Thorn" format="2">
  <advance width="562"/>
  <unicode hex="00DE"/>
  <outline>
    <contour>
      <point x="82" y="0" type="line"/>
      <point x="176" y="0" type="line"/>
      <point x="176" y="135" type="line"/>
      <point x="282" y="135" type="line" smooth="yes"/>
      <point x="417" y="135"/>
      <point x="515" y="197"/>
      <point x="515" y="332" type="curve" smooth="yes"/>
      <point x="515" y="472"/>
      <point x="419" y="520"/>
      <point x="282" y="520" type="curve" smooth="yes"/>
      <point x="176" y="520" type="line"/>
      <point x="176" y="622" type="line"/>
      <point x="82" y="622" type="line"/>
    </contour>
    <contour>
      <point x="176" y="212" type="line"/>
      <point x="176" y="444" type="line"/>
      <point x="272" y="444" type="line" smooth="yes"/>
      <point x="371" y="444"/>
      <point x="421" y="416"/>
      <point x="421" y="332" type="curve" smooth="yes"/>
      <point x="421" y="250"/>
      <point x="373" y="212"/>
      <point x="272" y="212" type="curve" smooth="yes"/>
    </contour>
  </outline>
</glyph>
<glyph name="germandbls" format="2">
  <advance width="560"/>
  <unicode hex="00DF"/>
  <outline>
    <contour>
      <point x="376" y="-11" type="curve" smooth="yes"/>
      <point x="475" y="-11"/>
      <point x="533" y="51"/>
      <point x="533" y="133" type="curve" smooth="yes"/>
      <point x="533" y="285"/>
      <point x="351" y="268"/>
      <point x="351" y="353" type="curve" smooth="yes"/>
      <point x="351" y="414"/>
      <point x="434" y="445"/>
      <point x="434" y="539" type="curve" smooth="yes"/>
      <point x="434" y="616"/>
      <point x="377" y="683"/>
      <point x="269" y="683" type="curve" smooth="yes"/>
      <point x="142" y="683"/>
      <point x="73" y="602"/>
      <point x="73" y="482" type="curve" smooth="yes"/>
      <point x="73" y="0" type="line"/>
      <point x="166" y="0" type="line"/>
      <point x="166" y="467" type="line" smooth="yes"/>
      <point x="166" y="559"/>
      <point x="204" y="608"/>
      <point x="268" y="608" type="curve" smooth="yes"/>
      <point x="317" y="608"/>
      <point x="343" y="574"/>
      <point x="343" y="529" type="curve" smooth="yes"/>
      <point x="343" y="452"/>
      <point x="264" y="424"/>
      <point x="264" y="342" type="curve" smooth="yes"/>
      <point x="264" y="212"/>
      <point x="446" y="228"/>
      <point x="446" y="128" type="curve" smooth="yes"/>
      <point x="446" y="92"/>
      <point x="420" y="60"/>
      <point x="373" y="60" type="curve" smooth="yes"/>
      <point x="338" y="60"/>
      <point x="308" y="72"/>
      <point x="275" y="99" type="curve"/>
      <point x="239" y="34" type="line"/>
      <point x="280" y="5"/>
      <point x="322" y="-11"/>
    </contour>
  </outline>
</glyph>
<glyph name="ae" format="2">
  <advance width="758"/>
  <unicode hex="00E6"/>
  <anchor x="398" y="493" name="aboveLC"/>
  <outline>
    <contour>
      <point x="193" y="-11" type="curve" smooth="yes"/>
      <point x="254" y="-11"/>
      <point x="319" y="17"/>
      <point x="383" y="73" type="curve"/>
      <point x="420" y="27"/>
      <point x="471" y="-11"/>
      <point x="548" y="-11" type="curve"/>
      <point x="611" y="-11"/>
      <point x="661" y="9"/>
      <point x="704" y="38" type="curve"/>
      <point x="671" y="99" type="line"/>
      <point x="636" y="77"/>
      <point x="603" y="61"/>
      <point x="560" y="61" type="curve" smooth="yes"/>
      <point x="483" y="61"/>
      <point x="424" y="120"/>
      <point x="419" y="212" type="curve"/>
      <point x="718" y="212" type="line"/>
      <point x="721" y="224"/>
      <point x="722" y="240"/>
      <point x="722" y="259" type="curve" smooth="yes"/>
      <point x="722" y="393"/>
      <point x="659" y="483"/>
      <point x="541" y="483" type="curve"/>
      <point x="478" y="483"/>
      <point x="426" y="447"/>
      <point x="389" y="388" type="curve"/>
      <point x="367" y="446"/>
      <point x="322" y="483"/>
      <point x="254" y="483" type="curve" smooth="yes"/>
      <point x="185" y="483"/>
      <point x="120" y="451"/>
      <point x="74" y="421" type="curve"/>
      <point x="108" y="360" type="line"/>
      <point x="147" y="385"/>
      <point x="194" y="409"/>
      <point x="243" y="409" type="curve" smooth="yes"/>
      <point x="316" y="409"/>
      <point x="335" y="356"/>
      <point x="335" y="299" type="curve"/>
      <point x="141" y="278"/>
      <point x="54" y="226"/>
      <point x="54" y="123" type="curve" smooth="yes"/>
      <point x="54" y="39"/>
      <point x="112" y="-11"/>
    </contour>
    <contour>
      <point x="220" y="60" type="curve" smooth="yes"/>
      <point x="176" y="60"/>
      <point x="142" y="81"/>
      <point x="142" y="130" type="curve" smooth="yes"/>
      <point x="142" y="186"/>
      <point x="195" y="223"/>
      <point x="334" y="241" type="curve"/>
      <point x="335" y="218" type="line" smooth="yes"/>
      <point x="336" y="185"/>
      <point x="342" y="150"/>
      <point x="352" y="126" type="curve"/>
      <point x="313" y="85"/>
      <point x="261" y="60"/>
    </contour>
    <contour>
      <point x="419" y="271" type="line"/>
      <point x="428" y="358"/>
      <point x="477" y="411"/>
      <point x="538" y="411" type="curve" smooth="yes"/>
      <point x="606" y="411"/>
      <point x="643" y="361"/>
      <point x="643" y="271" type="curve"/>
    </contour>
  </outline>
</glyph>
<glyph name="eth" format="2">
  <advance width="521"/>
  <unicode hex="00F0"/>
  <outline>
    <contour>
      <point x="256" y="-11" type="curve" smooth="yes"/>
      <point x="384" y="-11"/>
      <point x="466" y="93"/>
      <point x="466" y="246" type="curve" smooth="yes"/>
      <point x="466" y="491"/>
      <point x="319" y="615"/>
      <point x="165" y="696" type="curve"/>
      <point x="123" y="637" type="line"/>
      <point x="278" y="553"/>
      <point x="377" y="458"/>
      <point x="377" y="242" type="curve" smooth="yes"/>
      <point x="377" y="134"/>
      <point x="336" y="65"/>
      <point x="259" y="65" type="curve" smooth="yes"/>
      <point x="191" y="65"/>
      <point x="135" y="122"/>
      <point x="135" y="212" type="curve" smooth="yes"/>
      <point x="135" y="297"/>
      <point x="181" y="354"/>
      <point x="258" y="354" type="curve" smooth="yes"/>
      <point x="300" y="354"/>
      <point x="341" y="340"/>
      <point x="381" y="285" type="curve"/>
      <point x="380" y="343" type="line"/>
      <point x="350" y="401"/>
      <point x="297" y="426"/>
      <point x="242" y="426" type="curve" smooth="yes"/>
      <point x="134" y="426"/>
      <point x="47" y="343"/>
      <point x="47" y="212" type="curve" smooth="yes"/>
      <point x="47" y="73"/>
      <point x="146" y="-11"/>
    </contour>
    <contour>
      <point x="132" y="468" type="line"/>
      <point x="458" y="634" type="line"/>
      <point x="432" y="680" type="line"/>
      <point x="106" y="513" type="line"/>
    </contour>
  </outline>
</glyph>
<glyph name="oslash" format="2">
  <advance width="526"/>
  <unicode hex="00F8"/>
  <anchor x="263" y="493" name="aboveLC"/>
  <outline>
    <contour>
      <point x="263" y="-11" type="curve" smooth="yes"/>
      <point x="379" y="-11"/>
      <point x="483" y="79"/>
      <point x="483" y="235" type="curve" smooth="yes"/>
      <point x="483" y="392"/>
      <point x="379" y="483"/>
      <point x="263" y="483" type="curve" smooth="yes"/>
      <point x="146" y="483"/>
      <point x="42" y="392"/>
      <point x="42" y="235" type="curve" smooth="yes"/>
      <point x="42" y="79"/>
      <point x="146" y="-11"/>
    </contour>
    <contour>
      <point x="263" y="60" type="curve" smooth="yes"/>
      <point x="185" y="60"/>
      <point x="131" y="126"/>
      <point x="131" y="239" type="curve" smooth="yes"/>
      <point x="131" y="341"/>
      <point x="186" y="411"/>
      <point x="263" y="411" type="curve" smooth="yes"/>
      <point x="340" y="411"/>
      <point x="394" y="343"/>
      <point x="394" y="230" type="curve" smooth="yes"/>
      <point x="394" y="129"/>
      <point x="340" y="60"/>
    </contour>
    <contour>
      <point x="83" y="-23" type="line"/>
      <point x="481" y="464" type="line"/>
      <point x="443" y="494" type="line"/>
      <point x="44" y="7" type="line"/>
    </contour>
  </outline>
</glyph>
<glyph name="thorn" format="2">
  <advance width="539"/>
  <unicode hex="00FE"/>
  <anchor x="124" y="705" name="aboveLC"/>
  <outline>
    <contour>
      <point x="76" y="-194" type="line"/>
      <point x="166" y="-194" type="line"/>
      <point x="166" y="-38" type="line"/>
      <point x="165" y="39" type="line"/>
      <point x="205" y="7"/>
      <point x="246" y="-11"/>
      <point x="291" y="-11" type="curve" smooth="yes"/>
      <point x="398" y="-11"/>
      <point x="495" y="82"/>
      <point x="495" y="243" type="curve" smooth="yes"/>
      <point x="495" y="388"/>
      <point x="427" y="483"/>
      <point x="304" y="483" type="curve" smooth="yes"/>
      <point x="253" y="483"/>
      <point x="205" y="457"/>
      <point x="165" y="424" type="curve"/>
      <point x="166" y="503" type="line"/>
      <point x="166" y="686" type="line"/>
      <point x="76" y="686" type="line"/>
    </contour>
    <contour>
      <point x="274" y="64" type="curve" smooth="yes"/>
      <point x="244" y="64"/>
      <point x="206" y="76"/>
      <point x="166" y="109" type="curve"/>
      <point x="166" y="347" type="line"/>
      <point x="209" y="387"/>
      <point x="246" y="407"/>
      <point x="284" y="407" type="curve" smooth="yes"/>
      <point x="367" y="407"/>
      <point x="401" y="342"/>
      <point x="401" y="242" type="curve" smooth="yes"/>
      <point x="401" y="129"/>
      <point x="347" y="64"/>
    </contour>
  </outline>
</glyph>
<glyph name="dotlessi" format="2">
  <advance width="246"/>
  <unicode hex="0131"/>
  <anchor x="124" y="509" name="aboveLC"/>
  <outline>
    <contour>
      <point x="82" y="0" type="line"/>
      <point x="164" y="0" type="line"/>
      <point x="164" y="486" type="line"/>
      <point x="82" y="486" type="line"/>
    </contour>
  </outline>
</glyph>
<glyph name="idotless" format="2">
  <advance width="243"/>
  <unicode hex="0131"/>
  <anchor x="122" y="493" name="aboveLC"/>
  <outline>
    <contour>
      <point x="76" y="0" type="line"/>
      <point x="166" y="0" type="line"/>
      <point x="166" y="471" type="line"/>
      <point x="76" y="471" type="line"/>
    </contour>
  </outline>
</glyph>
<glyph name="OE" format="2">
  <advance width="810"/>
  <unicode hex="0152"/>
  <anchor x="504" y="643" name="aboveUC"/>
  <outline>
    <contour>
      <point x="351" y="0" type="curve" smooth="yes"/>
      <point x="763" y="0" type="line"/>
      <point x="763" y="79" type="line"/>
      <point x="497" y="79" type="line"/>
      <point x="497" y="285" type="line"/>
      <point x="711" y="285" type="line"/>
      <point x="711" y="365" type="line"/>
      <point x="497" y="365" type="line"/>
      <point x="497" y="542" type="line"/>
      <point x="753" y="542" type="line"/>
      <point x="753" y="622" type="line"/>
      <point x="355" y="622" type="line" smooth="yes"/>
      <point x="165" y="622"/>
      <point x="47" y="515"/>
      <point x="47" y="313" type="curve" smooth="yes"/>
      <point x="47" y="111"/>
      <point x="165" y="0"/>
    </contour>
    <contour>
      <point x="362" y="77" type="line" smooth="yes"/>
      <point x="222" y="77"/>
      <point x="145" y="157"/>
      <point x="145" y="313" type="curve" smooth="yes"/>
      <point x="145" y="469"/>
      <point x="222" y="545"/>
      <point x="362" y="545" type="curve" smooth="yes"/>
      <point x="402" y="545" type="line"/>
      <point x="402" y="77" type="line"/>
    </contour>
  </outline>
</glyph>
<glyph name="oe" format="2">
  <advance width="807"/>
  <unicode hex="0153"/>
  <anchor x="423" y="493" name="aboveLC"/>
  <outline>
    <contour>
      <point x="255" y="-11" type="curve" smooth="yes"/>
      <point x="332" y="-11"/>
      <point x="389" y="26"/>
      <point x="426" y="99" type="curve"/>
      <point x="462" y="30"/>
      <point x="525" y="-11"/>
      <point x="595" y="-11" type="curve"/>
      <point x="658" y="-11"/>
      <point x="711" y="9"/>
      <point x="753" y="38" type="curve"/>
      <point x="721" y="99" type="line"/>
      <point x="686" y="77"/>
      <point x="650" y="61"/>
      <point x="607" y="61" type="curve" smooth="yes"/>
      <point x="530" y="61"/>
      <point x="470" y="120"/>
      <point x="465" y="212" type="curve"/>
      <point x="768" y="212" type="line"/>
      <point x="770" y="224"/>
      <point x="772" y="240"/>
      <point x="772" y="259" type="curve" smooth="yes"/>
      <point x="772" y="393"/>
      <point x="706" y="483"/>
      <point x="588" y="483" type="curve"/>
      <point x="521" y="483"/>
      <point x="461" y="441"/>
      <point x="425" y="371" type="curve"/>
      <point x="391" y="443"/>
      <point x="328" y="483"/>
      <point x="257" y="483" type="curve" smooth="yes"/>
      <point x="142" y="483"/>
      <point x="42" y="392"/>
      <point x="42" y="235" type="curve" smooth="yes"/>
      <point x="42" y="79"/>
      <point x="140" y="-11"/>
    </contour>
    <contour>
      <point x="257" y="63" type="curve" smooth="yes"/>
      <point x="185" y="63"/>
      <point x="135" y="131"/>
      <point x="135" y="235" type="curve" smooth="yes"/>
      <point x="135" y="338"/>
      <point x="185" y="408"/>
      <point x="257" y="408" type="curve" smooth="yes"/>
      <point x="331" y="408"/>
      <point x="380" y="338"/>
      <point x="380" y="235" type="curve" smooth="yes"/>
      <point x="380" y="131"/>
      <point x="331" y="63"/>
    </contour>
    <contour>
      <point x="465" y="271" type="line"/>
      <point x="474" y="358"/>
      <point x="524" y="411"/>
      <point x="585" y="411" type="curve" smooth="yes"/>
      <point x="653" y="411"/>
      <point x="692" y="361"/>
      <point x="692" y="271" type="curve"/>
    </contour>
  </outline>
</glyph>
<glyph name="florin" format="2">
  <advance width="485"/>
  <unicode hex="0192"/>
  <outline>
    <contour>
      <point x="91" y="-93" type="curve" smooth="yes"/>
      <point x="203" y="-93"/>
      <point x="242" y="-11"/>
      <point x="255" y="106" type="curve" smooth="yes"/>
      <point x="295" y="454" type="line" smooth="yes"/>
      <point x="302" y="517"/>
      <point x="325" y="571"/>
      <point x="380" y="571" type="curve" smooth="yes"/>
      <point x="403" y="571"/>
      <point x="419" y="563"/>
      <point x="433" y="558" type="curve"/>
      <point x="451" y="627" type="line"/>
      <point x="433" y="636"/>
      <point x="402" y="645"/>
      <point x="374" y="645" type="curve" smooth="yes"/>
      <point x="267" y="645"/>
      <point x="221" y="578"/>
      <point x="207" y="447" type="curve" smooth="yes"/>
      <point x="171" y="127" type="line" smooth="yes"/>
      <point x="161" y="27"/>
      <point x="139" y="-19"/>
      <point x="81" y="-20" type="curve" smooth="yes"/>
      <point x="65" y="-20"/>
      <point x="49" y="-17"/>
      <point x="34" y="-10" type="curve"/>
      <point x="19" y="-78" type="line"/>
      <point x="35" y="-87"/>
      <point x="60" y="-93"/>
    </contour>
    <contour>
      <point x="111" y="327" type="line"/>
      <point x="405" y="327" type="line"/>
      <point x="405" y="395" type="line"/>
      <point x="179" y="395" type="line"/>
      <point x="111" y="391" type="line"/>
    </contour>
  </outline>
</glyph>
<glyph name="gravecmb" format="2">
  <unicode hex="0300"/>
  <anchor x="0" y="493" name="_aboveLC"/>
  <outline>
    <contour>
      <point x="9" y="554" type="line"/>
      <point x="55" y="599" type="line"/>
      <point x="-83" y="762" type="line"/>
      <point x="-146" y="702" type="line"/>
    </contour>
  </outline>
</glyph>
<glyph name="acutecmb" format="2">
  <unicode hex="0301"/>
  <anchor x="0" y="493" name="_aboveLC"/>
  <outline>
    <contour>
      <point x="-9" y="554" type="line"/>
      <point x="146" y="702" type="line"/>
      <point x="83" y="762" type="line"/>
      <point x="-55" y="599" type="line"/>
    </contour>
  </outline>
</glyph>
<glyph name="circumflexcmb" format="2">
  <unicode hex="0302"/>
  <anchor x="0" y="486" name="_aboveLC"/>
  <anchor x="0" y="697" name="aboveLC"/>
  <outline>
    <contour>
      <point x="-153" y="573" type="line"/>
      <point x="-115" y="537" type="line"/>
      <point x="-1" y="640" type="line"/>
      <point x="1" y="640" type="line"/>
      <point x="115" y="537" type="line"/>
      <point x="153" y="573" type="line"/>
      <point x="47" y="703" type="line"/>
      <point x="-47" y="703" type="line"/>
    </contour>
  </outline>
</glyph>
<glyph name="tildecmb" format="2">
  <unicode hex="0303"/>
  <anchor x="0" y="486" name="_aboveLC"/>
  <outline>
    <contour>
      <point x="67" y="547" type="curve" smooth="yes"/>
      <point x="134" y="547"/>
      <point x="165" y="600"/>
      <point x="168" y="679" type="curve"/>
      <point x="107" y="683" type="line"/>
      <point x="104" y="641"/>
      <point x="91" y="614"/>
      <point x="66" y="614" type="curve" smooth="yes"/>
      <point x="25" y="614"/>
      <point x="-1" y="689"/>
      <point x="-66" y="689" type="curve" smooth="yes"/>
      <point x="-134" y="689"/>
      <point x="-165" y="636"/>
      <point x="-168" y="556" type="curve"/>
      <point x="-107" y="552" type="line"/>
      <point x="-104" y="595"/>
      <point x="-91" y="622"/>
      <point x="-65" y="622" type="curve" smooth="yes"/>
      <point x="-25" y="622"/>
      <point x="1" y="547"/>
    </contour>
  </outline>
</glyph>
<glyph name="dieresiscmb" format="2">
  <unicode hex="0308"/>
  <anchor x="0" y="486" name="_aboveLC"/>
  <anchor x="0" y="666" name="aboveLC"/>
  <outline>
    <contour>
      <point x="-94" y="553" type="curve" smooth="yes"/>
      <point x="-64" y="553"/>
      <point x="-42" y="576"/>
      <point x="-42" y="605" type="curve" smooth="yes"/>
      <point x="-42" y="635"/>
      <point x="-64" y="658"/>
      <point x="-94" y="658" type="curve" smooth="yes"/>
      <point x="-125" y="658"/>
      <point x="-147" y="635"/>
      <point x="-147" y="605" type="curve" smooth="yes"/>
      <point x="-147" y="576"/>
      <point x="-125" y="553"/>
    </contour>
    <contour>
      <point x="94" y="553" type="curve" smooth="yes"/>
      <point x="125" y="553"/>
      <point x="147" y="576"/>
      <point x="147" y="605" type="curve" smooth="yes"/>
      <point x="147" y="635"/>
      <point x="125" y="658"/>
      <point x="94" y="658" type="curve" smooth="yes"/>
      <point x="64" y="658"/>
      <point x="42" y="635"/>
      <point x="42" y="605" type="curve" smooth="yes"/>
      <point x="42" y="576"/>
      <point x="64" y="553"/>
    </contour>
  </outline>
</glyph>
<glyph name="ringcmb" format="2">
  <unicode hex="030A"/>
  <anchor x="0" y="486" name="_aboveLC"/>
  <outline>
    <contour>
      <point x="0" y="528" type="curve" smooth="yes"/>
      <point x="68" y="528"/>
      <point x="109" y="569"/>
      <point x="109" y="623" type="curve" smooth="yes"/>
      <point x="109" y="677"/>
      <point x="68" y="718"/>
      <point x="0" y="718" type="curve" smooth="yes"/>
      <point x="-68" y="718"/>
      <point x="-109" y="677"/>
      <point x="-109" y="623" type="curve" smooth="yes"/>
      <point x="-109" y="569"/>
      <point x="-68" y="528"/>
    </contour>
    <contour>
      <point x="0" y="568" type="curve" smooth="yes"/>
      <point x="-28" y="568"/>
      <point x="-50" y="590"/>
      <point x="-50" y="623" type="curve" smooth="yes"/>
      <point x="-50" y="657"/>
      <point x="-28" y="679"/>
      <point x="0" y="679" type="curve" smooth="yes"/>
      <point x="28" y="679"/>
      <point x="50" y="657"/>
      <point x="50" y="623" type="curve" smooth="yes"/>
      <point x="50" y="590"/>
      <point x="28" y="568"/>
    </contour>
  </outline>
</glyph>
<glyph name="caroncmb" format="2">
  <unicode hex="030C"/>
  <anchor x="0" y="486" name="_aboveLC"/>
  <outline>
    <contour>
      <point x="-47" y="546" type="line"/>
      <point x="47" y="546" type="line"/>
      <point x="153" y="676" type="line"/>
      <point x="115" y="712" type="line"/>
      <point x="1" y="609" type="line"/>
      <point x="-1" y="609" type="line"/>
      <point x="-115" y="712" type="line"/>
      <point x="-153" y="676" type="line"/>
    </contour>
  </outline>
</glyph>
<glyph name="pi" format="2">
  <advance width="574"/>
  <unicode hex="03C0"/>
  <outline>
    <contour>
      <point x="475" y="-11" type="curve" smooth="yes"/>
      <point x="504" y="-11"/>
      <point x="526" y="-5"/>
      <point x="543" y="0" type="curve"/>
      <point x="531" y="68" type="line"/>
      <point x="514" y="65"/>
      <point x="502" y="63"/>
      <point x="494" y="63" type="curve" smooth="yes"/>
      <point x="465" y="63"/>
      <point x="450" y="76"/>
      <point x="450" y="108" type="curve" smooth="yes"/>
      <point x="450" y="150"/>
      <point x="451" y="294"/>
      <point x="457" y="397" type="curve"/>
      <point x="551" y="397" type="line"/>
      <point x="551" y="471" type="line"/>
      <point x="88" y="471" type="line"/>
      <point x="20" y="466" type="line"/>
      <point x="20" y="397" type="line"/>
      <point x="128" y="397" type="line"/>
      <point x="128" y="274"/>
      <point x="116" y="131"/>
      <point x="94" y="0" type="curve"/>
      <point x="186" y="-5" type="line"/>
      <point x="199" y="124"/>
      <point x="213" y="268"/>
      <point x="213" y="397" type="curve"/>
      <point x="370" y="397" type="line"/>
      <point x="369" y="298"/>
      <point x="365" y="159"/>
      <point x="365" y="114" type="curve" smooth="yes"/>
      <point x="365" y="34"/>
      <point x="395" y="-11"/>
    </contour>
  </outline>
</glyph>
<glyph name="figuredash" format="2">
  <advance width="497"/>
  <unicode hex="2012"/>
  <outline>
    <contour>
      <point x="35" y="250" type="line"/>
      <point x="462" y="250" type="line"/>
      <point x="462" y="324" type="line"/>
      <point x="35" y="324" type="line"/>
    </contour>
  </outline>
</glyph>
<glyph name="emdash" format="2">
  <advance width="969"/>
  <unicode hex="2014"/>
  <outline>
    <contour>
      <point x="80" y="250" type="line"/>
      <point x="889" y="250" type="line"/>
      <point x="889" y="324" type="line"/>
      <point x="80" y="324" type="line"/>
    </contour>
  </outline>
</glyph>
<glyph name="horizontalbar" format="2">
  <advance width="800"/>
  <unicode hex="2015"/>
  <outline>
    <contour>
      <point x="80" y="250" type="line"/>
      <point x="720" y="250" type="line"/>
      <point x="720" y="324" type="line"/>
      <point x="80" y="324" type="line"/>
    </contour>
  </outline>
</glyph>
<glyph name="quoteleft" format="2">
  <advance width="285"/>
  <unicode hex="2018"/>
  <outline>
    <contour>
      <point x="85" y="613"/>
      <point x="128" y="581"/>
      <point x="160" y="566" type="curve"/>
      <point x="167" y="580"/>
      <point x="185" y="616"/>
      <point x="191" y="636" type="curve"/>
      <point x="171" y="651"/>
      <point x="144" y="672"/>
      <point x="144" y="690" type="curve" smooth="yes"/>
      <point x="144" y="708"/>
      <point x="156" y="746"/>
      <point x="180" y="798" type="curve"/>
      <point x="155" y="815" type="line"/>
      <point x="101" y="705"/>
      <point x="85" y="660"/>
      <point x="85" y="643" type="curve" smooth="yes"/>
    </contour>
  </outline>
</glyph>
<glyph name="dagger" format="2">
  <advance width="448"/>
  <unicode hex="2020"/>
  <outline>
    <contour>
      <point x="186" y="-77" type="line"/>
      <point x="262" y="-77" type="line"/>
      <point x="256" y="465" type="line"/>
      <point x="397" y="460" type="line"/>
      <point x="397" y="536" type="line"/>
      <point x="256" y="531" type="line"/>
      <point x="262" y="688" type="line"/>
      <point x="186" y="688" type="line"/>
      <point x="191" y="531" type="line"/>
      <point x="50" y="536" type="line"/>
      <point x="50" y="460" type="line"/>
      <point x="191" y="465" type="line"/>
    </contour>
  </outline>
</glyph>
<glyph name="daggerdbl" format="2">
  <advance width="444"/>
  <unicode hex="2021"/>
  <outline>
    <contour>
      <point x="183" y="-76" type="line"/>
      <point x="261" y="-76" type="line"/>
      <point x="255" y="79" type="line"/>
      <point x="395" y="73" type="line"/>
      <point x="395" y="152" type="line"/>
      <point x="255" y="144" type="line"/>
      <point x="261" y="300" type="line"/>
      <point x="255" y="455" type="line"/>
      <point x="395" y="448" type="line"/>
      <point x="395" y="526" type="line"/>
      <point x="255" y="521" type="line"/>
      <point x="261" y="676" type="line"/>
      <point x="183" y="676" type="line"/>
      <point x="188" y="521" type="line"/>
      <point x="48" y="526" type="line"/>
      <point x="48" y="448" type="line"/>
      <point x="188" y="455" type="line"/>
      <point x="183" y="300" type="line"/>
      <point x="188" y="144" type="line"/>
      <point x="48" y="152" type="line"/>
      <point x="48" y="73" type="line"/>
      <point x="188" y="79" type="line"/>
    </contour>
  </outline>
</glyph>
<glyph name="bullet" format="2">
  <advance width="301"/>
  <unicode hex="2022"/>
  <outline>
    <contour>
      <point x="150" y="134" type="curve" smooth="yes"/>
      <point x="210" y="134"/>
      <point x="262" y="183"/>
      <point x="262" y="254" type="curve" smooth="yes"/>
      <point x="262" y="325"/>
      <point x="210" y="374"/>
      <point x="150" y="374" type="curve" smooth="yes"/>
      <point x="90" y="374"/>
      <point x="38" y="325"/>
      <point x="38" y="254" type="curve" smooth="yes"/>
      <point x="38" y="183"/>
      <point x="90" y="134"/>
    </contour>
  </outline>
</glyph>
<glyph name="guilsinglleft" format="2">
  <advance width="262"/>
  <unicode hex="2039"/>
  <outline>
    <contour>
      <point x="172" y="60" type="line"/>
      <point x="211" y="91" type="line"/>
      <point x="100" y="239" type="line"/>
      <point x="211" y="386" type="line"/>
      <point x="172" y="418" type="line"/>
      <point x="43" y="273" type="line"/>
      <point x="43" y="204" type="line"/>
    </contour>
  </outline>
</glyph>
<glyph name="fraction" format="2">
  <advance width="84"/>
  <unicode hex="2044"/>
  <outline>
    <contour>
      <point x="-162" y="-11" type="line"/>
      <point x="-103" y="-11" type="line"/>
      <point x="244" y="645" type="line"/>
      <point x="186" y="645" type="line"/>
    </contour>
  </outline>
</glyph>
<glyph name="euro" format="2">
  <advance width="479"/>
  <unicode hex="20AC"/>
  <outline>
    <contour>
      <point x="307" y="-11" type="curve" smooth="yes"/>
      <point x="376" y="-11"/>
      <point x="430" y="20"/>
      <point x="473" y="76" type="curve"/>
      <point x="419" y="126" type="line"/>
      <point x="388" y="85"/>
      <point x="356" y="63"/>
      <point x="312" y="63" type="curve" smooth="yes"/>
      <point x="222" y="63"/>
      <point x="171" y="155"/>
      <point x="171" y="304" type="curve" smooth="yes"/>
      <point x="171" y="451"/>
      <point x="222" y="542"/>
      <point x="316" y="542" type="curve" smooth="yes"/>
      <point x="355" y="542"/>
      <point x="384" y="521"/>
      <point x="410" y="490" type="curve"/>
      <point x="464" y="542" type="line"/>
      <point x="429" y="586"/>
      <point x="376" y="616"/>
      <point x="319" y="616" type="curve" smooth="yes"/>
      <point x="173" y="616"/>
      <point x="75" y="497"/>
      <point x="75" y="301" type="curve" smooth="yes"/>
      <point x="75" y="103"/>
      <point x="171" y="-11"/>
    </contour>
    <contour>
      <point x="20" y="218" type="line"/>
      <point x="370" y="218" type="line"/>
      <point x="370" y="270" type="line"/>
      <point x="87" y="270" type="line"/>
      <point x="20" y="265" type="line"/>
    </contour>
    <contour>
      <point x="20" y="329" type="line"/>
      <point x="408" y="329" type="line"/>
      <point x="408" y="382" type="line"/>
      <point x="88" y="382" type="line"/>
      <point x="20" y="377" type="line"/>
    </contour>
  </outline>
</glyph>
<glyph name="inrupee" format="2">
  <advance width="683"/>
  <unicode hex="20B9"/>
  <outline>
    <contour>
      <point x="563" y="485" type="line"/>
      <point x="126" y="485" type="line"/>
      <point x="126" y="407" type="line"/>
      <point x="563" y="407" type="line"/>
    </contour>
    <contour>
      <point x="409" y="250"/>
      <point x="480" y="352"/>
      <point x="480" y="444" type="curve" smooth="yes"/>
      <point x="480" y="501"/>
      <point x="452" y="554"/>
      <point x="408" y="574" type="curve"/>
      <point x="382" y="564" type="line"/>
      <point x="553" y="564" type="line"/>
      <point x="553" y="645" type="line"/>
      <point x="130" y="645" type="line"/>
      <point x="130" y="564" type="line"/>
      <point x="260" y="564" type="line" smooth="yes"/>
      <point x="329" y="564"/>
      <point x="378" y="506"/>
      <point x="378" y="448" type="curve" smooth="yes"/>
      <point x="378" y="389"/>
      <point x="328" y="329"/>
      <point x="198" y="329" type="curve" smooth="yes"/>
      <point x="135" y="329" type="line"/>
      <point x="136" y="242" type="line"/>
      <point x="378" y="0" type="line"/>
      <point x="514" y="0" type="line"/>
      <point x="234" y="285" type="line"/>
      <point x="219" y="250" type="line"/>
    </contour>
  </outline>
</glyph>
<glyph name="trademark" format="2">
  <advance width="623"/>
  <unicode hex="2122"/>
  <outline>
    <contour>
      <point x="96" y="353" type="line"/>
      <point x="160" y="353" type="line"/>
      <point x="160" y="595" type="line"/>
      <point x="254" y="595" type="line"/>
      <point x="254" y="653" type="line"/>
      <point x="2" y="653" type="line"/>
      <point x="2" y="595" type="line"/>
      <point x="96" y="595" type="line"/>
    </contour>
    <contour>
      <point x="301" y="353" type="line"/>
      <point x="360" y="353" type="line"/>
      <point x="360" y="478" type="line"/>
      <point x="353" y="581" type="line"/>
      <point x="356" y="581" type="line"/>
      <point x="424" y="398" type="line"/>
      <point x="473" y="398" type="line"/>
      <point x="540" y="581" type="line"/>
      <point x="544" y="581" type="line"/>
      <point x="537" y="478" type="line"/>
      <point x="537" y="353" type="line"/>
      <point x="596" y="353" type="line"/>
      <point x="596" y="653" type="line"/>
      <point x="520" y="653" type="line"/>
      <point x="477" y="544" type="line"/>
      <point x="451" y="470" type="line"/>
      <point x="447" y="470" type="line"/>
      <point x="421" y="544" type="line"/>
      <point x="377" y="653" type="line"/>
      <point x="301" y="653" type="line"/>
    </contour>
  </outline>
</glyph>
<glyph name="Ohm" format="2">
  <advance width="652"/>
  <unicode hex="2126"/>
  <outline>
    <contour>
      <point x="42" y="0" type="line"/>
      <point x="272" y="0" type="line"/>
      <point x="272" y="68" type="line"/>
      <point x="202" y="125"/>
      <point x="153" y="206"/>
      <point x="153" y="327" type="curve" smooth="yes"/>
      <point x="153" y="456"/>
      <point x="217" y="551"/>
      <point x="326" y="551" type="curve" smooth="yes"/>
      <point x="434" y="551"/>
      <point x="498" y="456"/>
      <point x="498" y="327" type="curve" smooth="yes"/>
      <point x="498" y="206"/>
      <point x="449" y="125"/>
      <point x="380" y="68" type="curve"/>
      <point x="380" y="0" type="line"/>
      <point x="609" y="0" type="line"/>
      <point x="609" y="77" type="line"/>
      <point x="490" y="77" type="line"/>
      <point x="490" y="80" type="line"/>
      <point x="541" y="130"/>
      <point x="596" y="215"/>
      <point x="596" y="335" type="curve" smooth="yes"/>
      <point x="596" y="509"/>
      <point x="489" y="633"/>
      <point x="326" y="633" type="curve" smooth="yes"/>
      <point x="163" y="633"/>
      <point x="56" y="509"/>
      <point x="56" y="335" type="curve" smooth="yes"/>
      <point x="56" y="215"/>
      <point x="111" y="130"/>
      <point x="162" y="80" type="curve"/>
      <point x="162" y="77" type="line"/>
      <point x="42" y="77" type="line"/>
    </contour>
  </outline>
</glyph>
<glyph name="partialdiff" format="2">
  <advance width="513"/>
  <unicode hex="2202"/>
  <outline>
    <contour>
      <point x="216" y="-11" type="curve" smooth="yes"/>
      <point x="368" y="-11"/>
      <point x="472" y="133"/>
      <point x="472" y="352" type="curve" smooth="yes"/>
      <point x="472" y="540"/>
      <point x="395" y="633"/>
      <point x="266" y="633" type="curve" smooth="yes"/>
      <point x="205" y="633"/>
      <point x="153" y="609"/>
      <point x="110" y="568" type="curve"/>
      <point x="152" y="509" type="line"/>
      <point x="182" y="539"/>
      <point x="217" y="556"/>
      <point x="256" y="556" type="curve" smooth="yes"/>
      <point x="337" y="556"/>
      <point x="382" y="495"/>
      <point x="382" y="349" type="curve" smooth="yes"/>
      <point x="382" y="163"/>
      <point x="317" y="65"/>
      <point x="226" y="65" type="curve" smooth="yes"/>
      <point x="173" y="65"/>
      <point x="127" y="107"/>
      <point x="127" y="177" type="curve" smooth="yes"/>
      <point x="127" y="258"/>
      <point x="171" y="312"/>
      <point x="254" y="312" type="curve" smooth="yes"/>
      <point x="295" y="312"/>
      <point x="338" y="293"/>
      <point x="377" y="241" type="curve"/>
      <point x="388" y="313" type="line"/>
      <point x="351" y="358"/>
      <point x="298" y="386"/>
      <point x="245" y="386" type="curve" smooth="yes"/>
      <point x="119" y="386"/>
      <point x="40" y="298"/>
      <point x="40" y="172" type="curve" smooth="yes"/>
      <point x="40" y="58"/>
      <point x="122" y="-11"/>
    </contour>
  </outline>
</glyph>
<glyph name="increment" format="2">
  <advance width="571"/>
  <unicode hex="2206"/>
  <outline>
    <contour>
      <point x="29" y="0" type="line"/>
      <point x="541" y="0" type="line"/>
      <point x="541" y="56" type="line"/>
      <point x="340" y="622" type="line"/>
      <point x="230" y="622" type="line"/>
      <point x="29" y="56" type="line"/>
    </contour>
    <contour>
      <point x="131" y="79" type="line"/>
      <point x="220" y="345" type="line"/>
      <point x="282" y="541" type="line"/>
      <point x="286" y="541" type="line"/>
      <point x="348" y="345" type="line"/>
      <point x="437" y="79" type="line"/>
    </contour>
  </outline>
</glyph>
<glyph name="product" format="2">
  <advance width="648"/>
  <unicode hex="220F"/>
  <outline>
    <contour>
      <point x="82" y="-114" type="line"/>
      <point x="176" y="-114" type="line"/>
      <point x="176" y="522" type="line"/>
      <point x="470" y="522" type="line"/>
      <point x="470" y="-114" type="line"/>
      <point x="566" y="-114" type="line"/>
      <point x="566" y="605" type="line"/>
      <point x="82" y="605" type="line"/>
    </contour>
  </outline>
</glyph>
<glyph name="summation" format="2">
  <advance width="492"/>
  <unicode hex="2211"/>
  <outline>
    <contour>
      <point x="21" y="-116" type="line"/>
      <point x="488" y="-116" type="line"/>
      <point x="488" y="-38" type="line"/>
      <point x="136" y="-38" type="line"/>
      <point x="136" y="-34" type="line"/>
      <point x="342" y="250" type="line"/>
      <point x="145" y="534" type="line"/>
      <point x="145" y="538" type="line"/>
      <point x="461" y="538" type="line"/>
      <point x="461" y="616" type="line"/>
      <point x="32" y="616" type="line"/>
      <point x="32" y="558" type="line"/>
      <point x="246" y="249" type="line"/>
      <point x="21" y="-58" type="line"/>
    </contour>
  </outline>
</glyph>
<glyph name="radical" format="2">
  <advance width="543"/>
  <unicode hex="221A"/>
  <outline>
    <contour>
      <point x="271" y="-89" type="line"/>
      <point x="338" y="-89" type="line"/>
      <point x="548" y="792" type="line"/>
      <point x="483" y="792" type="line"/>
      <point x="315" y="71" type="line"/>
      <point x="310" y="50"/>
      <point x="306" y="28"/>
      <point x="303" y="7" type="curve"/>
      <point x="299" y="7" type="line"/>
      <point x="294" y="28"/>
      <point x="288" y="50"/>
      <point x="282" y="71" type="curve"/>
      <point x="172" y="397" type="line"/>
      <point x="37" y="338" type="line"/>
      <point x="56" y="291" type="line"/>
      <point x="126" y="321" type="line"/>
    </contour>
  </outline>
</glyph>
<glyph name="infinity" format="2">
  <advance width="750"/>
  <unicode hex="221E"/>
  <outline>
    <contour>
      <point x="543" y="131" type="curve" smooth="yes"/>
      <point x="640" y="131"/>
      <point x="713" y="204"/>
      <point x="713" y="319" type="curve" smooth="yes"/>
      <point x="713" y="420"/>
      <point x="642" y="492"/>
      <point x="546" y="492" type="curve" smooth="yes"/>
      <point x="466" y="492"/>
      <point x="408" y="441"/>
      <point x="362" y="380" type="curve"/>
      <point x="358" y="380" type="line"/>
      <point x="324" y="426"/>
      <point x="274" y="476"/>
      <point x="198" y="476" type="curve" smooth="yes"/>
      <point x="105" y="476"/>
      <point x="37" y="412"/>
      <point x="37" y="306" type="curve" smooth="yes"/>
      <point x="37" y="221"/>
      <point x="103" y="151"/>
      <point x="185" y="151" type="curve" smooth="yes"/>
      <point x="261" y="151"/>
      <point x="314" y="206"/>
      <point x="347" y="246" type="curve"/>
      <point x="351" y="246" type="line"/>
      <point x="409" y="173"/>
      <point x="463" y="131"/>
    </contour>
    <contour>
      <point x="194" y="221" type="curve" smooth="yes"/>
      <point x="144" y="221"/>
      <point x="108" y="259"/>
      <point x="108" y="308" type="curve" smooth="yes"/>
      <point x="108" y="357"/>
      <point x="141" y="388"/>
      <point x="191" y="388" type="curve" smooth="yes"/>
      <point x="237" y="388"/>
      <point x="277" y="353"/>
      <point x="313" y="302" type="curve"/>
      <point x="283" y="256"/>
      <point x="242" y="221"/>
    </contour>
    <contour>
      <point x="544" y="219" type="curve" smooth="yes"/>
      <point x="486" y="219"/>
      <point x="445" y="259"/>
      <point x="395" y="325" type="curve"/>
      <point x="439" y="387"/>
      <point x="485" y="421"/>
      <point x="537" y="421" type="curve" smooth="yes"/>
      <point x="602" y="421"/>
      <point x="641" y="378"/>
      <point x="641" y="317" type="curve" smooth="yes"/>
      <point x="641" y="264"/>
      <point x="605" y="219"/>
    </contour>
  </outline>
</glyph>
<glyph name="integral" format="2">
  <advance width="329"/>
  <unicode hex="222B"/>
  <outline>
    <contour>
      <point x="94" y="-150" type="curve" smooth="yes"/>
      <point x="213" y="-150"/>
      <point x="237" y="-54"/>
      <point x="237" y="71" type="curve" smooth="yes"/>
      <point x="237" y="216"/>
      <point x="199" y="391"/>
      <point x="199" y="531" type="curve" smooth="yes"/>
      <point x="199" y="626"/>
      <point x="210" y="677"/>
      <point x="261" y="677" type="curve" smooth="yes"/>
      <point x="274" y="677"/>
      <point x="286" y="676"/>
      <point x="294" y="674" type="curve"/>
      <point x="304" y="743" type="line"/>
      <point x="296" y="747"/>
      <point x="277" y="750"/>
      <point x="258" y="750" type="curve" smooth="yes"/>
      <point x="138" y="750"/>
      <point x="114" y="654"/>
      <point x="114" y="528" type="curve" smooth="yes"/>
      <point x="114" y="383"/>
      <point x="153" y="208"/>
      <point x="153" y="67" type="curve" smooth="yes"/>
      <point x="153" y="-28"/>
      <point x="142" y="-77"/>
      <point x="90" y="-77" type="curve" smooth="yes"/>
      <point x="77" y="-77"/>
      <point x="65" y="-76"/>
      <point x="57" y="-73" type="curve"/>
      <point x="46" y="-143" type="line"/>
      <point x="56" y="-146"/>
      <point x="74" y="-150"/>
    </contour>
  </outline>
</glyph>
<glyph name="notequal" format="2">
  <advance width="485"/>
  <unicode hex="2260"/>
  <outline>
    <contour>
      <point x="57" y="58" type="line"/>
      <point x="121" y="58" type="line"/>
      <point x="194" y="180" type="line"/>
      <point x="452" y="180" type="line"/>
      <point x="452" y="247" type="line"/>
      <point x="232" y="247" type="line"/>
      <point x="317" y="390" type="line"/>
      <point x="452" y="390" type="line"/>
      <point x="452" y="457" type="line"/>
      <point x="355" y="457" type="line"/>
      <point x="428" y="579" type="line"/>
      <point x="364" y="579" type="line"/>
      <point x="291" y="457" type="line"/>
      <point x="32" y="457" type="line"/>
      <point x="32" y="390" type="line"/>
      <point x="253" y="390" type="line"/>
      <point x="168" y="247" type="line"/>
      <point x="32" y="247" type="line"/>
      <point x="32" y="180" type="line"/>
      <point x="130" y="180" type="line"/>
    </contour>
  </outline>
</glyph>
<glyph name="greaterequal" format="2">
  <advance width="479"/>
  <unicode hex="2265"/>
  <outline>
    <contour>
      <point x="32" y="145" type="line"/>
      <point x="447" y="288" type="line"/>
      <point x="447" y="370" type="line"/>
      <point x="32" y="513" type="line"/>
      <point x="32" y="433" type="line"/>
      <point x="222" y="370" type="line"/>
      <point x="351" y="331" type="line"/>
      <point x="351" y="327" type="line"/>
      <point x="222" y="288" type="line"/>
      <point x="32" y="225" type="line"/>
    </contour>
    <contour>
      <point x="32" y="0" type="line"/>
      <point x="447" y="0" type="line"/>
      <point x="447" y="68" type="line"/>
      <point x="32" y="68" type="line"/>
    </contour>
  </outline>
</glyph>
<glyph name="openbox" format="2">
  <advance width="199"/>
  <unicode hex="2423"/>
  <outline>
    <contour>
      <point x="199" y="-112" type="line"/>
      <point x="199" y="0" type="line"/>
      <point x="164" y="0" type="line"/>
      <point x="164" y="-76" type="line"/>
      <point x="35" y="-76" type="line"/>
      <point x="35" y="0" type="line"/>
      <point x="0" y="0" type="line"/>
      <point x="0" y="-112" type="line"/>
    </contour>
  </outline>
</glyph>
<glyph name="lozenge" format="2">
  <advance width="505"/>
  <unicode hex="25CA"/>
  <outline>
    <contour>
      <point x="212" y="-9" type="line"/>
      <point x="292" y="-9" type="line"/>
      <point x="451" y="319" type="line"/>
      <point x="292" y="647" type="line"/>
      <point x="212" y="647" type="line"/>
      <point x="53" y="319" type="line"/>
    </contour>
    <contour>
      <point x="250" y="66" type="line"/>
      <point x="191" y="192" type="line"/>
      <point x="132" y="319" type="line"/>
      <point x="191" y="444" type="line"/>
      <point x="250" y="571" type="line"/>
      <point x="254" y="571" type="line"/>
      <point x="313" y="444" type="line"/>
      <point x="372" y="319" type="line"/>
      <point x="313" y="192" type="line"/>
      <point x="254" y="66" type="line"/>
    </contour>
  </outline>
</glyph>
<glyph name="dottedCircle" format="2">
  <advance width="564"/>
  <unicode hex="25CC"/>
  <anchor x="282" y="645" name="A"/>
  <anchor x="564" y="645" name="M"/>
  <anchor x="282" y="493" name="aboveLC"/>
  <anchor x="282" y="0" name="baseLC"/>
  <outline>
    <contour>
      <point x="103" y="93" type="curve" smooth="yes"/>
      <point x="125" y="93"/>
      <point x="139" y="107"/>
      <point x="139" y="129" type="curve" smooth="yes"/>
      <point x="139" y="153"/>
      <point x="124" y="166"/>
      <point x="103" y="166" type="curve" smooth="yes"/>
      <point x="85" y="166"/>
      <point x="69" y="153"/>
      <point x="69" y="129" type="curve" smooth="yes"/>
      <point x="69" y="107"/>
      <point x="85" y="93"/>
    </contour>
    <contour>
      <point x="76" y="198" type="curve" smooth="yes"/>
      <point x="98" y="198"/>
      <point x="113" y="212"/>
      <point x="113" y="236" type="curve" smooth="yes"/>
      <point x="113" y="259"/>
      <point x="98" y="271"/>
      <point x="76" y="271" type="curve" smooth="yes"/>
      <point x="58" y="271"/>
      <point x="42" y="259"/>
      <point x="42" y="236" type="curve" smooth="yes"/>
      <point x="42" y="212"/>
      <point x="58" y="198"/>
    </contour>
    <contour>
      <point x="103" y="305" type="curve" smooth="yes"/>
      <point x="125" y="305"/>
      <point x="139" y="319"/>
      <point x="139" y="343" type="curve" smooth="yes"/>
      <point x="139" y="366"/>
      <point x="124" y="379"/>
      <point x="103" y="379" type="curve" smooth="yes"/>
      <point x="85" y="379"/>
      <point x="69" y="366"/>
      <point x="69" y="343" type="curve" smooth="yes"/>
      <point x="69" y="319"/>
      <point x="85" y="305"/>
    </contour>
    <contour>
      <point x="179" y="14" type="curve" smooth="yes"/>
      <point x="200" y="14"/>
      <point x="215" y="27"/>
      <point x="215" y="52" type="curve" smooth="yes"/>
      <point x="215" y="74"/>
      <point x="199" y="87"/>
      <point x="179" y="87" type="curve" smooth="yes"/>
      <point x="160" y="87"/>
      <point x="144" y="74"/>
      <point x="144" y="52" type="curve" smooth="yes"/>
      <point x="144" y="27"/>
      <point x="160" y="14"/>
    </contour>
    <contour>
      <point x="179" y="384" type="curve" smooth="yes"/>
      <point x="200" y="384"/>
      <point x="215" y="398"/>
      <point x="215" y="420" type="curve" smooth="yes"/>
      <point x="215" y="445"/>
      <point x="199" y="457"/>
      <point x="179" y="457" type="curve" smooth="yes"/>
      <point x="160" y="457"/>
      <point x="144" y="445"/>
      <point x="144" y="420" type="curve" smooth="yes"/>
      <point x="144" y="398"/>
      <point x="160" y="384"/>
    </contour>
    <contour>
      <point x="281" y="-12" type="curve" smooth="yes"/>
      <point x="303" y="-12"/>
      <point x="317" y="1"/>
      <point x="317" y="25" type="curve" smooth="yes"/>
      <point x="317" y="48"/>
      <point x="302" y="61"/>
      <point x="281" y="61" type="curve" smooth="yes"/>
      <point x="263" y="61"/>
      <point x="247" y="48"/>
      <point x="247" y="25" type="curve" smooth="yes"/>
      <point x="247" y="1"/>
      <point x="263" y="-12"/>
    </contour>
    <contour>
      <point x="281" y="409" type="curve" smooth="yes"/>
      <point x="303" y="409"/>
      <point x="317" y="423"/>
      <point x="317" y="447" type="curve" smooth="yes"/>
      <point x="317" y="469"/>
      <point x="302" y="483"/>
      <point x="281" y="483" type="curve" smooth="yes"/>
      <point x="263" y="483"/>
      <point x="247" y="469"/>
      <point x="247" y="447" type="curve" smooth="yes"/>
      <point x="247" y="423"/>
      <point x="263" y="409"/>
    </contour>
    <contour>
      <point x="383" y="14" type="curve" smooth="yes"/>
      <point x="406" y="14"/>
      <point x="419" y="27"/>
      <point x="419" y="52" type="curve" smooth="yes"/>
      <point x="419" y="74"/>
      <point x="403" y="87"/>
      <point x="383" y="87" type="curve" smooth="yes"/>
      <point x="365" y="87"/>
      <point x="349" y="74"/>
      <point x="349" y="52" type="curve" smooth="yes"/>
      <point x="349" y="27"/>
      <point x="365" y="14"/>
    </contour>
    <contour>
      <point x="383" y="383" type="curve" smooth="yes"/>
      <point x="406" y="383"/>
      <point x="419" y="397"/>
      <point x="419" y="420" type="curve" smooth="yes"/>
      <point x="419" y="444"/>
      <point x="403" y="457"/>
      <point x="383" y="457" type="curve" smooth="yes"/>
      <point x="365" y="457"/>
      <point x="349" y="444"/>
      <point x="349" y="420" type="curve" smooth="yes"/>
      <point x="349" y="397"/>
      <point x="365" y="383"/>
    </contour>
    <contour>
      <point x="460" y="93" type="curve" smooth="yes"/>
      <point x="481" y="93"/>
      <point x="495" y="107"/>
      <point x="495" y="129" type="curve" smooth="yes"/>
      <point x="495" y="153"/>
      <point x="480" y="166"/>
      <point x="460" y="166" type="curve" smooth="yes"/>
      <point x="441" y="166"/>
      <point x="425" y="153"/>
      <point x="425" y="129" type="curve" smooth="yes"/>
      <point x="425" y="107"/>
      <point x="441" y="93"/>
    </contour>
    <contour>
      <point x="486" y="198" type="curve" smooth="yes"/>
      <point x="507" y="198"/>
      <point x="522" y="212"/>
      <point x="522" y="236" type="curve" smooth="yes"/>
      <point x="522" y="259"/>
      <point x="505" y="271"/>
      <point x="486" y="271" type="curve" smooth="yes"/>
      <point x="466" y="271"/>
      <point x="451" y="259"/>
      <point x="451" y="236" type="curve" smooth="yes"/>
      <point x="451" y="212"/>
      <point x="466" y="198"/>
    </contour>
    <contour>
      <point x="460" y="304" type="curve" smooth="yes"/>
      <point x="481" y="304"/>
      <point x="495" y="318"/>
      <point x="495" y="341" type="curve" smooth="yes"/>
      <point x="495" y="364"/>
      <point x="480" y="377"/>
      <point x="460" y="377" type="curve" smooth="yes"/>
      <point x="441" y="377"/>
      <point x="425" y="364"/>
      <point x="425" y="341" type="curve" smooth="yes"/>
      <point x="425" y="318"/>
      <point x="441" y="304"/>
    </contour>
  </outline>
</glyph>
<glyph name="dottedcircle" format="2">
  <advance width="554"/>
  <unicode hex="25CC"/>
  <anchor x="277" y="645" name="A"/>
  <anchor x="554" y="645" name="M"/>
  <anchor x="277" y="486" name="aboveLC"/>
  <anchor x="277" y="0" name="baseLC"/>
  <outline>
    <contour>
      <point x="101" y="91" type="curve" smooth="yes"/>
      <point x="123" y="91"/>
      <point x="137" y="105"/>
      <point x="137" y="128" type="curve" smooth="yes"/>
      <point x="137" y="151"/>
      <point x="122" y="164"/>
      <point x="101" y="164" type="curve" smooth="yes"/>
      <point x="83" y="164"/>
      <point x="67" y="151"/>
      <point x="67" y="128" type="curve" smooth="yes"/>
      <point x="67" y="105"/>
      <point x="83" y="91"/>
    </contour>
    <contour>
      <point x="75" y="195" type="curve" smooth="yes"/>
      <point x="97" y="195"/>
      <point x="111" y="208"/>
      <point x="111" y="232" type="curve" smooth="yes"/>
      <point x="111" y="255"/>
      <point x="96" y="267"/>
      <point x="75" y="267" type="curve" smooth="yes"/>
      <point x="57" y="267"/>
      <point x="41" y="255"/>
      <point x="41" y="232" type="curve" smooth="yes"/>
      <point x="41" y="208"/>
      <point x="57" y="195"/>
    </contour>
    <contour>
      <point x="101" y="299" type="curve" smooth="yes"/>
      <point x="123" y="299"/>
      <point x="137" y="313"/>
      <point x="137" y="337" type="curve" smooth="yes"/>
      <point x="137" y="361"/>
      <point x="122" y="373"/>
      <point x="101" y="373" type="curve" smooth="yes"/>
      <point x="83" y="373"/>
      <point x="67" y="361"/>
      <point x="67" y="337" type="curve" smooth="yes"/>
      <point x="67" y="313"/>
      <point x="83" y="299"/>
    </contour>
    <contour>
      <point x="176" y="13" type="curve" smooth="yes"/>
      <point x="197" y="13"/>
      <point x="211" y="27"/>
      <point x="211" y="52" type="curve" smooth="yes"/>
      <point x="211" y="74"/>
      <point x="195" y="86"/>
      <point x="176" y="86" type="curve" smooth="yes"/>
      <point x="157" y="86"/>
      <point x="141" y="74"/>
      <point x="141" y="52" type="curve" smooth="yes"/>
      <point x="141" y="27"/>
      <point x="157" y="13"/>
    </contour>
    <contour>
      <point x="176" y="377" type="curve" smooth="yes"/>
      <point x="197" y="377"/>
      <point x="211" y="391"/>
      <point x="211" y="413" type="curve" smooth="yes"/>
      <point x="211" y="438"/>
      <point x="195" y="450"/>
      <point x="176" y="450" type="curve" smooth="yes"/>
      <point x="157" y="450"/>
      <point x="141" y="438"/>
      <point x="141" y="413" type="curve" smooth="yes"/>
      <point x="141" y="391"/>
      <point x="157" y="377"/>
    </contour>
    <contour>
      <point x="276" y="-11" type="curve" smooth="yes"/>
      <point x="297" y="-11"/>
      <point x="312" y="1"/>
      <point x="312" y="25" type="curve" smooth="yes"/>
      <point x="312" y="48"/>
      <point x="297" y="60"/>
      <point x="276" y="60" type="curve" smooth="yes"/>
      <point x="258" y="60"/>
      <point x="242" y="48"/>
      <point x="242" y="25" type="curve" smooth="yes"/>
      <point x="242" y="1"/>
      <point x="258" y="-11"/>
    </contour>
    <contour>
      <point x="276" y="402" type="curve" smooth="yes"/>
      <point x="297" y="402"/>
      <point x="312" y="416"/>
      <point x="312" y="439" type="curve" smooth="yes"/>
      <point x="312" y="462"/>
      <point x="297" y="475"/>
      <point x="276" y="475" type="curve" smooth="yes"/>
      <point x="258" y="475"/>
      <point x="242" y="462"/>
      <point x="242" y="439" type="curve" smooth="yes"/>
      <point x="242" y="416"/>
      <point x="258" y="402"/>
    </contour>
    <contour>
      <point x="376" y="13" type="curve" smooth="yes"/>
      <point x="399" y="13"/>
      <point x="412" y="27"/>
      <point x="412" y="52" type="curve" smooth="yes"/>
      <point x="412" y="74"/>
      <point x="396" y="86"/>
      <point x="376" y="86" type="curve" smooth="yes"/>
      <point x="358" y="86"/>
      <point x="342" y="74"/>
      <point x="342" y="52" type="curve" smooth="yes"/>
      <point x="342" y="27"/>
      <point x="358" y="13"/>
    </contour>
    <contour>
      <point x="376" y="376" type="curve" smooth="yes"/>
      <point x="399" y="376"/>
      <point x="412" y="390"/>
      <point x="412" y="413" type="curve" smooth="yes"/>
      <point x="412" y="437"/>
      <point x="396" y="449"/>
      <point x="376" y="449" type="curve" smooth="yes"/>
      <point x="358" y="449"/>
      <point x="342" y="437"/>
      <point x="342" y="413" type="curve" smooth="yes"/>
      <point x="342" y="390"/>
      <point x="358" y="376"/>
    </contour>
    <contour>
      <point x="452" y="91" type="curve" smooth="yes"/>
      <point x="473" y="91"/>
      <point x="487" y="105"/>
      <point x="487" y="128" type="curve" smooth="yes"/>
      <point x="487" y="151"/>
      <point x="471" y="164"/>
      <point x="452" y="164" type="curve" smooth="yes"/>
      <point x="433" y="164"/>
      <point x="416" y="151"/>
      <point x="416" y="128" type="curve" smooth="yes"/>
      <point x="416" y="105"/>
      <point x="433" y="91"/>
    </contour>
    <contour>
      <point x="478" y="195" type="curve" smooth="yes"/>
      <point x="498" y="195"/>
      <point x="513" y="208"/>
      <point x="513" y="232" type="curve" smooth="yes"/>
      <point x="513" y="255"/>
      <point x="496" y="267"/>
      <point x="478" y="267" type="curve" smooth="yes"/>
      <point x="458" y="267"/>
      <point x="442" y="255"/>
      <point x="442" y="232" type="curve" smooth="yes"/>
      <point x="442" y="208"/>
      <point x="458" y="195"/>
    </contour>
    <contour>
      <point x="452" y="299" type="curve" smooth="yes"/>
      <point x="473" y="299"/>
      <point x="487" y="313"/>
      <point x="487" y="336" type="curve" smooth="yes"/>
      <point x="487" y="359"/>
      <point x="471" y="372"/>
      <point x="452" y="372" type="curve" smooth="yes"/>
      <point x="433" y="372"/>
      <point x="416" y="359"/>
      <point x="416" y="336" type="curve" smooth="yes"/>
      <point x="416" y="313"/>
      <point x="433" y="299"/>
    </contour>
  </outline>
</glyph>
<glyph name="sidebearingleft" format="2">
  <advance width="149"/>
  <unicode hex="F130"/>
  <outline>
    <contour>
      <point x="19" y="0" type="line"/>
      <point x="19" y="-17" type="line"/>
      <point x="132" y="-17" type="line"/>
      <point x="132" y="-129" type="line"/>
      <point x="149" y="-129" type="line"/>
      <point x="149" y="0" type="line"/>
    </contour>
  </outline>
</glyph>
<glyph name="sidebearingright" format="2">
  <advance width="149"/>
  <unicode hex="F131"/>
  <outline>
    <contour>
      <point x="0" y="0" type="line"/>
      <point x="0" y="-129" type="line"/>
      <point x="17" y="-129" type="line"/>
      <point x="17" y="-17" type="line"/>
      <point x="129" y="-17" type="line"/>
      <point x="129" y="0" type="line"/>
    </contour>
  </outline>
</glyph>
<glyph name="avowel" format="2">
  <advance width="765"/>
  <unicode hex="11D60"/>
  <anchor x="742" y="665" name="A"/>
  <outline>
    <contour>
      <point x="545" y="-2" type="curve" smooth="yes"/>
      <point x="628" y="-2"/>
      <point x="710" y="57"/>
      <point x="710" y="194" type="curve" smooth="yes"/>
      <point x="710" y="615" type="line"/>
      <point x="637" y="615" type="line"/>
      <point x="637" y="183" type="line" smooth="yes"/>
      <point x="637" y="104"/>
      <point x="593" y="71"/>
      <point x="547" y="71" type="curve" smooth="yes"/>
      <point x="498" y="71"/>
      <point x="448" y="105"/>
      <point x="448" y="183" type="curve" smooth="yes"/>
      <point x="448" y="356" type="line"/>
      <point x="375" y="356" type="line"/>
      <point x="375" y="194" type="line" smooth="yes"/>
      <point x="375" y="59"/>
      <point x="460" y="-2"/>
    </contour>
    <contour>
      <point x="226" y="-2" type="curve" smooth="yes"/>
      <point x="305" y="-2"/>
      <point x="384" y="41"/>
      <point x="413" y="129" type="curve"/>
      <point x="375" y="247" type="line"/>
      <point x="375" y="127"/>
      <point x="298" y="70"/>
      <point x="226" y="70" type="curve" smooth="yes"/>
      <point x="165" y="70"/>
      <point x="109" y="112"/>
      <point x="109" y="188" type="curve" smooth="yes"/>
      <point x="109" y="247"/>
      <point x="152" y="290"/>
      <point x="202" y="290" type="curve" smooth="yes"/>
      <point x="230" y="290"/>
      <point x="259" y="276"/>
      <point x="277" y="247" type="curve"/>
      <point x="334" y="292" type="line"/>
      <point x="296" y="342"/>
      <point x="247" y="364"/>
      <point x="201" y="364" type="curve" smooth="yes"/>
      <point x="112" y="364"/>
      <point x="36" y="285"/>
      <point x="36" y="185" type="curve" smooth="yes"/>
      <point x="36" y="62"/>
      <point x="130" y="-2"/>
    </contour>
    <contour>
      <point x="-19" y="599" type="line"/>
      <point x="784" y="599" type="line"/>
      <point x="784" y="645" type="line"/>
      <point x="-19" y="645" type="line"/>
    </contour>
  </outline>
</glyph>
<glyph name="ya" format="2">
  <advance width="770"/>
  <unicode hex="11D6C"/>
  <anchor x="678" y="645" name="A"/>
  <anchor x="680" y="645" name="M"/>
  <outline>
    <contour>
      <point x="483" y="-2" type="curve" smooth="yes"/>
      <point x="562" y="-2"/>
      <point x="639" y="46"/>
      <point x="639" y="149" type="curve" smooth="yes"/>
      <point x="639" y="359"/>
      <point x="253" y="324"/>
      <point x="253" y="453" type="curve" smooth="yes"/>
      <point x="253" y="491"/>
      <point x="280" y="510"/>
      <point x="307" y="510" type="curve" smooth="yes"/>
      <point x="336" y="510"/>
      <point x="364" y="490"/>
      <point x="364" y="448" type="curve" smooth="yes"/>
      <point x="364" y="352"/>
      <point x="290" y="297"/>
      <point x="222" y="297" type="curve" smooth="yes"/>
      <point x="163" y="297"/>
      <point x="107" y="339"/>
      <point x="107" y="432" type="curve" smooth="yes"/>
      <point x="107" y="473"/>
      <point x="112" y="503"/>
      <point x="120" y="525" type="curve"/>
      <point x="47" y="525" type="line"/>
      <point x="40" y="494"/>
      <point x="36" y="463"/>
      <point x="36" y="433" type="curve" smooth="yes"/>
      <point x="36" y="320"/>
      <point x="94" y="226"/>
      <point x="223" y="226" type="curve" smooth="yes"/>
      <point x="314" y="226"/>
      <point x="437" y="333"/>
      <point x="437" y="451" type="curve" smooth="yes"/>
      <point x="437" y="535"/>
      <point x="372" y="580"/>
      <point x="307" y="580" type="curve" smooth="yes"/>
      <point x="243" y="580"/>
      <point x="180" y="539"/>
      <point x="180" y="456" type="curve" smooth="yes"/>
      <point x="180" y="342"/>
      <point x="288" y="310"/>
      <point x="380" y="284" type="curve" smooth="yes"/>
      <point x="480" y="256"/>
      <point x="566" y="214"/>
      <point x="566" y="150" type="curve" smooth="yes"/>
      <point x="566" y="95"/>
      <point x="523" y="71"/>
      <point x="480" y="71" type="curve" smooth="yes"/>
      <point x="438" y="71"/>
      <point x="396" y="98"/>
      <point x="396" y="152" type="curve" smooth="yes"/>
      <point x="396" y="262"/>
      <point x="588" y="300"/>
      <point x="674" y="410" type="curve" smooth="yes"/>
      <point x="698" y="441"/>
      <point x="715" y="479"/>
      <point x="715" y="525" type="curve" smooth="yes"/>
      <point x="715" y="615" type="line"/>
      <point x="642" y="615" type="line"/>
      <point x="642" y="525" type="line" smooth="yes"/>
      <point x="642" y="407"/>
      <point x="474" y="363"/>
      <point x="382" y="273" type="curve" smooth="yes"/>
      <point x="347" y="240"/>
      <point x="323" y="202"/>
      <point x="323" y="149" type="curve" smooth="yes"/>
      <point x="323" y="51"/>
      <point x="404" y="-2"/>
    </contour>
    <contour>
      <point x="-19" y="599" type="line"/>
      <point x="789" y="599" type="line"/>
      <point x="789" y="645" type="line"/>
      <point x="-19" y="645" type="line"/>
    </contour>
  </outline>
</glyph>
<glyph name="va" format="2">
  <advance width="604"/>
  <unicode hex="11D6D"/>
  <anchor x="512" y="645" name="A"/>
  <anchor x="514" y="645" name="M"/>
  <outline>
    <contour>
      <point x="-19" y="599" type="line"/>
      <point x="623" y="599" type="line"/>
      <point x="623" y="645" type="line"/>
      <point x="-19" y="645" type="line"/>
    </contour>
    <contour>
      <point x="293" y="-2" type="curve" smooth="yes"/>
      <point x="463" y="-2"/>
      <point x="549" y="107"/>
      <point x="549" y="278" type="curve" smooth="yes"/>
      <point x="549" y="615" type="line"/>
      <point x="476" y="615" type="line"/>
      <point x="476" y="272" type="line" smooth="yes"/>
      <point x="476" y="142"/>
      <point x="412" y="71"/>
      <point x="294" y="71" type="curve" smooth="yes"/>
      <point x="178" y="71"/>
      <point x="117" y="136"/>
      <point x="117" y="216" type="curve"/>
      <point x="77" y="180" type="line"/>
      <point x="92" y="178"/>
      <point x="107" y="177"/>
      <point x="121" y="177" type="curve" smooth="yes"/>
      <point x="264" y="177"/>
      <point x="313" y="288"/>
      <point x="313" y="369" type="curve" smooth="yes"/>
      <point x="313" y="456"/>
      <point x="250" y="541"/>
      <point x="122" y="541" type="curve" smooth="yes"/>
      <point x="102" y="541"/>
      <point x="83" y="539"/>
      <point x="66" y="535" type="curve"/>
      <point x="78" y="464" type="line"/>
      <point x="92" y="466"/>
      <point x="109" y="468"/>
      <point x="126" y="468" type="curve" smooth="yes"/>
      <point x="202" y="468"/>
      <point x="240" y="420"/>
      <point x="240" y="368" type="curve" smooth="yes"/>
      <point x="240" y="283"/>
      <point x="181" y="247"/>
      <point x="110" y="247" type="curve" smooth="yes"/>
      <point x="83" y="247"/>
      <point x="61" y="249"/>
      <point x="39" y="254" type="curve"/>
      <point x="36" y="80"/>
      <point x="150" y="-2"/>
    </contour>
  </outline>
</glyph>
<glyph name="tha" format="2">
  <advance width="1021"/>
  <unicode hex="11D74"/>
  <anchor x="929" y="645" name="A"/>
  <anchor x="928" y="645" name="M"/>
  <outline>
    <contour>
      <point x="314" y="-2" type="curve" smooth="yes"/>
      <point x="461" y="-2"/>
      <point x="559" y="111"/>
      <point x="559" y="271" type="curve" smooth="yes"/>
      <point x="559" y="471" type="line"/>
      <point x="514" y="426" type="line"/>
      <point x="624" y="426" type="line" smooth="yes"/>
      <point x="755" y="426"/>
      <point x="847" y="355"/>
      <point x="847" y="236" type="curve" smooth="yes"/>
      <point x="847" y="170"/>
      <point x="802" y="138"/>
      <point x="757" y="138" type="curve" smooth="yes"/>
      <point x="715" y="138"/>
      <point x="674" y="166"/>
      <point x="674" y="221" type="curve" smooth="yes"/>
      <point x="674" y="323"/>
      <point x="825" y="381"/>
      <point x="910" y="466" type="curve" smooth="yes"/>
      <point x="943" y="499"/>
      <point x="966" y="536"/>
      <point x="966" y="582" type="curve" smooth="yes"/>
      <point x="966" y="615" type="line"/>
      <point x="893" y="615" type="line"/>
      <point x="893" y="581" type="line" smooth="yes"/>
      <point x="893" y="468"/>
      <point x="601" y="397"/>
      <point x="601" y="218" type="curve" smooth="yes"/>
      <point x="601" y="117"/>
      <point x="678" y="65"/>
      <point x="756" y="65" type="curve" smooth="yes"/>
      <point x="837" y="65"/>
      <point x="920" y="121"/>
      <point x="920" y="237" type="curve" smooth="yes"/>
      <point x="920" y="377"/>
      <point x="804" y="499"/>
      <point x="624" y="499" type="curve" smooth="yes"/>
      <point x="486" y="499" type="line"/>
      <point x="486" y="274" type="line" smooth="yes"/>
      <point x="486" y="151"/>
      <point x="418" y="71"/>
      <point x="318" y="71" type="curve" smooth="yes"/>
      <point x="232" y="71"/>
      <point x="148" y="103"/>
      <point x="148" y="252" type="curve" smooth="yes"/>
      <point x="148" y="331" type="line"/>
      <point x="107" y="292" type="line"/>
      <point x="123" y="287"/>
      <point x="138" y="285"/>
      <point x="157" y="285" type="curve" smooth="yes"/>
      <point x="312" y="285"/>
      <point x="399" y="390"/>
      <point x="399" y="514" type="curve" smooth="yes"/>
      <point x="399" y="616"/>
      <point x="336" y="721"/>
      <point x="207" y="721" type="curve" smooth="yes"/>
      <point x="93" y="721"/>
      <point x="36" y="642"/>
      <point x="36" y="567" type="curve" smooth="yes"/>
      <point x="36" y="477"/>
      <point x="101" y="435"/>
      <point x="163" y="435" type="curve" smooth="yes"/>
      <point x="240" y="435"/>
      <point x="276" y="489"/>
      <point x="276" y="542" type="curve" smooth="yes"/>
      <point x="276" y="550"/>
      <point x="275" y="559"/>
      <point x="273" y="567" type="curve"/>
      <point x="202" y="552" type="line"/>
      <point x="203" y="548"/>
      <point x="203" y="544"/>
      <point x="203" y="541" type="curve" smooth="yes"/>
      <point x="203" y="520"/>
      <point x="189" y="508"/>
      <point x="164" y="508" type="curve" smooth="yes"/>
      <point x="128" y="508"/>
      <point x="108" y="536"/>
      <point x="108" y="566" type="curve" smooth="yes"/>
      <point x="108" y="605"/>
      <point x="139" y="648"/>
      <point x="203" y="648" type="curve" smooth="yes"/>
      <point x="279" y="648"/>
      <point x="326" y="599"/>
      <point x="326" y="508" type="curve" smooth="yes"/>
      <point x="326" y="433"/>
      <point x="274" y="357"/>
      <point x="151" y="357" type="curve" smooth="yes"/>
      <point x="125" y="357"/>
      <point x="98" y="359"/>
      <point x="75" y="362" type="curve"/>
      <point x="75" y="250" type="line" smooth="yes"/>
      <point x="75" y="74"/>
      <point x="180" y="-2"/>
    </contour>
    <contour>
      <point x="406" y="599" type="line"/>
      <point x="1040" y="599" type="line"/>
      <point x="1040" y="645" type="line"/>
      <point x="406" y="645" type="line"/>
    </contour>
  </outline>
</glyph>
<glyph name="gha" format="2">
  <advance width="823"/>
  <unicode hex="11D77"/>
  <anchor x="731" y="645" name="A"/>
  <anchor x="731" y="645" name="M"/>
  <outline>
    <contour>
      <point x="565" y="128" type="curve" smooth="yes"/>
      <point x="636" y="128"/>
      <point x="709" y="176"/>
      <point x="709" y="272" type="curve" smooth="yes"/>
      <point x="709" y="391"/>
      <point x="591" y="453"/>
      <point x="456" y="453" type="curve" smooth="yes"/>
      <point x="100" y="453" type="line"/>
      <point x="100" y="380" type="line"/>
      <point x="461" y="380" type="line" smooth="yes"/>
      <point x="561" y="380"/>
      <point x="636" y="336"/>
      <point x="636" y="272" type="curve" smooth="yes"/>
      <point x="636" y="225"/>
      <point x="601" y="201"/>
      <point x="567" y="201" type="curve" smooth="yes"/>
      <point x="533" y="201"/>
      <point x="499" y="224"/>
      <point x="499" y="271" type="curve" smooth="yes"/>
      <point x="499" y="389"/>
      <point x="747" y="441"/>
      <point x="767" y="590" type="curve" smooth="yes"/>
      <point x="768" y="598"/>
      <point x="768" y="607"/>
      <point x="768" y="615" type="curve"/>
      <point x="695" y="615" type="line"/>
      <point x="695" y="592" type="line" smooth="yes"/>
      <point x="695" y="506"/>
      <point x="426" y="434"/>
      <point x="426" y="265" type="curve" smooth="yes"/>
      <point x="426" y="174"/>
      <point x="495" y="128"/>
    </contour>
    <contour>
      <point x="219" y="-94" type="curve" smooth="yes"/>
      <point x="318" y="-94"/>
      <point x="417" y="-44"/>
      <point x="417" y="56" type="curve" smooth="yes"/>
      <point x="417" y="111"/>
      <point x="376" y="163"/>
      <point x="312" y="176" type="curve"/>
      <point x="321" y="138" type="line"/>
      <point x="357" y="162"/>
      <point x="372" y="195"/>
      <point x="372" y="227" type="curve" smooth="yes"/>
      <point x="372" y="281"/>
      <point x="329" y="332"/>
      <point x="260" y="332" type="curve" smooth="yes"/>
      <point x="157" y="332"/>
      <point x="109" y="368"/>
      <point x="109" y="471" type="curve" smooth="yes"/>
      <point x="109" y="603"/>
      <point x="207" y="660"/>
      <point x="273" y="660" type="curve" smooth="yes"/>
      <point x="308" y="660"/>
      <point x="335" y="645"/>
      <point x="335" y="616" type="curve" smooth="yes"/>
      <point x="335" y="595"/>
      <point x="316" y="573"/>
      <point x="284" y="573" type="curve" smooth="yes"/>
      <point x="256" y="573"/>
      <point x="227" y="590"/>
      <point x="227" y="627" type="curve" smooth="yes"/>
      <point x="227" y="647"/>
      <point x="231" y="661"/>
      <point x="237" y="670" type="curve"/>
      <point x="160" y="639" type="line"/>
      <point x="158" y="631"/>
      <point x="157" y="622"/>
      <point x="157" y="614" type="curve" smooth="yes"/>
      <point x="157" y="558"/>
      <point x="204" y="500"/>
      <point x="278" y="500" type="curve" smooth="yes"/>
      <point x="346" y="500"/>
      <point x="408" y="540"/>
      <point x="408" y="616" type="curve" smooth="yes"/>
      <point x="408" y="675"/>
      <point x="365" y="731"/>
      <point x="269" y="731" type="curve" smooth="yes"/>
      <point x="120" y="731"/>
      <point x="36" y="597"/>
      <point x="36" y="473" type="curve" smooth="yes"/>
      <point x="36" y="344"/>
      <point x="98" y="262"/>
      <point x="249" y="262" type="curve" smooth="yes"/>
      <point x="283" y="262"/>
      <point x="299" y="244"/>
      <point x="299" y="226" type="curve" smooth="yes"/>
      <point x="299" y="207"/>
      <point x="281" y="187"/>
      <point x="246" y="187" type="curve" smooth="yes"/>
      <point x="122" y="187" type="line"/>
      <point x="122" y="115" type="line"/>
      <point x="249" y="115" type="line" smooth="yes"/>
      <point x="315" y="115"/>
      <point x="344" y="84"/>
      <point x="344" y="54" type="curve" smooth="yes"/>
      <point x="344" y="4"/>
      <point x="283" y="-21"/>
      <point x="221" y="-21" type="curve" smooth="yes"/>
      <point x="172" y="-21"/>
      <point x="122" y="-5"/>
      <point x="102" y="28" type="curve"/>
      <point x="35" y="-1" type="line"/>
      <point x="65" y="-63"/>
      <point x="142" y="-94"/>
    </contour>
    <contour>
      <point x="-19" y="599" type="line"/>
      <point x="41" y="599" type="line"/>
      <point x="41" y="645" type="line"/>
      <point x="-19" y="645" type="line"/>
    </contour>
    <contour>
      <point x="430" y="599" type="line"/>
      <point x="842" y="599" type="line"/>
      <point x="842" y="645" type="line"/>
      <point x="430" y="645" type="line"/>
    </contour>
  </outline>
</glyph>
<glyph name="da" format="2">
  <advance width="928"/>
  <unicode hex="11D78"/>
  <anchor x="837" y="645" name="A"/>
  <anchor x="839" y="645" name="M"/>
  <outline>
    <contour>
      <point x="-19" y="599" type="line"/>
      <point x="947" y="599" type="line"/>
      <point x="947" y="645" type="line"/>
      <point x="-19" y="645" type="line"/>
    </contour>
    <contour>
      <point x="226" y="-2" type="curve" smooth="yes"/>
      <point x="340" y="-2"/>
      <point x="464" y="76"/>
      <point x="464" y="267" type="curve" smooth="yes"/>
      <point x="464" y="421"/>
      <point x="367" y="532"/>
      <point x="244" y="532" type="curve" smooth="yes"/>
      <point x="168" y="532"/>
      <point x="101" y="487"/>
      <point x="101" y="407" type="curve" smooth="yes"/>
      <point x="101" y="335"/>
      <point x="161" y="296"/>
      <point x="220" y="296" type="curve" smooth="yes"/>
      <point x="275" y="296"/>
      <point x="325" y="333"/>
      <point x="325" y="400" type="curve"/>
      <point x="254" y="400" type="line"/>
      <point x="255" y="379"/>
      <point x="237" y="367"/>
      <point x="217" y="367" type="curve" smooth="yes"/>
      <point x="195" y="367"/>
      <point x="172" y="381"/>
      <point x="172" y="410" type="curve" smooth="yes"/>
      <point x="172" y="443"/>
      <point x="203" y="460"/>
      <point x="238" y="460" type="curve" smooth="yes"/>
      <point x="332" y="460"/>
      <point x="391" y="377"/>
      <point x="391" y="267" type="curve" smooth="yes"/>
      <point x="391" y="119"/>
      <point x="308" y="71"/>
      <point x="232" y="71" type="curve" smooth="yes"/>
      <point x="170" y="71"/>
      <point x="123" y="94"/>
      <point x="109" y="140" type="curve"/>
      <point x="36" y="140" type="line"/>
      <point x="48" y="51"/>
      <point x="132" y="-2"/>
    </contour>
    <contour>
      <point x="673" y="-2" type="curve" smooth="yes"/>
      <point x="750" y="-2"/>
      <point x="826" y="54"/>
      <point x="826" y="160" type="curve" smooth="yes"/>
      <point x="826" y="288"/>
      <point x="712" y="353"/>
      <point x="585" y="353" type="curve" smooth="yes"/>
      <point x="520" y="353"/>
      <point x="471" y="338"/>
      <point x="413" y="313" type="curve"/>
      <point x="422" y="244" type="line"/>
      <point x="470" y="267"/>
      <point x="520" y="283"/>
      <point x="584" y="283" type="curve" smooth="yes"/>
      <point x="673" y="283"/>
      <point x="753" y="241"/>
      <point x="753" y="160" type="curve" smooth="yes"/>
      <point x="753" y="102"/>
      <point x="713" y="71"/>
      <point x="673" y="71" type="curve" smooth="yes"/>
      <point x="632" y="71"/>
      <point x="587" y="104"/>
      <point x="587" y="175" type="curve" smooth="yes"/>
      <point x="587" y="412"/>
      <point x="873" y="397"/>
      <point x="873" y="615" type="curve"/>
      <point x="801" y="615" type="line"/>
      <point x="805" y="462"/>
      <point x="514" y="446"/>
      <point x="514" y="179" type="curve" smooth="yes"/>
      <point x="514" y="57"/>
      <point x="594" y="-2"/>
    </contour>
  </outline>
</glyph>
<glyph name="dha" format="2">
  <advance width="780"/>
  <unicode hex="11D79"/>
  <anchor x="688" y="645" name="A"/>
  <anchor x="690" y="645" name="M"/>
  <outline>
    <component base="ma"/>
    <contour>
      <point x="225" y="315" type="line"/>
      <point x="278" y="336" type="line"/>
      <point x="173" y="512" type="line"/>
      <point x="126" y="484" type="line"/>
    </contour>
  </outline>
</glyph>
<glyph name="ttha" format="2">
  <advance width="960"/>
  <unicode hex="11D7E"/>
  <anchor x="869" y="645" name="A"/>
  <anchor x="874" y="645" name="M"/>
  <outline>
    <component base="tta"/>
    <contour>
      <point x="70" y="320" type="line"/>
      <point x="70" y="247" type="line"/>
      <point x="441" y="247" type="line"/>
      <point x="441" y="320" type="line"/>
    </contour>
  </outline>
</glyph>
<glyph name="lla" format="2">
  <advance width="616"/>
  <unicode hex="11D7F"/>
  <anchor x="524" y="645" name="A"/>
  <anchor x="526" y="645" name="M"/>
  <outline>
    <contour>
      <point x="326" y="-2" type="curve" smooth="yes"/>
      <point x="405" y="-2"/>
      <point x="485" y="50"/>
      <point x="485" y="153" type="curve" smooth="yes"/>
      <point x="485" y="257"/>
      <point x="401" y="298"/>
      <point x="308" y="324" type="curve" smooth="yes"/>
      <point x="214" y="350"/>
      <point x="109" y="385"/>
      <point x="109" y="442" type="curve" smooth="yes"/>
      <point x="109" y="478"/>
      <point x="137" y="496"/>
      <point x="165" y="496" type="curve" smooth="yes"/>
      <point x="191" y="496"/>
      <point x="217" y="479"/>
      <point x="217" y="440" type="curve" smooth="yes"/>
      <point x="217" y="409"/>
      <point x="186" y="380"/>
      <point x="145" y="354" type="curve"/>
      <point x="215" y="324" type="line"/>
      <point x="258" y="357"/>
      <point x="290" y="396"/>
      <point x="290" y="447" type="curve" smooth="yes"/>
      <point x="290" y="526"/>
      <point x="227" y="569"/>
      <point x="163" y="569" type="curve" smooth="yes"/>
      <point x="100" y="569"/>
      <point x="36" y="526"/>
      <point x="36" y="447" type="curve" smooth="yes"/>
      <point x="36" y="340"/>
      <point x="145" y="302"/>
      <point x="248" y="271" type="curve" smooth="yes"/>
      <point x="355" y="239"/>
      <point x="412" y="215"/>
      <point x="412" y="152" type="curve" smooth="yes"/>
      <point x="412" y="97"/>
      <point x="368" y="70"/>
      <point x="324" y="70" type="curve" smooth="yes"/>
      <point x="281" y="70"/>
      <point x="239" y="96"/>
      <point x="239" y="147" type="curve" smooth="yes"/>
      <point x="239" y="264"/>
      <point x="428" y="295"/>
      <point x="516" y="413" type="curve" smooth="yes"/>
      <point x="543" y="450"/>
      <point x="561" y="494"/>
      <point x="561" y="552" type="curve" smooth="yes"/>
      <point x="561" y="615" type="line"/>
      <point x="488" y="615" type="line"/>
      <point x="488" y="552" type="line" smooth="yes"/>
      <point x="488" y="395"/>
      <point x="293" y="355"/>
      <point x="207" y="252" type="curve" smooth="yes"/>
      <point x="183" y="223"/>
      <point x="168" y="189"/>
      <point x="168" y="147" type="curve" smooth="yes"/>
      <point x="168" y="49"/>
      <point x="247" y="-2"/>
    </contour>
    <contour>
      <point x="-19" y="599" type="line"/>
      <point x="635" y="599" type="line"/>
      <point x="635" y="645" type="line"/>
      <point x="-19" y="645" type="line"/>
    </contour>
  </outline>
</glyph>
<glyph name="nga" format="2">
  <advance width="756"/>
  <unicode hex="11D84"/>
  <anchor x="664" y="645" name="A"/>
  <anchor x="666" y="645" name="M"/>
  <outline>
    <contour>
      <point x="478" y="-2" type="curve" smooth="yes"/>
      <point x="563" y="-2"/>
      <point x="641" y="53"/>
      <point x="641" y="152" type="curve" smooth="yes"/>
      <point x="641" y="255"/>
      <point x="556" y="313"/>
      <point x="474" y="359" type="curve" smooth="yes"/>
      <point x="386" y="408"/>
      <point x="336" y="439"/>
      <point x="336" y="491" type="curve" smooth="yes"/>
      <point x="336" y="556"/>
      <point x="362" y="615"/>
      <point x="362" y="664" type="curve" smooth="yes"/>
      <point x="362" y="760"/>
      <point x="287" y="813"/>
      <point x="212" y="813" type="curve" smooth="yes"/>
      <point x="136" y="813"/>
      <point x="61" y="760"/>
      <point x="61" y="664" type="curve" smooth="yes"/>
      <point x="61" y="596"/>
      <point x="108" y="520"/>
      <point x="208" y="520" type="curve"/>
      <point x="208" y="593" type="line"/>
      <point x="158" y="593"/>
      <point x="134" y="628"/>
      <point x="134" y="664" type="curve" smooth="yes"/>
      <point x="134" y="701"/>
      <point x="161" y="740"/>
      <point x="213" y="740" type="curve" smooth="yes"/>
      <point x="254" y="740"/>
      <point x="289" y="710"/>
      <point x="289" y="664" type="curve" smooth="yes"/>
      <point x="289" y="599"/>
      <point x="264" y="563"/>
      <point x="264" y="486" type="curve" smooth="yes"/>
      <point x="264" y="403"/>
      <point x="330" y="360"/>
      <point x="405" y="317" type="curve" smooth="yes"/>
      <point x="505" y="260"/>
      <point x="568" y="218"/>
      <point x="568" y="154" type="curve" smooth="yes"/>
      <point x="568" y="99"/>
      <point x="524" y="71"/>
      <point x="481" y="71" type="curve" smooth="yes"/>
      <point x="438" y="71"/>
      <point x="393" y="99"/>
      <point x="393" y="154" type="curve" smooth="yes"/>
      <point x="393" y="205"/>
      <point x="442" y="254"/>
      <point x="510" y="293" type="curve" smooth="yes"/>
      <point x="598" y="344"/>
      <point x="701" y="407"/>
      <point x="701" y="540" type="curve" smooth="yes"/>
      <point x="701" y="615" type="line"/>
      <point x="628" y="615" type="line"/>
      <point x="628" y="540" type="line" smooth="yes"/>
      <point x="628" y="443"/>
      <point x="552" y="397"/>
      <point x="473" y="352" type="curve" smooth="yes"/>
      <point x="392" y="305"/>
      <point x="320" y="241"/>
      <point x="320" y="152" type="curve" smooth="yes"/>
      <point x="320" y="53"/>
      <point x="398" y="-2"/>
    </contour>
    <contour>
      <point x="-19" y="599" type="line"/>
      <point x="41" y="599" type="line"/>
      <point x="41" y="645" type="line"/>
      <point x="-19" y="645" type="line"/>
    </contour>
    <contour>
      <point x="383" y="599" type="line"/>
      <point x="775" y="599" type="line"/>
      <point x="775" y="645" type="line"/>
      <point x="383" y="645" type="line"/>
    </contour>
  </outline>
</glyph>
<glyph name="imatra" format="2">
  <advance width="313"/>
  <unicode hex="11D8B"/>
  <anchor x="318" y="655" name="A"/>
  <anchor x="-93" y="645" name="C"/>
  <outline>
    <component base="_imatra-hook" xOffset="-56"/>
    <contour>
      <point x="185" y="298" type="curve"/>
      <point x="258" y="298" type="line"/>
      <point x="258" y="621" type="line" smooth="yes"/>
      <point x="258" y="799"/>
      <point x="160" y="865"/>
      <point x="63" y="865" type="curve" smooth="yes"/>
      <point x="-33" y="865"/>
      <point x="-129" y="801"/>
      <point x="-129" y="630" type="curve"/>
      <point x="-56" y="630" type="line"/>
      <point x="-56" y="752"/>
      <point x="-3" y="792"/>
      <point x="64" y="792" type="curve" smooth="yes"/>
      <point x="129" y="792"/>
      <point x="185" y="751"/>
      <point x="185" y="621" type="curve" smooth="yes"/>
      <point x="185" y="609"/>
      <point x="185" y="631"/>
    </contour>
    <contour>
      <point x="-129" y="599" type="line"/>
      <point x="332" y="599" type="line"/>
      <point x="332" y="645" type="line"/>
      <point x="-129" y="645" type="line"/>
    </contour>
  </outline>
</glyph>
<glyph name="umatra" format="2">
  <advance width="334"/>
  <unicode hex="11D8D"/>
  <anchor x="-89" y="645" name="A"/>
  <anchor x="-93" y="645" name="C"/>
  <outline>
    <contour>
      <point x="107" y="252" type="curve" smooth="yes"/>
      <point x="196" y="252"/>
      <point x="298" y="306"/>
      <point x="298" y="428" type="curve" smooth="yes"/>
      <point x="298" y="527"/>
      <point x="230" y="572"/>
      <point x="163" y="572" type="curve" smooth="yes"/>
      <point x="97" y="572"/>
      <point x="32" y="528"/>
      <point x="32" y="450" type="curve" smooth="yes"/>
      <point x="32" y="410"/>
      <point x="45" y="373"/>
      <point x="100" y="347" type="curve"/>
      <point x="137" y="403" type="line"/>
      <point x="118" y="409"/>
      <point x="105" y="428"/>
      <point x="105" y="447" type="curve" smooth="yes"/>
      <point x="105" y="480"/>
      <point x="133" y="499"/>
      <point x="161" y="499" type="curve" smooth="yes"/>
      <point x="193" y="499"/>
      <point x="225" y="477"/>
      <point x="225" y="428" type="curve" smooth="yes"/>
      <point x="225" y="362"/>
      <point x="177" y="325"/>
      <point x="109" y="325" type="curve" smooth="yes"/>
      <point x="33" y="325"/>
      <point x="-55" y="357"/>
      <point x="-55" y="527" type="curve" smooth="yes"/>
      <point x="-55" y="624" type="line"/>
      <point x="-86" y="599" type="line"/>
      <point x="353" y="599" type="line"/>
      <point x="353" y="645" type="line"/>
      <point x="-128" y="645" type="line"/>
      <point x="-128" y="511" type="line" smooth="yes"/>
      <point x="-128" y="365"/>
      <point x="-48" y="252"/>
    </contour>
  </outline>
</glyph>
<glyph name="uumatra" format="2">
  <advance width="310"/>
  <unicode hex="11D8E"/>
  <anchor x="-89" y="645" name="A"/>
  <anchor x="-93" y="645" name="C"/>
  <outline>
    <contour>
      <point x="132" y="34" type="curve" smooth="yes"/>
      <point x="210" y="34"/>
      <point x="271" y="89"/>
      <point x="271" y="177" type="curve" smooth="yes"/>
      <point x="271" y="315"/>
      <point x="105" y="355"/>
      <point x="105" y="439" type="curve" smooth="yes"/>
      <point x="105" y="469"/>
      <point x="128" y="486"/>
      <point x="152" y="486" type="curve" smooth="yes"/>
      <point x="176" y="486"/>
      <point x="201" y="468"/>
      <point x="201" y="428" type="curve" smooth="yes"/>
      <point x="201" y="356"/>
      <point x="140" y="323"/>
      <point x="78" y="323" type="curve" smooth="yes"/>
      <point x="12" y="323"/>
      <point x="-55" y="371"/>
      <point x="-55" y="493" type="curve" smooth="yes"/>
      <point x="-55" y="624" type="line"/>
      <point x="-80" y="599" type="line"/>
      <point x="329" y="599" type="line"/>
      <point x="329" y="645" type="line"/>
      <point x="-128" y="645" type="line"/>
      <point x="-128" y="508" type="line" smooth="yes"/>
      <point x="-128" y="324"/>
      <point x="-24" y="250"/>
      <point x="78" y="250" type="curve" smooth="yes"/>
      <point x="177" y="250"/>
      <point x="274" y="322"/>
      <point x="274" y="428" type="curve" smooth="yes"/>
      <point x="274" y="516"/>
      <point x="213" y="558"/>
      <point x="152" y="558" type="curve" smooth="yes"/>
      <point x="92" y="558"/>
      <point x="32" y="517"/>
      <point x="32" y="438" type="curve" smooth="yes"/>
      <point x="32" y="303"/>
      <point x="198" y="280"/>
      <point x="198" y="174" type="curve" smooth="yes"/>
      <point x="198" y="127"/>
      <point x="169" y="107"/>
      <point x="134" y="107" type="curve" smooth="yes"/>
      <point x="110" y="107"/>
      <point x="83" y="116"/>
      <point x="60" y="131" type="curve"/>
      <point x="32" y="63" type="line"/>
      <point x="66" y="43"/>
      <point x="100" y="34"/>
    </contour>
  </outline>
</glyph>
<glyph name="eematra" format="2">
  <unicode hex="11D90"/>
  <anchor x="-125" y="712" name="A"/>
  <anchor x="-82" y="645" name="_M"/>
  <outline>
    <contour>
      <point x="-121" y="627" type="curve"/>
      <point x="-47" y="627" type="line"/>
      <point x="-68" y="759"/>
      <point x="-191" y="768"/>
      <point x="-291" y="774" type="curve" smooth="yes"/>
      <point x="-370" y="778"/>
      <point x="-441" y="782"/>
      <point x="-441" y="837" type="curve" smooth="yes"/>
      <point x="-441" y="859"/>
      <point x="-425" y="871"/>
      <point x="-408" y="871" type="curve" smooth="yes"/>
      <point x="-386" y="871"/>
      <point x="-373" y="854"/>
      <point x="-373" y="835" type="curve" smooth="yes"/>
      <point x="-373" y="812"/>
      <point x="-391" y="785"/>
      <point x="-437" y="776" type="curve"/>
      <point x="-364" y="749" type="line"/>
      <point x="-321" y="776"/>
      <point x="-303" y="810"/>
      <point x="-303" y="843" type="curve" smooth="yes"/>
      <point x="-303" y="894"/>
      <point x="-346" y="939"/>
      <point x="-404" y="939" type="curve" smooth="yes"/>
      <point x="-472" y="939"/>
      <point x="-510" y="888"/>
      <point x="-510" y="834" type="curve" smooth="yes"/>
      <point x="-510" y="784"/>
      <point x="-477" y="732"/>
      <point x="-406" y="717" type="curve" smooth="yes"/>
      <point x="-371" y="709"/>
      <point x="-331" y="707"/>
      <point x="-291" y="705" type="curve" smooth="yes"/>
      <point x="-209" y="701"/>
      <point x="-131" y="694"/>
    </contour>
    <contour>
      <point x="-165" y="599" type="line"/>
      <point x="0" y="599" type="line"/>
      <point x="0" y="645" type="line"/>
      <point x="-165" y="645" type="line"/>
    </contour>
  </outline>
</glyph>
<glyph name="aimatra" format="2">
  <unicode hex="11D91"/>
  <anchor x="-36" y="662" name="A"/>
  <anchor x="-82" y="645" name="_M"/>
  <outline>
    <contour>
      <point x="-120" y="628" type="curve"/>
      <point x="-47" y="628" type="line"/>
      <point x="-68" y="712"/>
      <point x="-137" y="743"/>
      <point x="-194" y="767" type="curve" smooth="yes"/>
      <point x="-238" y="786"/>
      <point x="-274" y="802"/>
      <point x="-274" y="837" type="curve" smooth="yes"/>
      <point x="-274" y="861"/>
      <point x="-257" y="873"/>
      <point x="-241" y="873" type="curve" smooth="yes"/>
      <point x="-224" y="873"/>
      <point x="-208" y="862"/>
      <point x="-208" y="839" type="curve" smooth="yes"/>
      <point x="-208" y="793"/>
      <point x="-267" y="750"/>
      <point x="-376" y="750" type="curve" smooth="yes"/>
      <point x="-472" y="750"/>
      <point x="-531" y="785"/>
      <point x="-531" y="835" type="curve" smooth="yes"/>
      <point x="-531" y="861"/>
      <point x="-513" y="873"/>
      <point x="-497" y="873" type="curve" smooth="yes"/>
      <point x="-477" y="873"/>
      <point x="-464" y="857"/>
      <point x="-464" y="837" type="curve" smooth="yes"/>
      <point x="-464" y="811"/>
      <point x="-486" y="781"/>
      <point x="-517" y="773" type="curve"/>
      <point x="-464" y="746" type="line"/>
      <point x="-418" y="768"/>
      <point x="-397" y="807"/>
      <point x="-397" y="844" type="curve" smooth="yes"/>
      <point x="-397" y="891"/>
      <point x="-433" y="938"/>
      <point x="-493" y="938" type="curve" smooth="yes"/>
      <point x="-548" y="938"/>
      <point x="-597" y="900"/>
      <point x="-597" y="839" type="curve" smooth="yes"/>
      <point x="-597" y="741"/>
      <point x="-496" y="688"/>
      <point x="-376" y="688" type="curve" smooth="yes"/>
      <point x="-266" y="688"/>
      <point x="-143" y="750"/>
      <point x="-143" y="839" type="curve" smooth="yes"/>
      <point x="-143" y="901"/>
      <point x="-191" y="938"/>
      <point x="-239" y="938" type="curve" smooth="yes"/>
      <point x="-305" y="938"/>
      <point x="-339" y="889"/>
      <point x="-339" y="838" type="curve" smooth="yes"/>
      <point x="-339" y="766"/>
      <point x="-278" y="738"/>
      <point x="-220" y="712" type="curve" smooth="yes"/>
      <point x="-173" y="691"/>
      <point x="-129" y="671"/>
    </contour>
    <contour>
      <point x="-165" y="599" type="line"/>
      <point x="-1" y="599" type="line"/>
      <point x="-1" y="645" type="line"/>
      <point x="-165" y="645" type="line"/>
    </contour>
  </outline>
</glyph>
<glyph name="zerogong" format="2">
  <advance width="553"/>
  <unicode hex="11DA0"/>
  <outline>
    <contour>
      <point x="276" y="-2" type="curve" smooth="yes"/>
      <point x="436" y="-2"/>
      <point x="518" y="149"/>
      <point x="518" y="301" type="curve" smooth="yes"/>
      <point x="518" y="451"/>
      <point x="437" y="601"/>
      <point x="276" y="601" type="curve" smooth="yes"/>
      <point x="117" y="601"/>
      <point x="35" y="449"/>
      <point x="35" y="297" type="curve" smooth="yes"/>
      <point x="35" y="147"/>
      <point x="115" y="-2"/>
    </contour>
    <contour>
      <point x="276" y="71" type="curve" smooth="yes"/>
      <point x="163" y="71"/>
      <point x="108" y="183"/>
      <point x="108" y="297" type="curve" smooth="yes"/>
      <point x="108" y="412"/>
      <point x="165" y="528"/>
      <point x="276" y="528" type="curve" smooth="yes"/>
      <point x="389" y="528"/>
      <point x="445" y="414"/>
      <point x="445" y="300" type="curve" smooth="yes"/>
      <point x="445" y="185"/>
      <point x="389" y="71"/>
    </contour>
  </outline>
</glyph>
